<svg width="155" height="100" viewBox="0 0 155 100" fill="none" xmlns="http://www.w3.org/2000/svg">
<path d="M110.068 74.3154H88.3389V93.3444H110.068V74.3154Z" fill="#093F68"/>
<path d="M110.074 93.9907H88.3383C88.167 93.9907 88.0027 93.9226 87.8816 93.8015C87.7604 93.6804 87.6924 93.5161 87.6924 93.3448V74.3158C87.6924 74.1445 87.7604 73.9802 87.8816 73.8591C88.0027 73.738 88.167 73.6699 88.3383 73.6699H110.074C110.245 73.6699 110.409 73.738 110.53 73.8591C110.652 73.9802 110.72 74.1445 110.72 74.3158V93.3448C110.72 93.5161 110.652 93.6804 110.53 93.8015C110.409 93.9226 110.245 93.9907 110.074 93.9907ZM88.9842 92.6989H109.428V74.9618H88.9842V92.6989Z" fill="#093F68"/>
<path d="M114.737 89.7861H82.8223V93.7457H114.737V89.7861Z" fill="white"/>
<path d="M114.73 94.385H82.8217C82.6504 94.385 82.4861 94.317 82.365 94.1959C82.2438 94.0747 82.1758 93.9104 82.1758 93.7391V89.7861C82.1758 89.6148 82.2438 89.4505 82.365 89.3293C82.4861 89.2082 82.6504 89.1401 82.8217 89.1401H114.73C114.902 89.1401 115.066 89.2082 115.187 89.3293C115.308 89.4505 115.376 89.6148 115.376 89.7861V93.7391C115.376 93.9104 115.308 94.0747 115.187 94.1959C115.066 94.317 114.902 94.385 114.73 94.385ZM83.4676 93.0932H114.084V90.432H83.4676V93.0932Z" fill="#093F68"/>
<path d="M135.91 75.3168H63.6765C63.1683 75.3271 62.6638 75.228 62.1972 75.0263C61.7307 74.8245 61.3129 74.5248 60.9723 74.1474C60.6317 73.7701 60.3762 73.3239 60.2232 72.8392C60.0701 72.3544 60.023 71.8424 60.0852 71.3379L64.7681 23.462C64.8979 22.3854 65.4102 21.3913 66.2117 20.6609C67.0133 19.9305 68.0506 19.5125 69.1346 19.4831H141.355C141.865 19.4699 142.371 19.5668 142.84 19.7674C143.309 19.968 143.729 20.2674 144.071 20.6452C144.413 21.023 144.67 21.4703 144.823 21.9565C144.976 22.4427 145.023 22.9562 144.96 23.462L140.283 71.3508C140.15 72.4262 139.636 73.4181 138.833 74.146C138.031 74.8739 136.993 75.2894 135.91 75.3168Z" fill="#093F68"/>
<path d="M135.911 75.9632H63.6773C63.0788 75.974 62.4849 75.8563 61.9357 75.6181C61.3866 75.3798 60.8949 75.0265 60.4939 74.5821C60.0929 74.1376 59.7919 73.6123 59.6112 73.0416C59.4305 72.4709 59.3744 71.868 59.4465 71.2738L64.123 23.385C64.269 22.1485 64.8564 21.0064 65.7774 20.1685C66.6983 19.3307 67.8907 18.8535 69.1354 18.8247H141.356C141.952 18.8154 142.542 18.9326 143.089 19.1687C143.636 19.4048 144.126 19.7543 144.528 20.1941C144.93 20.6409 145.232 21.1677 145.416 21.74C145.6 22.3122 145.66 22.9169 145.593 23.5141L140.91 71.403C140.765 72.6372 140.179 73.7777 139.261 74.6152C138.343 75.4528 137.153 75.9314 135.911 75.9632ZM69.1354 20.1166C68.211 20.145 67.3272 20.5031 66.6437 21.1262C65.9602 21.7493 65.522 22.5963 65.4084 23.5141L60.7319 71.403C60.6788 71.8174 60.7158 72.2384 60.8404 72.6372C60.9651 73.036 61.1744 73.4031 61.4541 73.7135C61.7338 74.0239 62.0773 74.2702 62.461 74.4355C62.8447 74.6008 63.2596 74.6813 63.6773 74.6713H135.911C136.838 74.6522 137.727 74.2973 138.413 73.6725C139.098 73.0476 139.533 72.1953 139.638 71.2738L144.321 23.385C144.369 22.9673 144.329 22.5442 144.202 22.1434C144.075 21.7427 143.865 21.3733 143.585 21.0596C143.301 20.7533 142.956 20.5107 142.572 20.3481C142.188 20.1855 141.773 20.1066 141.356 20.1166H69.1354Z" fill="#093F68"/>
<path d="M131.667 75.3176H59.44C58.9315 75.3277 58.4268 75.2286 57.9599 75.0269C57.4931 74.8252 57.075 74.5256 56.7339 74.1484C56.3928 73.7712 56.1367 73.3251 55.9829 72.8404C55.829 72.3557 55.781 71.8435 55.8422 71.3387L60.5251 23.4628C60.655 22.3851 61.1683 21.3901 61.9711 20.6596C62.774 19.9291 63.8129 19.5118 64.898 19.4839H137.132C137.639 19.4755 138.142 19.5759 138.607 19.7785C139.072 19.9811 139.488 20.2811 139.827 20.6582C140.166 21.0354 140.421 21.4809 140.573 21.9647C140.725 22.4485 140.772 22.9594 140.71 23.4628L136.027 71.3516C135.895 72.4248 135.382 73.415 134.582 74.1426C133.782 74.8702 132.748 75.2871 131.667 75.3176Z" fill="#78DDD1"/>
<path d="M131.667 75.9632H59.4397C58.8406 75.975 58.246 75.858 57.696 75.6202C57.1461 75.3823 56.6536 75.0292 56.2519 74.5846C55.8502 74.14 55.5486 73.6144 55.3675 73.0432C55.1865 72.472 55.1302 71.8686 55.2024 71.2738L59.8854 23.385C60.0313 22.1486 60.6188 21.0064 61.5397 20.1686C62.4606 19.3307 63.6531 18.8536 64.8977 18.8248H137.131C137.729 18.8149 138.323 18.9333 138.871 19.1719C139.419 19.4106 139.91 19.764 140.311 20.2084C140.711 20.6527 141.011 21.1777 141.192 21.748C141.372 22.3182 141.428 22.9205 141.356 23.5142L136.673 71.403C136.527 72.6384 135.941 73.7797 135.021 74.6174C134.101 75.4551 132.91 75.9329 131.667 75.9632ZM64.8977 20.1166C63.9705 20.1357 63.0816 20.4907 62.3962 21.1155C61.7108 21.7403 61.2753 22.5926 61.1707 23.5142L56.4878 71.403C56.4399 71.8191 56.4802 72.2406 56.6059 72.6401C56.7317 73.0397 56.9401 73.4082 57.2177 73.7219C57.4999 74.0283 57.8438 74.2713 58.2268 74.435C58.6099 74.5987 59.0232 74.6792 59.4397 74.6714H131.667C132.594 74.6523 133.483 74.2974 134.168 73.6725C134.854 73.0477 135.289 72.1954 135.394 71.2738L140.064 23.385C140.112 22.9679 140.072 22.5454 139.946 22.1448C139.82 21.7442 139.612 21.3745 139.334 21.0597C139.051 20.7559 138.708 20.515 138.327 20.3526C137.945 20.1901 137.533 20.1097 137.119 20.1166H64.8977Z" fill="#093F68"/>
<path d="M130.627 64.2141H62.65C62.3971 64.2188 62.1462 64.1691 61.9142 64.0683C61.6822 63.9675 61.4747 63.818 61.3056 63.6299C61.1365 63.4418 61.0098 63.2196 60.9342 62.9782C60.8585 62.7368 60.8357 62.482 60.8673 62.2311L64.4392 25.6718C64.5002 25.1336 64.7545 24.6358 65.1549 24.2711C65.5553 23.9064 66.0745 23.6994 66.616 23.6888H134.587C134.84 23.6842 135.091 23.7339 135.323 23.8346C135.555 23.9354 135.763 24.0847 135.933 24.2727C136.103 24.4607 136.23 24.6828 136.306 24.9242C136.383 25.1655 136.406 25.4204 136.376 25.6718L132.797 62.2181C132.74 62.7576 132.487 63.2575 132.088 63.6248C131.689 63.992 131.169 64.2015 130.627 64.2141Z" fill="white"/>
<path d="M130.627 64.8594H62.6498C62.3067 64.8635 61.9666 64.7945 61.6523 64.6569C61.3379 64.5193 61.0565 64.3163 60.8267 64.0615C60.5969 63.8067 60.4241 63.5058 60.3197 63.1789C60.2152 62.8521 60.1816 62.5067 60.2211 62.1659L63.7931 25.6066C63.8698 24.9066 64.1985 24.2585 64.7178 23.7831C65.2372 23.3077 65.9118 23.0375 66.6158 23.0229H134.586C134.93 23.0166 135.271 23.0842 135.587 23.2211C135.902 23.358 136.184 23.5609 136.414 23.8162C136.645 24.0715 136.817 24.3733 136.921 24.7011C137.025 25.0289 137.057 25.3751 137.015 25.7164L133.443 62.2757C133.368 62.975 133.041 63.6231 132.522 64.0986C132.004 64.5741 131.33 64.8446 130.627 64.8594ZM66.6158 24.3341C66.235 24.3478 65.8715 24.4962 65.59 24.7529C65.3085 25.0096 65.1272 25.3579 65.0785 25.7357L61.5065 62.295C61.4869 62.4573 61.5021 62.6219 61.5511 62.7778C61.6001 62.9338 61.6818 63.0775 61.7907 63.1993C61.8991 63.3188 62.0319 63.4134 62.1802 63.477C62.3284 63.5405 62.4886 63.5714 62.6498 63.5675H130.627C131.007 63.5536 131.37 63.405 131.65 63.1482C131.93 62.8914 132.11 62.5432 132.158 62.1659L135.73 25.6066C135.749 25.4443 135.734 25.2797 135.685 25.1238C135.636 24.9678 135.554 24.8241 135.445 24.7023C135.337 24.5828 135.204 24.4882 135.056 24.4246C134.908 24.3611 134.748 24.3302 134.586 24.3341H66.6158Z" fill="#093F68"/>
<path d="M126.997 60.0156H92.2852L94.8559 33.7007H129.568L126.997 60.0156Z" fill="white"/>
<path d="M126.996 60.661H92.2649C92.1748 60.6608 92.0857 60.6417 92.0034 60.605C91.921 60.5683 91.8473 60.5148 91.7869 60.4479C91.7257 60.3813 91.6791 60.3027 91.6502 60.217C91.6212 60.1313 91.6106 60.0405 91.619 59.9505L94.2027 33.6355C94.2188 33.4757 94.2938 33.3275 94.4133 33.22C94.5327 33.1125 94.6879 33.0534 94.8486 33.0542H129.561C129.65 33.0536 129.739 33.0717 129.821 33.1073C129.904 33.1428 129.978 33.1952 130.039 33.2609C130.1 33.3274 130.146 33.4061 130.175 33.4918C130.204 33.5774 130.215 33.6682 130.206 33.7583L127.623 60.0732C127.609 60.231 127.537 60.378 127.421 60.4864C127.306 60.5948 127.155 60.6569 126.996 60.661ZM92.9948 59.3692H126.408L128.857 34.3461H95.4429L92.9948 59.3692Z" fill="#093F68"/>
<path d="M129.135 38.1576H94.4229L94.8556 33.7007H129.568L129.135 38.1576Z" fill="white"/>
<path d="M129.135 38.8029H94.4228C94.332 38.8045 94.242 38.7868 94.1585 38.7512C94.0751 38.7156 94 38.6628 93.9383 38.5962C93.8782 38.5292 93.8328 38.4503 93.805 38.3646C93.7772 38.279 93.7676 38.1885 93.7768 38.0989L94.2161 33.6355C94.2321 33.4757 94.3072 33.3275 94.4267 33.22C94.5461 33.1125 94.7013 33.0534 94.862 33.0542H129.574C129.664 33.0536 129.752 33.0717 129.835 33.1073C129.917 33.1428 129.991 33.1952 130.052 33.2609C130.113 33.3274 130.16 33.4061 130.189 33.4918C130.218 33.5774 130.228 33.6682 130.22 33.7583L129.781 38.2216C129.765 38.3815 129.69 38.5296 129.57 38.6371C129.451 38.7446 129.295 38.8037 129.135 38.8029ZM95.1333 37.5111H128.547L128.857 34.3461H95.4433L95.1333 37.5111Z" fill="#093F68"/>
<path d="M103.344 54.273H68.6318L71.2026 27.958H105.915L103.344 54.273Z" fill="white"/>
<path d="M103.343 54.9193H68.6311C68.541 54.9191 68.4519 54.9 68.3696 54.8633C68.2873 54.8266 68.2135 54.7731 68.1531 54.7061C68.0919 54.6396 68.0453 54.561 68.0164 54.4753C67.9874 54.3896 67.9768 54.2988 67.9852 54.2088L70.5689 27.8938C70.585 27.734 70.66 27.5858 70.7795 27.4783C70.8989 27.3708 71.0541 27.3117 71.2148 27.3125H105.927C106.017 27.3121 106.107 27.3306 106.19 27.3671C106.273 27.4035 106.347 27.4569 106.408 27.5239C106.469 27.5909 106.515 27.67 106.543 27.756C106.572 27.8419 106.582 27.9329 106.573 28.023L103.989 54.338C103.973 54.4979 103.898 54.646 103.778 54.7535C103.659 54.861 103.504 54.9201 103.343 54.9193ZM69.3416 53.6275H102.755L105.184 28.6302H71.7897L69.3416 53.6275Z" fill="#093F68"/>
<path d="M105.481 32.4213H70.7627L71.2019 27.958H105.914L105.481 32.4213Z" fill="white"/>
<path d="M105.481 33.0677H70.763C70.6729 33.0675 70.5838 33.0484 70.5014 33.0117C70.4191 32.975 70.3454 32.9215 70.285 32.8545C70.2249 32.7875 70.1795 32.7086 70.1517 32.6229C70.1239 32.5373 70.1143 32.4468 70.1235 32.3572L70.5563 27.8938C70.5724 27.734 70.6474 27.5858 70.7669 27.4783C70.8863 27.3708 71.0415 27.3117 71.2022 27.3125H105.914C106.005 27.3121 106.094 27.3306 106.177 27.3671C106.26 27.4035 106.334 27.4569 106.395 27.5239C106.456 27.5909 106.502 27.67 106.531 27.756C106.559 27.8419 106.569 27.9329 106.56 28.023L106.121 32.4864C106.105 32.6451 106.031 32.7924 105.913 32.8997C105.795 33.0071 105.641 33.0669 105.481 33.0677ZM71.48 31.7758H104.894L105.184 28.6302H71.79L71.48 31.7758Z" fill="#093F68"/>
<path d="M97.3229 50.8438H90.2884C90.1982 50.8436 90.1091 50.8246 90.0268 50.7878C89.9445 50.7511 89.8708 50.6976 89.8104 50.6307C89.7491 50.5641 89.7025 50.4855 89.6736 50.3998C89.6447 50.3141 89.634 50.2233 89.6424 50.1333L90.0429 46.0379C90.059 45.878 90.1341 45.7299 90.2535 45.6224C90.373 45.5149 90.5282 45.4557 90.6889 45.4566H97.7234C97.8135 45.4568 97.9026 45.4758 97.9849 45.5125C98.0673 45.5493 98.141 45.6028 98.2014 45.6697C98.2615 45.7368 98.3069 45.8157 98.3347 45.9013C98.3625 45.987 98.3721 46.0775 98.3629 46.1671L97.9624 50.2625C97.9464 50.4213 97.8723 50.5685 97.7542 50.6759C97.6361 50.7832 97.4825 50.843 97.3229 50.8438ZM90.9989 49.5519H96.7351L97.0064 46.7485H91.2702L90.9989 49.5519Z" fill="#DFEAEF"/>
<path d="M100.185 47.258H93.1504L93.5509 43.1626H100.585L100.185 47.258Z" fill="white"/>
<path d="M100.185 47.9044H93.1507C93.0606 47.9042 92.9715 47.8851 92.8892 47.8484C92.8068 47.8117 92.7331 47.7581 92.6727 47.6912C92.6126 47.6242 92.5672 47.5453 92.5394 47.4596C92.5116 47.3739 92.502 47.2834 92.5112 47.1938L92.9117 43.0985C92.9278 42.9386 93.0029 42.7904 93.1223 42.6829C93.2418 42.5754 93.397 42.5163 93.5577 42.5171H100.592C100.682 42.5173 100.771 42.5364 100.854 42.5731C100.936 42.6098 101.01 42.6633 101.07 42.7303C101.131 42.7968 101.178 42.8754 101.207 42.9611C101.236 43.0468 101.247 43.1376 101.238 43.2277L100.838 47.323C100.821 47.484 100.745 47.6331 100.625 47.7408C100.504 47.8484 100.347 47.9068 100.185 47.9044ZM93.8613 46.6125H99.5974L99.8751 43.809H94.139L93.8613 46.6125Z" fill="#DFEAEF"/>
<path d="M83.468 43.1634H73.2812L74.0822 35.0308H84.2626L83.468 43.1634Z" fill="white"/>
<path d="M83.4693 43.8098H73.2826C73.1924 43.8096 73.1033 43.7905 73.021 43.7538C72.9387 43.7171 72.8649 43.6636 72.8045 43.5966C72.7444 43.5296 72.699 43.4507 72.6712 43.365C72.6434 43.2794 72.6338 43.1888 72.6431 43.0992L73.4376 34.9666C73.4537 34.8067 73.5287 34.6586 73.6482 34.5511C73.7676 34.4436 73.9229 34.3845 74.0836 34.3853H84.2639C84.3535 34.3847 84.4423 34.4027 84.5246 34.4383C84.6069 34.4739 84.6809 34.5262 84.7419 34.592C84.8031 34.6585 84.8497 34.7372 84.8787 34.8228C84.9076 34.9085 84.9182 34.9993 84.9098 35.0894L84.1153 43.2284C84.0992 43.3883 84.0241 43.5365 83.9047 43.644C83.7852 43.7515 83.63 43.8106 83.4693 43.8098ZM73.9996 42.5179H82.8815L83.5275 35.6772H74.6649L73.9996 42.5179Z" fill="#DFEAEF"/>
<path d="M79.283 50.5659H72.5586L73.0431 45.6631H79.761L79.283 50.5659Z" fill="white"/>
<path d="M79.2834 51.2377H72.5589C72.4688 51.2375 72.3797 51.2184 72.2974 51.1817C72.215 51.145 72.1413 51.0915 72.0809 51.0245C72.0208 50.9575 71.9754 50.8786 71.9476 50.7929C71.9198 50.7073 71.9102 50.6167 71.9194 50.5272L72.3974 45.6308C72.412 45.4697 72.4864 45.32 72.606 45.2112C72.7256 45.1023 72.8817 45.0423 73.0434 45.043H79.7614C79.8515 45.0432 79.9406 45.0623 80.0229 45.099C80.1053 45.1357 80.179 45.1892 80.2394 45.2561C80.2995 45.3232 80.3449 45.4021 80.3727 45.4878C80.4005 45.5734 80.4101 45.6639 80.4009 45.7535L79.9229 50.6564C79.9069 50.8151 79.8327 50.9624 79.7147 51.0697C79.5966 51.1771 79.4429 51.2369 79.2834 51.2377ZM73.2759 49.9458H78.702L79.0573 46.3349H73.6312L73.2759 49.9458Z" fill="#DFEAEF"/>
<path d="M123.387 43.1635H109.112C108.94 43.1635 108.776 43.0954 108.655 42.9743C108.534 42.8532 108.466 42.6889 108.466 42.5175C108.466 42.3462 108.534 42.1819 108.655 42.0608C108.776 41.9396 108.94 41.8716 109.112 41.8716H123.387C123.559 41.8716 123.723 41.9396 123.844 42.0608C123.965 42.1819 124.033 42.3462 124.033 42.5175C124.033 42.6889 123.965 42.8532 123.844 42.9743C123.723 43.0954 123.559 43.1635 123.387 43.1635Z" fill="#DFEAEF"/>
<path d="M118.272 47.5234H108.686C108.515 47.5234 108.35 47.4553 108.229 47.3342C108.108 47.213 108.04 47.0487 108.04 46.8774C108.04 46.7061 108.108 46.5418 108.229 46.4206C108.35 46.2995 108.515 46.2314 108.686 46.2314H118.272C118.443 46.2314 118.608 46.2995 118.729 46.4206C118.85 46.5418 118.918 46.7061 118.918 46.8774C118.918 47.0487 118.85 47.213 118.729 47.3342C118.608 47.4553 118.443 47.5234 118.272 47.5234Z" fill="#DFEAEF"/>
<path d="M122.534 51.8837H108.258C108.087 51.8837 107.923 51.8157 107.802 51.6945C107.68 51.5734 107.612 51.4091 107.612 51.2378C107.612 51.0664 107.68 50.9021 107.802 50.781C107.923 50.6599 108.087 50.5918 108.258 50.5918H122.534C122.705 50.5918 122.87 50.6599 122.991 50.781C123.112 50.9021 123.18 51.0664 123.18 51.2378C123.18 51.4091 123.112 51.5734 122.991 51.6945C122.87 51.8157 122.705 51.8837 122.534 51.8837Z" fill="#DFEAEF"/>
<path d="M122.108 56.2494H115.648C115.477 56.2494 115.312 56.1814 115.191 56.0602C115.07 55.9391 115.002 55.7748 115.002 55.6035C115.002 55.4322 115.07 55.2679 115.191 55.1467C115.312 55.0256 115.477 54.9575 115.648 54.9575H122.108C122.279 54.9575 122.443 55.0256 122.564 55.1467C122.685 55.2679 122.753 55.4322 122.753 55.6035C122.753 55.7748 122.685 55.9391 122.564 56.0602C122.443 56.1814 122.279 56.2494 122.108 56.2494Z" fill="#DFEAEF"/>
<path d="M110.074 56.2494H107.832C107.661 56.2494 107.497 56.1814 107.376 56.0602C107.255 55.9391 107.187 55.7748 107.187 55.6035C107.187 55.4322 107.255 55.2679 107.376 55.1467C107.497 55.0256 107.661 54.9575 107.832 54.9575H110.074C110.245 54.9575 110.41 55.0256 110.531 55.1467C110.652 55.2679 110.72 55.4322 110.72 55.6035C110.72 55.7748 110.652 55.9391 110.531 56.0602C110.41 56.1814 110.245 56.2494 110.074 56.2494Z" fill="#DFEAEF"/>
<path d="M112.703 93.3442H48.6982V99.2351H112.703V93.3442Z" fill="#78DDD1"/>
<path d="M112.702 99.8749H48.6977C48.5264 99.8749 48.3621 99.8069 48.2409 99.6858C48.1198 99.5646 48.0518 99.4003 48.0518 99.229V93.3447C48.0518 93.1733 48.1198 93.0091 48.2409 92.8879C48.3621 92.7668 48.5264 92.6987 48.6977 92.6987H112.702C112.874 92.6987 113.038 92.7668 113.159 92.8879C113.28 93.0091 113.348 93.1733 113.348 93.3447V99.229C113.348 99.4003 113.28 99.5646 113.159 99.6858C113.038 99.8069 112.874 99.8749 112.702 99.8749ZM49.3436 98.5831H112.056V93.9906H49.3436V98.5831Z" fill="#093F68"/>
<path d="M112.703 99.2295H147.692V93.3387H112.703V99.2295Z" fill="#78DDD1"/>
<path d="M147.692 99.8749H112.703C112.531 99.8749 112.367 99.8069 112.246 99.6858C112.125 99.5646 112.057 99.4003 112.057 99.229V93.3447C112.057 93.1733 112.125 93.0091 112.246 92.8879C112.367 92.7668 112.531 92.6987 112.703 92.6987H147.692C147.864 92.6987 148.028 92.7668 148.149 92.8879C148.27 93.0091 148.338 93.1733 148.338 93.3447V99.229C148.338 99.4003 148.27 99.5646 148.149 99.6858C148.028 99.8069 147.864 99.8749 147.692 99.8749ZM113.348 98.5831H147.046V93.9906H113.348V98.5831Z" fill="#093F68"/>
<path d="M53.6527 38.3188C53.6527 38.3188 56.4497 42.6984 55.1448 44.2423C53.84 45.7861 51.127 44.2423 51.127 44.2423" fill="#FFC9B0"/>
<path d="M53.5092 45.5471C52.553 45.5016 51.6202 45.2364 50.7832 44.7719C50.7094 44.7295 50.6447 44.673 50.5927 44.6055C50.5408 44.5381 50.5026 44.4611 50.4804 44.3789C50.4582 44.2967 50.4524 44.211 50.4634 44.1266C50.4743 44.0422 50.5018 43.9607 50.5442 43.8869C50.5866 43.8131 50.6432 43.7484 50.7106 43.6965C50.778 43.6445 50.855 43.6063 50.9372 43.5842C51.0194 43.562 51.1051 43.5562 51.1895 43.5671C51.2739 43.5781 51.3554 43.6055 51.4292 43.6479C51.4292 43.6479 53.7029 44.8882 54.659 43.7965C55.3049 42.9891 54.1357 40.2373 53.1087 38.6288C53.017 38.4841 52.9866 38.3088 53.0242 38.1417C53.0617 37.9745 53.1641 37.8291 53.3089 37.7374C53.4537 37.6458 53.6289 37.6154 53.7961 37.6529C53.9633 37.6905 54.1087 37.7929 54.2003 37.9377C54.7106 38.7322 57.1782 42.8082 55.6408 44.6298C55.3797 44.936 55.0516 45.178 54.682 45.337C54.3123 45.4961 53.911 45.568 53.5092 45.5471Z" fill="#093F68"/>
<path d="M23.7532 44.0812C26.5645 44.0812 28.8434 42.1175 28.8434 39.6951C28.8434 37.2728 26.5645 35.3091 23.7532 35.3091C20.942 35.3091 18.6631 37.2728 18.6631 39.6951C18.6631 42.1175 20.942 44.0812 23.7532 44.0812Z" fill="#FFC9B0"/>
<path d="M23.7521 44.7202C20.5934 44.7202 18.0225 42.4658 18.0225 39.6946C18.0225 36.9235 20.6063 34.6626 23.7521 34.6626C26.8979 34.6626 29.4882 36.917 29.4882 39.6946C29.4882 42.4722 26.9173 44.7202 23.7521 44.7202ZM23.7521 35.9545C21.3039 35.9545 19.3144 37.634 19.3144 39.6946C19.3144 41.7552 21.3039 43.4283 23.7521 43.4283C26.2003 43.4283 28.1963 41.7552 28.1963 39.6946C28.1963 37.634 26.2003 35.9545 23.7521 35.9545Z" fill="#093F68"/>
<path d="M45.5518 20.8789C49.9183 28.3716 52.896 24.1085 53.7938 22.6552V38.6224C53.7937 42.4606 52.3549 46.1594 49.7612 48.9886C47.1675 51.8179 43.6075 53.5721 39.7837 53.905V57.1798C39.7837 57.8736 39.5081 58.539 39.0175 59.0296C38.5269 59.5202 37.8615 59.7958 37.1677 59.7958C36.4739 59.7958 35.8085 59.5202 35.3179 59.0296C34.8273 58.539 34.5517 57.8736 34.5517 57.1798V54.1117C25.244 53.7629 20.7031 45.7534 20.7031 38.6095L23.106 24.3992C23.106 24.3992 29.2035 29.1726 45.5518 20.8789Z" fill="#FFC9B0"/>
<path d="M37.1676 60.4607C36.3075 60.4505 35.4861 60.1016 34.8816 59.4898C34.277 58.878 33.9379 58.0525 33.938 57.1923V54.7313C31.93 54.6207 29.9696 54.0782 28.1905 53.1407C26.4114 52.2032 24.8555 50.8929 23.6291 49.2991C21.2993 46.2258 20.0443 42.472 20.0571 38.6155C20.0539 38.5811 20.0539 38.5465 20.0571 38.5122L22.4599 24.3018C22.4788 24.1918 22.5259 24.0885 22.5965 24.0021C22.6672 23.9157 22.7591 23.8491 22.8632 23.8087C22.9673 23.7684 23.0801 23.7557 23.1905 23.7719C23.301 23.7882 23.4053 23.8328 23.4934 23.9014C23.5515 23.9401 29.5716 28.242 45.2546 20.2971C45.4019 20.2219 45.5725 20.2062 45.7311 20.253C45.8898 20.2999 46.0244 20.4058 46.1072 20.549C47.6187 23.1327 49.1043 24.5215 50.4026 24.5344C51.3586 24.5344 52.3404 23.798 53.2382 22.3124C53.312 22.1933 53.4225 22.1014 53.5531 22.0507C53.6837 21.9999 53.8272 21.9929 53.9621 22.0308C54.0969 22.0687 54.2158 22.1494 54.3008 22.2608C54.3858 22.3722 54.4322 22.5082 54.4332 22.6483V38.6155C54.4125 42.5073 52.9814 46.2596 50.4052 49.1766C47.829 52.0937 44.2824 53.9778 40.4231 54.4794V57.1729C40.4256 57.6027 40.3434 58.0287 40.1811 58.4266C40.0188 58.8246 39.7796 59.1866 39.4772 59.492C39.1749 59.7974 38.8152 60.0401 38.4189 60.2063C38.0226 60.3725 37.5974 60.459 37.1676 60.4607ZM21.3489 38.693C21.3489 45.7982 25.9092 53.1553 34.571 53.4782C34.7423 53.4782 34.9066 53.5463 35.0277 53.6674C35.1489 53.7886 35.2169 53.9528 35.2169 54.1242V57.1988C35.2169 57.7212 35.4245 58.2223 35.794 58.5918C36.1634 58.9613 36.6645 59.1688 37.187 59.1688C37.7095 59.1688 38.2106 58.9613 38.5801 58.5918C38.9495 58.2223 39.1571 57.7212 39.1571 57.1988V53.9239C39.1566 53.7612 39.2175 53.6043 39.3276 53.4845C39.4378 53.3648 39.5891 53.291 39.7513 53.278C43.4063 52.9381 46.8041 51.2507 49.2837 48.5442C51.7634 45.8377 53.1477 42.3055 53.1672 38.6349V24.5731C52.8259 24.9624 52.4086 25.2778 51.941 25.5C51.4733 25.7222 50.9652 25.8464 50.4478 25.865C48.749 25.865 47.0374 24.4698 45.358 21.7569C32.4395 28.1774 25.8575 26.4851 23.642 25.458L21.3489 38.693Z" fill="#093F68"/>
<path d="M45.7143 27.2737C46.6702 27.3771 53.7625 29.1275 54.4859 28.4041C56.0039 26.8797 56.0232 24.5285 55.6744 22.552C55.137 19.494 53.8647 16.6123 51.9668 14.155C50.2228 11.9072 47.4066 8.91655 44.3901 8.7034C44.2748 8.68192 44.156 8.68829 44.0437 8.722C43.9313 8.7557 43.8287 8.81576 43.7442 8.89717C43.6858 9.01112 43.6554 9.13732 43.6554 9.26535C43.6554 9.39338 43.6858 9.51958 43.7442 9.63353L45.0361 13.0053C43.1568 10.7422 40.5104 9.25004 37.6015 8.8132C34.7101 8.39744 31.7628 8.61788 28.9655 9.45913C28.7459 10.9835 31.0195 11.6876 31.4652 13.1667C28.1778 12.8589 24.887 13.7188 22.1703 15.5954C16.7704 19.3676 15.485 25.6654 15.6401 31.8339C15.7628 36.2973 16.4604 40.8769 18.7469 44.7137C23.1263 52.0707 33.3448 53.931 40.2627 49.5323C46.793 45.4242 45.1136 30.6519 45.7143 27.2737Z" fill="#FFD705"/>
<path d="M31.9622 52.529C30.622 52.5288 29.2865 52.3706 27.9834 52.0575C25.962 51.608 24.0525 50.7542 22.3697 49.5476C20.6869 48.341 19.2655 46.8065 18.1911 45.0363C16.1565 41.6194 15.1424 37.4273 15.0003 31.8465C14.7871 23.8887 17.0156 18.3984 21.8019 15.0525C24.293 13.3551 27.2427 12.4583 30.257 12.4817L29.7726 12.0296C29.0233 11.3837 28.1771 10.5827 28.3515 9.39421C28.3699 9.26955 28.4243 9.153 28.5081 9.05889C28.5919 8.96478 28.7014 8.89722 28.8231 8.86455C31.7116 8.00178 34.754 7.78132 37.7368 8.21863C39.781 8.54685 41.7218 9.34263 43.408 10.544L43.1497 9.89803C43.0461 9.68738 42.9966 9.45428 43.0057 9.21974C43.0147 8.9852 43.0819 8.75658 43.2013 8.5545C43.349 8.36789 43.5454 8.22571 43.7688 8.14364C43.9922 8.06158 44.234 8.04282 44.4673 8.08944C47.0123 8.2703 49.7187 10.1887 52.5091 13.793C54.4683 16.3234 55.7848 19.2912 56.3459 22.4419C56.8432 25.2904 56.3459 27.4478 54.9701 28.8624C54.3241 29.5083 52.6318 29.3339 47.2642 28.2164L46.3018 28.0227C46.2372 28.7913 46.2178 29.8894 46.2049 31.1102C46.1144 36.9235 45.9723 46.6963 40.6435 50.081C38.041 51.705 35.0298 52.5542 31.9622 52.529ZM30.1601 13.7736C27.4378 13.7785 24.7807 14.6072 22.5382 16.1506C18.1395 19.2252 16.079 24.3538 16.2857 31.8401C16.4278 37.2012 17.3837 41.1931 19.3021 44.4098C20.2947 46.0312 21.6054 47.4348 23.1551 48.5361C24.7048 49.6373 26.4615 50.4133 28.3192 50.8173C30.2812 51.2993 32.3194 51.3865 34.3154 51.0738C36.3114 50.7611 38.2253 50.0547 39.9459 48.9958C44.6805 45.9858 44.8226 36.6651 44.9066 31.1037C44.8848 29.7854 44.9496 28.467 45.1003 27.1571C45.1303 26.9973 45.2194 26.8547 45.3499 26.7577C45.4805 26.6607 45.6427 26.6165 45.8044 26.6339C46.0628 26.6339 46.5666 26.7631 47.5161 26.9569C49.1051 27.2863 53.2907 28.1518 54.0981 27.8999C55.1574 26.8019 55.4803 25.0385 55.067 22.6615C54.5408 19.7204 53.3109 16.9502 51.4821 14.5874C49.7252 12.3138 47.064 9.56861 44.3769 9.37483C44.378 9.39635 44.378 9.41791 44.3769 9.43942L45.6688 12.8047C45.7346 12.9504 45.7441 13.1154 45.6953 13.2677C45.6466 13.4199 45.5431 13.5487 45.4048 13.6291C45.2666 13.7095 45.1034 13.7357 44.947 13.7027C44.7905 13.6698 44.6518 13.5799 44.5578 13.4506C42.7694 11.3209 40.2665 9.91564 37.5172 9.49755C34.9009 9.10641 32.2315 9.26926 29.6821 9.97554C29.9216 10.4036 30.2471 10.7775 30.6381 11.0736C31.2969 11.5728 31.8062 12.243 32.1108 13.0114C32.1406 13.1129 32.145 13.2202 32.1236 13.3238C32.1022 13.4274 32.0556 13.5242 31.9881 13.6056C31.9207 13.6876 31.8342 13.7516 31.7362 13.7922C31.6382 13.8327 31.5317 13.8485 31.4261 13.8382C30.9955 13.7951 30.5735 13.7736 30.1601 13.7736Z" fill="#093F68"/>
<path d="M47.0504 34.4431C44.951 33.6808 41.5662 34.0555 41.5791 38.532C41.5791 40.9543 43.0519 43.0537 45.2676 43.1958" fill="#FFC9B0"/>
<path d="M45.2807 43.8356H45.229C42.755 43.6547 40.9527 41.4197 40.9463 38.5258C40.9463 36.0324 41.9281 34.8116 42.7679 34.2237C43.4386 33.8099 44.1968 33.5587 44.982 33.4903C45.7671 33.4218 46.5574 33.5381 47.2896 33.8297C47.446 33.8913 47.5723 34.0116 47.6415 34.1648C47.7107 34.3181 47.7174 34.4923 47.6602 34.6504C47.603 34.8085 47.4864 34.9381 47.3352 35.0116C47.184 35.0852 47.01 35.0968 46.8504 35.0441C46.3142 34.8233 45.734 34.7299 45.1557 34.7714C44.5773 34.8129 44.0164 34.988 43.5172 35.2831C42.6645 35.8774 42.2253 36.9691 42.2253 38.5129C42.2253 40.7156 43.5172 42.3887 45.313 42.5437C45.4833 42.5569 45.6414 42.637 45.7528 42.7666C45.8642 42.8961 45.9197 43.0645 45.9072 43.2349C45.8961 43.3949 45.8257 43.5451 45.7099 43.6562C45.5941 43.7672 45.4411 43.8312 45.2807 43.8356Z" fill="#093F68"/>
<path d="M51.0162 36.4201C51.7511 36.4201 52.3469 35.8244 52.3469 35.0895C52.3469 34.3546 51.7511 33.7588 51.0162 33.7588C50.2813 33.7588 49.6855 34.3546 49.6855 35.0895C49.6855 35.8244 50.2813 36.4201 51.0162 36.4201Z" fill="#093F68"/>
<path d="M53.31 32.5379C53.31 32.5379 51.3205 31.1233 49.5635 32.1439Z" fill="#FFC9B0"/>
<path d="M53.3086 33.1838C53.1747 33.1848 53.0438 33.1441 52.934 33.0675C52.8952 33.0675 51.248 31.9177 49.8851 32.6993C49.8117 32.7423 49.7306 32.7704 49.6464 32.7819C49.5622 32.7935 49.4765 32.7883 49.3943 32.7667C49.3121 32.7451 49.235 32.7075 49.1673 32.656C49.0997 32.6045 49.0428 32.5402 49.0001 32.4667C48.9574 32.393 48.9297 32.3116 48.9186 32.2271C48.9075 32.1426 48.9132 32.0568 48.9354 31.9745C48.9576 31.8923 48.9959 31.8152 49.048 31.7478C49.1001 31.6804 49.1651 31.624 49.2391 31.5818C51.3256 30.3738 53.5864 31.9435 53.6833 32.0146C53.8215 32.1143 53.9147 32.2647 53.9426 32.4329C53.9704 32.6011 53.9306 32.7735 53.8319 32.9125C53.7724 32.9959 53.694 33.0641 53.603 33.1113C53.512 33.1584 53.4111 33.1833 53.3086 33.1838Z" fill="#093F68"/>
<path d="M54.75 83.2624C54.75 83.2624 55.1053 91.6595 62.2427 93.1968C69.3802 94.7341 90.2371 92.5121 90.2371 92.5121C90.2371 92.5121 95.8372 92.5121 96.5348 90.6906C97.2324 88.8691 94.0157 84.8127 90.6569 85.0969C88.5747 85.277 86.5139 85.6511 84.5013 86.2143L67.7072 84.2765L64.1999 75.1367L54.75 83.2624Z" fill="#FFC9B0"/>
<path d="M69.9356 94.3917C67.3141 94.4546 64.6926 94.2664 62.107 93.8298C54.5691 92.202 54.104 83.3787 54.104 83.2883C54.1002 83.1906 54.1185 83.0934 54.1577 83.0039C54.1968 82.9144 54.2558 82.835 54.3301 82.7715L63.78 74.6652C63.8588 74.5975 63.9528 74.5498 64.054 74.5262C64.1552 74.5026 64.2606 74.5037 64.3613 74.5295C64.4617 74.5547 64.5546 74.6036 64.6322 74.6722C64.7098 74.7408 64.7697 74.827 64.807 74.9235L68.1658 83.6564L84.4431 85.5555C86.46 85.0038 88.5223 84.6342 90.6052 84.4509C92.9564 84.2442 95.0685 85.8849 96.1601 87.3447C97.1355 88.6365 97.5037 89.98 97.1419 90.9231C96.3281 93.0288 91.3286 93.158 90.2693 93.158C89.3586 93.2549 78.4747 94.3917 69.9356 94.3917ZM55.4475 83.5337C55.5832 85.0193 56.5133 91.2848 62.4106 92.5767C69.3672 94.0752 89.9916 91.9307 90.1853 91.8855H90.2564C92.3363 91.8855 95.5853 91.4398 95.9534 90.4774C96.1149 90.064 95.9534 89.1856 95.146 88.1392C94.2547 86.9442 92.5623 85.6136 90.7279 85.7557C88.6894 85.9342 86.6719 86.3018 84.7014 86.8538C84.6164 86.8729 84.5281 86.8729 84.4431 86.8538L67.649 84.916C67.5313 84.9023 67.4197 84.8565 67.3262 84.7836C67.2328 84.7107 67.1613 84.6135 67.1194 84.5026L63.9479 76.2606L55.4475 83.5337Z" fill="#093F68"/>
<path d="M66.6875 78.4434C66.6875 78.4434 57.5219 52.6064 47.7297 52.6064H25.6907C23.4585 52.6057 21.3069 53.4406 19.6595 54.9469C18.0122 56.4532 16.9884 58.5217 16.7899 60.7451L13.3213 99.2163H53.3105L52.8971 84.1663L66.6875 78.4434Z" fill="#F56132"/>
<path d="M53.3092 99.8752H13.3201C13.2271 99.8812 13.1339 99.8669 13.047 99.8335C12.96 99.8 12.8813 99.7482 12.8163 99.6815C12.7562 99.6144 12.7107 99.5355 12.6829 99.4498C12.6551 99.3642 12.6455 99.2737 12.6548 99.1841L16.1169 60.7128C16.3213 58.3251 17.4169 56.1017 19.1858 54.4849C20.9546 52.868 23.2672 51.9761 25.6637 51.9864H47.7026C57.8307 51.9864 66.8866 77.1775 67.2677 78.2432C67.3237 78.3986 67.3182 78.5695 67.2521 78.7209C67.186 78.8723 67.0645 78.9926 66.9124 79.0571L53.5289 84.6185L53.9293 99.2293C53.9293 99.4006 53.8613 99.5649 53.7401 99.686C53.619 99.8072 53.4547 99.8752 53.2834 99.8752H53.3092ZM14.0306 98.5834H52.6439L52.2564 84.1922C52.2458 84.0568 52.2782 83.9215 52.3489 83.8055C52.4197 83.6895 52.5252 83.5988 52.6504 83.5463L65.866 78.0559C64.2855 73.8466 62.4277 69.7468 60.3046 65.7834C55.8284 57.5672 51.4748 53.2201 47.7285 53.2201H25.6895C23.6158 53.211 21.6145 53.9826 20.0838 55.3817C18.5531 56.7808 17.605 58.7048 17.4282 60.771L14.0306 98.5834Z" fill="#093F68"/>
<path d="M7.45521 58.7105H33.6862C35.3533 58.7109 36.962 59.3247 38.2056 60.4349C39.4492 61.5451 40.2409 63.0741 40.4296 64.7305L44.3052 99.2293H4.41936L0.692384 66.2549C0.584834 65.304 0.679729 64.3411 0.970836 63.4295C1.26194 62.5179 1.74267 61.6782 2.38142 60.9656C3.02018 60.2531 3.8025 59.6837 4.67697 59.2951C5.55144 58.9064 6.49825 58.7072 7.45521 58.7105Z" fill="#78DDD1"/>
<path d="M44.3314 99.8752H4.41979C4.2611 99.8763 4.10754 99.819 3.98841 99.7142C3.86928 99.6093 3.79291 99.4643 3.77387 99.3068L0.0468887 66.3259C-0.0706887 65.2844 0.0334671 64.2298 0.352514 63.2314C0.671561 62.2331 1.19827 61.3135 1.89804 60.5332C2.5978 59.7529 3.45477 59.1296 4.41263 58.7041C5.37048 58.2786 6.40754 58.0606 7.45563 58.0645H33.6866C35.5127 58.0641 37.2749 58.7363 38.6368 59.9528C39.9986 61.1693 40.8647 62.8448 41.0695 64.6594L44.9451 99.1582C44.9553 99.2488 44.9461 99.3406 44.9183 99.4274C44.8904 99.5142 44.8446 99.5942 44.7836 99.662C44.7262 99.7258 44.6566 99.7775 44.579 99.8141C44.5013 99.8507 44.4172 99.8715 44.3314 99.8752ZM5.0205 98.5833H43.608L39.7841 64.8015C39.6157 63.3027 38.9006 61.9186 37.7756 60.914C36.6507 59.9095 35.1948 59.3549 33.6866 59.3564H7.45563C6.59123 59.3564 5.73657 59.5389 4.94753 59.8919C4.15849 60.2449 3.45284 60.7605 2.87671 61.4049C2.30057 62.0493 1.86694 62.8081 1.60414 63.6316C1.34134 64.4551 1.25531 65.3247 1.35165 66.1838L5.0205 98.5833Z" fill="#093F68"/>
<path d="M52.8959 84.826C52.765 84.8251 52.6375 84.7845 52.5302 84.7095C52.4229 84.6345 52.341 84.5287 52.2952 84.4061L45.7581 67.4432C45.6964 67.283 45.7009 67.1049 45.7705 66.948C45.8402 66.7912 45.9693 66.6684 46.1295 66.6067C46.2897 66.545 46.4678 66.5495 46.6247 66.6192C46.7815 66.6888 46.9043 66.8179 46.966 66.9781L53.5096 83.9475C53.5397 84.0268 53.5539 84.1113 53.5514 84.1961C53.5488 84.2809 53.5296 84.3643 53.4949 84.4417C53.4601 84.5191 53.4104 84.5889 53.3486 84.647C53.2868 84.7052 53.2142 84.7506 53.1349 84.7807C53.0583 84.8088 52.9775 84.8241 52.8959 84.826Z" fill="#093F68"/>
<path d="M125.512 78.7925H140.369V89.4056C140.369 89.923 140.267 90.4354 140.069 90.9135C139.871 91.3915 139.581 91.8259 139.215 92.1918C138.849 92.5577 138.414 92.848 137.936 93.046C137.458 93.244 136.946 93.3459 136.428 93.3459H129.452C128.935 93.3459 128.422 93.244 127.944 93.046C127.466 92.848 127.032 92.5577 126.666 92.1918C126.3 91.8259 126.01 91.3915 125.812 90.9135C125.614 90.4354 125.512 89.923 125.512 89.4056V78.7925Z" fill="#FFBC0E"/>
<path d="M136.454 93.9919H129.452C128.236 93.9901 127.07 93.5064 126.21 92.6467C125.351 91.7869 124.867 90.6214 124.865 89.4055V78.7924C124.865 78.6211 124.933 78.4568 125.054 78.3357C125.176 78.2145 125.34 78.1465 125.511 78.1465H140.368C140.54 78.1465 140.704 78.2145 140.825 78.3357C140.946 78.4568 141.014 78.6211 141.014 78.7924V89.4055C141.013 90.6169 140.532 91.7786 139.678 92.6376C138.824 93.4966 137.665 93.9833 136.454 93.9919ZM126.157 79.4384V89.4055C126.159 90.2787 126.506 91.1157 127.124 91.7331C127.741 92.3506 128.578 92.6982 129.452 92.6999H136.454C137.326 92.6982 138.163 92.3504 138.779 91.7328C139.395 91.1151 139.742 90.2782 139.742 89.4055V79.4384H126.157Z" fill="#093F68"/>
<path d="M142.448 89.6576H140.387C140.216 89.6576 140.052 89.5896 139.93 89.4684C139.809 89.3473 139.741 89.183 139.741 89.0117V81.7317C139.741 81.5604 139.809 81.3961 139.93 81.2749C140.052 81.1538 140.216 81.0857 140.387 81.0857H142.448C143.025 81.0634 143.6 81.1576 144.14 81.3629C144.679 81.5682 145.172 81.8803 145.588 82.2805C146.004 82.6807 146.335 83.1608 146.561 83.6919C146.787 84.2231 146.903 84.7944 146.903 85.3717C146.903 85.949 146.787 86.5203 146.561 87.0514C146.335 87.5826 146.004 88.0627 145.588 88.4629C145.172 88.8631 144.679 89.1752 144.14 89.3804C143.6 89.5857 143.025 89.68 142.448 89.6576ZM141.033 88.3657H142.448C142.853 88.3845 143.257 88.321 143.637 88.179C144.016 88.0371 144.363 87.8196 144.656 87.5397C144.95 87.2598 145.183 86.9234 145.342 86.5507C145.502 86.1781 145.584 85.777 145.584 85.3717C145.584 84.9664 145.502 84.5653 145.342 84.1926C145.183 83.82 144.95 83.4836 144.656 83.2037C144.363 82.9238 144.016 82.7063 143.637 82.5643C143.257 82.4224 142.853 82.3589 142.448 82.3777H141.033V88.3657Z" fill="#093F68"/>
</svg>
