<svg width="155" height="100" viewBox="0 0 155 100" fill="none" xmlns="http://www.w3.org/2000/svg">
<path d="M59.9159 56.9443H69.2846C72.8136 56.9502 76.2479 58.0885 79.0838 60.1922C81.9197 62.2958 84.0081 65.2543 85.0426 68.6336L90.1035 85.1656C90.2853 85.7561 90.3262 86.381 90.2229 86.9902C90.1196 87.5994 89.8751 88.1758 89.5089 88.673C89.1427 89.1703 88.6651 89.5745 88.1145 89.8532C87.5639 90.1319 86.9557 90.2773 86.3388 90.2777H42.8294C42.2125 90.2773 41.6043 90.1319 41.0537 89.8532C40.5031 89.5745 40.0255 89.1703 39.6593 88.673C39.2931 88.1758 39.0486 87.5994 38.9453 86.9902C38.842 86.381 38.8829 85.7561 39.0647 85.1656L44.1256 68.6336C45.1617 65.249 47.255 62.2868 50.0974 60.1826C52.9398 58.0784 56.3813 56.9433 59.9159 56.9443Z" fill="#1CD3C1"/>
<path d="M85.7706 90.2779H42.0234C41.3171 90.28 40.6202 90.1153 39.9888 89.7972C39.3574 89.479 38.8092 89.0163 38.3883 88.4462C37.9674 87.8761 37.6856 87.2146 37.5656 86.515C37.4456 85.8154 37.4907 85.0972 37.6973 84.4184L42.8129 67.7368C43.8757 64.2041 46.0444 61.1105 48.9964 58.9159C51.9484 56.7213 55.5262 55.5429 59.1978 55.5558H68.607C72.2787 55.5429 75.8564 56.7213 78.8085 58.9159C81.7605 61.1105 83.9291 64.2041 84.9919 67.7368L90.0804 84.4184C90.2871 85.0972 90.3322 85.8154 90.2122 86.515C90.0922 87.2146 89.8104 87.8761 89.3895 88.4462C88.9686 89.0163 88.4203 89.479 87.7889 89.7972C87.1576 90.1153 86.4607 90.28 85.7544 90.2779H85.7706ZM59.187 56.6429C55.7466 56.6307 52.3941 57.735 49.6281 59.7916C46.8621 61.8482 44.8304 64.7471 43.8349 68.0575L38.7464 84.7391C38.5903 85.2543 38.5563 85.7992 38.6472 86.33C38.7381 86.8608 38.9513 87.3629 39.2697 87.796C39.5882 88.2292 40.0031 88.5814 40.4813 88.8246C40.9594 89.0677 41.4875 89.195 42.0234 89.1962H85.7706C86.3065 89.195 86.8346 89.0677 87.3127 88.8246C87.7909 88.5814 88.2058 88.2292 88.5243 87.796C88.8428 87.3629 89.056 86.8608 89.1468 86.33C89.2377 85.7992 89.2037 85.2543 89.0476 84.7391L83.9591 68.0575C82.9636 64.7471 80.9319 61.8482 78.1659 59.7916C75.3999 57.735 72.0474 56.6307 68.607 56.6429H59.187Z" fill="#093F68"/>
<path d="M61.1165 54.1665H66.6669V57.362C66.6669 57.6719 66.6059 57.9788 66.4874 58.2651C66.3689 58.5515 66.1952 58.8117 65.9763 59.0308C65.7573 59.25 65.4974 59.4238 65.2113 59.5424C64.9253 59.661 64.6187 59.7221 64.309 59.7221H63.4692C62.8438 59.7221 62.2441 59.4734 61.8019 59.0308C61.3597 58.5882 61.1113 57.9879 61.1113 57.362V54.1665H61.1165Z" fill="#FFC9B0"/>
<path d="M65.0231 61.1109H64.144C63.3407 61.1109 62.5701 60.7919 62.0015 60.2239C61.4329 59.6559 61.1128 58.8854 61.1113 58.0813V54.7163C61.1113 54.5705 61.1692 54.4307 61.2722 54.3275C61.3753 54.2244 61.515 54.1665 61.6607 54.1665H67.5064C67.6521 54.1665 67.7918 54.2244 67.8949 54.3275C67.9979 54.4307 68.0558 54.5705 68.0558 54.7163V58.0813C68.0543 58.8854 67.7342 59.6559 67.1656 60.2239C66.597 60.7919 65.8264 61.1109 65.0231 61.1109ZM62.2101 55.2662V58.0813C62.2116 58.5937 62.416 59.0846 62.7785 59.4464C63.141 59.8081 63.6321 60.0113 64.144 60.0113H65.0231C65.535 60.0113 66.0261 59.8081 66.3886 59.4464C66.7511 59.0846 66.9555 58.5937 66.957 58.0813V55.2662H62.2101Z" fill="#093F68"/>
<path d="M44.0033 39.1267C41.2992 38.1303 41.4634 36.1161 41.0583 33.537C40.6527 30.9817 40.4023 28.4053 40.3084 25.8212C40.2044 22.8852 40.3084 19.8692 41.4579 17.1463C42.9304 13.6454 45.8371 11.3861 49.7181 11.6951C49.6031 6.53704 52.7835 1.69867 58.4161 1.4056C67.4426 0.936679 72.6483 10.3736 77.6897 9.67025C82.7312 8.96688 84.0833 6.78215 84.0833 6.78215C84.9304 8.36032 85.2784 10.1473 85.0836 11.9178C84.8888 13.6883 84.1598 15.363 82.9885 16.7306C82.9885 16.7306 86.968 15.601 87.4497 20.7537C87.9314 25.9065 84.762 39.601 84.762 39.601L81.1657 39.0042C79.6494 38.7431 77.7554 39.1054 76.2392 39.1534L64.9574 39.4944C59.2974 39.649 50.145 41.3861 44.0033 39.1267Z" fill="#FFD705"/>
<path d="M52.3993 40.2778C49.5009 40.2778 46.6505 39.9931 44.2601 39.0854C41.6986 38.1079 41.4633 36.2495 41.1905 34.0958C41.1477 33.7377 41.0996 33.3796 41.0461 33.0216C40.6476 30.4244 40.4011 27.806 40.3082 25.1799C40.2119 22.4031 40.2761 19.159 41.474 16.2211C42.998 12.4614 45.843 10.3613 49.3351 10.3613H49.5009C49.6185 5.36095 52.672 0.328331 58.5064 0.0168137C63.6348 -0.251736 67.5975 2.75065 70.7633 5.16223C73.2125 7.02596 75.3302 8.63189 77.2821 8.3526C81.8544 7.69733 83.1646 5.71544 83.1646 5.69395C83.2132 5.61577 83.2811 5.55148 83.3616 5.50727C83.4422 5.46306 83.5327 5.44041 83.6245 5.44152C83.7173 5.44153 83.8085 5.46581 83.8891 5.51195C83.9698 5.55809 84.0371 5.62452 84.0844 5.7047C84.1111 5.75304 86.7903 10.4956 83.678 15.3725C84.3422 15.4026 84.9857 15.6143 85.539 15.9848C86.6085 16.7367 87.277 18.0902 87.4481 20.0184C87.924 25.239 84.9454 38.6128 84.817 39.1821C84.7862 39.3164 84.7052 39.4336 84.5908 39.5096C84.4763 39.5856 84.3371 39.6145 84.202 39.5903L80.6726 38.9995C79.6285 38.883 78.574 38.8975 77.5335 39.0424C76.9987 39.0962 76.4639 39.1445 75.9292 39.1606L64.9076 39.5044C63.5332 39.5473 61.9182 39.6923 60.2123 39.8427C57.8005 40.0361 55.0785 40.2778 52.3993 40.2778ZM44.6398 38.081C49.0142 39.746 55.1801 39.1928 60.1481 38.747C61.8701 38.5913 63.5011 38.4463 64.9076 38.4033L75.9292 38.0596C76.3944 38.0596 76.9024 37.9951 77.4372 37.9468C78.572 37.7888 79.7222 37.778 80.8597 37.9145C81.0469 37.9145 81.6565 38.0488 83.8812 38.4516C84.416 35.938 86.7903 24.6213 86.3839 20.1204C86.2395 18.5091 85.7582 17.4349 84.9454 16.8978C84.615 16.6923 84.2471 16.5551 83.8633 16.4943C83.4795 16.4334 83.0874 16.4501 82.71 16.5434C82.6006 16.5749 82.4841 16.5705 82.3773 16.5309C82.2706 16.4913 82.1792 16.4185 82.1165 16.3231C82.0541 16.2278 82.0236 16.1149 82.0293 16.001C82.0351 15.887 82.0769 15.7779 82.1485 15.6894C83.1507 14.5008 83.8061 13.0569 84.042 11.5175C84.2779 9.97812 84.0853 8.40317 83.4855 6.96688C82.6673 7.7403 80.8865 8.94878 77.4479 9.44291C75.0521 9.78128 72.7687 8.05182 70.1269 6.04844C66.9183 3.61538 63.3086 0.865432 58.5759 1.11787C53.1961 1.40253 50.4795 6.27939 50.5811 10.9414C50.5823 11.0169 50.5677 11.0917 50.5383 11.1611C50.5088 11.2305 50.4651 11.2929 50.41 11.3442C50.3553 11.3961 50.2904 11.4359 50.2195 11.4608C50.1485 11.4858 50.0731 11.4955 49.9982 11.4893C46.6612 11.21 43.9179 13.1006 42.474 16.6508C41.3563 19.4061 41.2975 22.5052 41.4044 25.1692C41.4947 27.7521 41.7357 30.3274 42.1264 32.8819C42.1852 33.2633 42.2333 33.6231 42.2761 33.9561C42.5328 35.9864 42.7039 37.3291 44.6665 38.0757L44.6398 38.081Z" fill="#093F68"/>
<path d="M47.2216 44.4439C50.2898 44.4439 52.7771 42.2675 52.7771 39.5828C52.7771 36.8981 50.2898 34.7217 47.2216 34.7217C44.1533 34.7217 41.666 36.8981 41.666 39.5828C41.666 42.2675 44.1533 44.4439 47.2216 44.4439Z" fill="#FFC9B0"/>
<path d="M47.9133 45.8328C44.4671 45.8328 41.666 43.3425 41.666 40.28C41.666 37.2176 44.4671 34.7217 47.9133 34.7217C51.3594 34.7217 54.166 37.2176 54.166 40.28C54.166 43.3425 51.3594 45.8328 47.9133 45.8328ZM47.9133 35.8434C45.0791 35.8434 42.7688 37.8346 42.7688 40.28C42.7688 42.7255 45.0791 44.711 47.9133 44.711C50.7474 44.711 53.0632 42.7255 53.0632 40.28C53.0632 37.8346 50.7529 35.8491 47.9133 35.8491V35.8434Z" fill="#093F68"/>
<path d="M80.5556 44.4439C83.6238 44.4439 86.1111 42.2675 86.1111 39.5828C86.1111 36.8981 83.6238 34.7217 80.5556 34.7217C77.4873 34.7217 75 36.8981 75 39.5828C75 42.2675 77.4873 44.4439 80.5556 44.4439Z" fill="#FFC9B0"/>
<path d="M79.8641 45.8328C76.4179 45.8328 73.6113 43.3425 73.6113 40.28C73.6113 37.2176 76.4179 34.7217 79.8641 34.7217C83.3103 34.7217 86.1113 37.2176 86.1113 40.28C86.1113 43.3425 83.3103 45.8328 79.8641 45.8328ZM79.8641 35.8434C77.0244 35.8434 74.7141 37.8346 74.7141 40.28C74.7141 42.7255 77.0244 44.711 79.8641 44.711C82.7037 44.711 85.0085 42.7255 85.0085 40.28C85.0085 37.8346 82.7092 35.8491 79.8641 35.8491V35.8434Z" fill="#093F68"/>
<path d="M63.8947 55.5559C59.4772 55.5574 55.2398 53.7962 52.1137 50.6595C48.9875 47.5229 47.2283 43.2672 47.2227 38.8277V26.6509C48.1958 28.263 51.4308 27.6182 56.1736 19.4448C73.9257 28.4833 80.556 23.3031 80.556 23.3031V38.8277C80.5503 43.2653 78.7926 47.5194 75.6688 50.6558C72.5449 53.7921 68.3103 55.5545 63.8947 55.5559Z" fill="#FFC9B0"/>
<path d="M64.5919 55.5559C59.9908 55.5532 55.5786 53.7875 52.3227 50.646C49.0667 47.5044 47.2327 43.2435 47.2227 38.7972V26.978C47.2215 26.8632 47.2595 26.7514 47.3308 26.6596C47.4021 26.5679 47.5027 26.5014 47.6171 26.4705C47.7314 26.4396 47.8531 26.4461 47.9633 26.4888C48.0735 26.5315 48.166 26.6081 48.2266 26.7067C48.3093 26.8457 48.4303 26.9598 48.5761 27.0362C48.7219 27.1126 48.8868 27.1484 49.0524 27.1397C49.7109 27.1397 52.183 26.5816 56.3229 19.7174C56.3894 19.5991 56.5007 19.5102 56.6335 19.4694C56.7663 19.4285 56.9103 19.4389 57.0354 19.4984C74.3506 27.9742 81.0111 23.3425 81.0759 23.2955C81.156 23.2359 81.2519 23.1992 81.3526 23.1897C81.4533 23.1802 81.5547 23.1982 81.6453 23.2417C81.7359 23.2852 81.812 23.3525 81.865 23.4358C81.918 23.5191 81.9456 23.6151 81.9449 23.7128V38.7972C81.9349 43.2407 80.1031 47.4994 76.8506 50.6404C73.5981 53.7815 69.1901 55.549 64.5919 55.5559ZM48.3076 28.0577V38.7972C48.3076 42.9708 50.0232 46.9734 53.0771 49.9245C56.131 52.8757 60.273 54.5336 64.5919 54.5336C68.9107 54.5336 73.0527 52.8757 76.1066 49.9245C79.1605 46.9734 80.8762 42.9708 80.8762 38.7972V24.6256C78.5444 25.6688 71.3819 27.5882 57.0138 20.6667C54.0343 25.5019 51.2222 28.1672 49.0794 28.1828C48.8141 28.1953 48.549 28.1527 48.3022 28.0577H48.3076Z" fill="#093F68"/>
<path d="M53.4718 86.1112C53.2876 86.1112 53.111 86.0543 52.9807 85.953C52.8505 85.8517 52.7773 85.7144 52.7773 85.5712V65.8178C52.7773 65.6746 52.8505 65.5373 52.9807 65.436C53.111 65.3347 53.2876 65.2778 53.4718 65.2778C53.656 65.2778 53.8326 65.3347 53.9628 65.436C54.0931 65.5373 54.1662 65.6746 54.1662 65.8178V85.5712C54.1662 85.7144 54.0931 85.8517 53.9628 85.953C53.8326 86.0543 53.656 86.1112 53.4718 86.1112Z" fill="#093F68"/>
<path d="M64.5785 41.6657C64.0296 41.662 63.4818 41.6192 62.9399 41.5377C62.801 41.5148 62.6775 41.4411 62.5965 41.3326C62.5155 41.2241 62.4837 41.0898 62.508 40.9592C62.5323 40.8286 62.6107 40.7125 62.7261 40.6363C62.8414 40.5602 62.9842 40.5302 63.1231 40.553C63.9469 40.675 64.786 40.675 65.6098 40.553C65.7145 40.1001 65.0863 38.4114 64.1963 36.8212C64.1656 36.7625 64.1476 36.6987 64.1434 36.6334C64.1392 36.5681 64.1489 36.5026 64.1719 36.4409C64.1949 36.3791 64.2307 36.3223 64.2774 36.2737C64.324 36.2252 64.3804 36.1858 64.4434 36.158C64.5064 36.1302 64.5746 36.1145 64.6441 36.1118C64.7136 36.109 64.783 36.1194 64.8482 36.1421C64.9135 36.1649 64.9732 36.1997 65.024 36.2445C65.0747 36.2892 65.1155 36.343 65.1439 36.4028C65.7302 37.4613 67.0443 40.0312 66.5626 41.0405C66.5087 41.1611 66.4258 41.2683 66.3205 41.3537C66.2151 41.4391 66.0901 41.5004 65.9553 41.5328C65.504 41.6302 65.0415 41.6749 64.5785 41.6657Z" fill="#093F68"/>
<path d="M60.0988 29.1664H52.3977C52.1303 29.1664 51.8739 29.0201 51.6849 28.7596C51.4958 28.4992 51.3896 28.1459 51.3896 27.7776C51.3896 27.4092 51.4958 27.0559 51.6849 26.7955C51.8739 26.535 52.1303 26.3887 52.3977 26.3887H60.1039C60.3712 26.3887 60.6276 26.535 60.8166 26.7955C61.0057 27.0559 61.1119 27.4092 61.1119 27.7776C61.1119 28.1459 61.0057 28.4992 60.8166 28.7596C60.6276 29.0201 60.3712 29.1664 60.1039 29.1664H60.0988Z" fill="#093F68"/>
<path d="M75.3807 29.1664H67.6755C67.408 29.1664 67.1515 29.0201 66.9624 28.7596C66.7732 28.4992 66.667 28.1459 66.667 27.7776C66.667 27.4092 66.7732 27.0559 66.9624 26.7955C67.1515 26.535 67.408 26.3887 67.6755 26.3887H75.3807C75.6482 26.3887 75.9047 26.535 76.0938 26.7955C76.283 27.0559 76.3892 27.4092 76.3892 27.7776C76.3892 28.1459 76.283 28.4992 76.0938 28.7596C75.9047 29.0201 75.6482 29.1664 75.3807 29.1664Z" fill="#093F68"/>
<path d="M51.3889 31.9443H61.1165C61.4834 31.9443 61.8353 32.09 62.0948 32.3492C62.3542 32.6085 62.5 32.9601 62.5 33.3268V34.2286C62.5 35.4645 62.0086 36.6499 61.134 37.5238C60.2593 38.3978 59.0731 38.8888 57.8361 38.8888H54.6639C53.4269 38.8888 52.2407 38.3978 51.366 37.5238C50.4914 36.6499 50 35.4645 50 34.2286V33.3268C50 33.1448 50.036 32.9646 50.1058 32.7965C50.1757 32.6284 50.2781 32.4758 50.4071 32.3473C50.5362 32.2189 50.6893 32.1172 50.8578 32.048C51.0263 31.9789 51.2067 31.9436 51.3889 31.9443Z" fill="white"/>
<path d="M57.7111 38.8888H54.7939C53.5229 38.8875 52.3043 38.4133 51.4056 37.5702C50.5068 36.727 50.0013 35.5839 50 34.3915V33.6069C50 33.1668 50.186 32.7446 50.5173 32.4329C50.8486 32.1213 51.2981 31.9456 51.7672 31.9443H60.7278C61.1974 31.9456 61.6474 32.1211 61.9795 32.4326C62.3116 32.7442 62.4987 33.1663 62.5 33.6069V34.3915C62.4987 35.583 61.9939 36.7255 61.0962 37.5685C60.1985 38.4115 58.9812 38.8863 57.7111 38.8888ZM51.7672 32.8784C51.6655 32.8784 51.5647 32.8972 51.4708 32.9339C51.3769 32.9706 51.2916 33.0243 51.2199 33.092C51.1481 33.1597 51.0914 33.2401 51.0529 33.3284C51.0144 33.4168 50.995 33.5114 50.9956 33.6069V34.3915C50.9969 35.3361 51.3975 36.2418 52.1096 36.9097C52.8216 37.5777 53.7869 37.9535 54.7939 37.9548H57.7111C58.7185 37.9535 59.6844 37.5779 60.3972 36.91C61.11 36.2422 61.5117 35.3366 61.5143 34.3915V33.6069C61.5143 33.4137 61.4325 33.2284 61.2869 33.0917C61.1412 32.9551 60.9437 32.8784 60.7378 32.8784H51.7672Z" fill="#093F68"/>
<path d="M66.6662 31.9443H76.3939C76.7608 31.9443 77.1127 32.09 77.3721 32.3492C77.6316 32.6085 77.7773 32.9601 77.7773 33.3268V34.2286C77.7773 35.4645 77.286 36.6499 76.4113 37.5238C75.5367 38.3978 74.3504 38.8888 73.1135 38.8888H69.9412C68.7043 38.8888 67.518 38.3978 66.6434 37.5238C65.7687 36.6499 65.2773 35.4645 65.2773 34.2286V33.3268C65.2773 33.1448 65.3133 32.9646 65.3832 32.7965C65.453 32.6284 65.5554 32.4758 65.6845 32.3473C65.8135 32.2189 65.9667 32.1172 66.1351 32.048C66.3036 31.9789 66.4841 31.9436 66.6662 31.9443Z" fill="white"/>
<path d="M73.8507 38.8888H70.6094C69.1962 38.8888 67.8408 38.4151 66.841 37.5718C65.8412 36.7286 65.2788 35.5847 65.2773 34.3915V33.6069C65.2788 33.1663 65.4867 32.7442 65.8557 32.4326C66.2247 32.1211 66.7247 31.9456 67.2465 31.9443H77.2026C77.7239 31.9456 78.2234 32.1213 78.5914 32.4329C78.9595 32.7446 79.1662 33.1668 79.1662 33.6069V34.3915C79.1648 35.5822 78.6046 36.724 77.6084 37.5669C76.6122 38.4098 75.2611 38.8851 73.8507 38.8888ZM67.2465 32.8784C67.0176 32.8784 66.7981 32.9551 66.6363 33.0917C66.4745 33.2284 66.3836 33.4137 66.3836 33.6069V34.3915C66.3865 35.3366 66.8329 36.2422 67.6249 36.91C68.4169 37.5779 69.4901 37.9535 70.6094 37.9548H73.8507C74.9696 37.9535 76.0422 37.5777 76.8333 36.9097C77.6245 36.2418 78.0696 35.3361 78.0711 34.3915V33.6069C78.0718 33.5114 78.0501 33.4168 78.0074 33.3284C77.9646 33.2401 77.9016 33.1597 77.8219 33.092C77.7422 33.0243 77.6475 32.9706 77.5431 32.9339C77.4387 32.8972 77.3268 32.8784 77.2137 32.8784H67.2465Z" fill="#093F68"/>
<path d="M49.4832 34.7224H46.3675C46.226 34.7224 46.0903 34.6492 45.9902 34.519C45.8902 34.3888 45.834 34.2121 45.834 34.0279C45.834 33.8438 45.8902 33.6671 45.9902 33.5369C46.0903 33.4067 46.226 33.3335 46.3675 33.3335H49.4671C49.6086 33.3335 49.7443 33.4067 49.8444 33.5369C49.9444 33.6671 50.0007 33.8438 50.0007 34.0279C50.0007 34.2121 49.9444 34.3888 49.8444 34.519C49.7443 34.6492 49.6086 34.7224 49.4671 34.7224H49.4832Z" fill="#093F68"/>
<path d="M81.4098 34.7224H78.3115C78.1699 34.7224 78.034 34.6492 77.9338 34.519C77.8336 34.3888 77.7773 34.2121 77.7773 34.0279C77.7773 33.8438 77.8336 33.6671 77.9338 33.5369C78.034 33.4067 78.1699 33.3335 78.3115 33.3335H81.4098C81.5515 33.3335 81.6874 33.4067 81.7876 33.5369C81.8877 33.6671 81.944 33.8438 81.944 34.0279C81.944 34.2121 81.8877 34.3888 81.7876 34.519C81.6874 34.6492 81.5515 34.7224 81.4098 34.7224Z" fill="#093F68"/>
<path d="M66.1248 34.7224H63.0261C62.8866 34.7224 62.7528 34.6492 62.6541 34.519C62.5554 34.3888 62.5 34.2121 62.5 34.0279C62.5 33.8438 62.5554 33.6671 62.6541 33.5369C62.7528 33.4067 62.8866 33.3335 63.0261 33.3335H66.1406C66.2801 33.3335 66.4139 33.4067 66.5126 33.5369C66.6112 33.6671 66.6667 33.8438 66.6667 34.0279C66.6667 34.2121 66.6112 34.3888 66.5126 34.519C66.4139 34.6492 66.2801 34.7224 66.1406 34.7224H66.1248Z" fill="#093F68"/>
<path d="M63.801 47.2224C62.0404 47.2325 60.2938 46.7661 58.6497 45.8469C58.5274 45.7781 58.4287 45.6413 58.3755 45.4664C58.3223 45.2915 58.3189 45.0929 58.366 44.9143C58.4131 44.7357 58.5069 44.5918 58.6268 44.5141C58.7466 44.4365 58.8826 44.4315 59.005 44.5002C62.1579 46.1539 65.6069 46.1539 68.7598 44.5002C68.8197 44.4638 68.884 44.445 68.9489 44.4448C69.0138 44.4447 69.0781 44.4632 69.1382 44.4993C69.1982 44.5354 69.2527 44.5884 69.2987 44.6553C69.3447 44.7222 69.3812 44.8016 69.4062 44.8891C69.4311 44.9766 69.444 45.0704 69.4441 45.1651C69.4442 45.2599 69.4316 45.3537 69.4068 45.4413C69.3821 45.5289 69.3457 45.6086 69.2999 45.6757C69.2541 45.7428 69.1997 45.7961 69.1397 45.8325C67.4323 46.7629 65.6235 47.2338 63.801 47.2224Z" fill="#093F68"/>
<path d="M78.319 80.5514C78.1948 80.5529 78.0736 80.5277 77.9766 80.4802C77.8796 80.4327 77.8129 80.3658 77.7881 80.2913C77.7741 80.2495 77.7738 80.2063 77.787 80.1644C77.8003 80.1225 77.8269 80.0826 77.8654 80.047C77.9038 80.0113 77.9534 79.9807 78.0112 79.9568C78.069 79.9329 78.1339 79.9162 78.2022 79.9077L84.0742 79.1729C84.215 79.1557 84.3612 79.1734 84.4807 79.2222C84.6002 79.271 84.6831 79.3468 84.7113 79.433C84.7394 79.5192 84.7105 79.6088 84.6308 79.682C84.5512 79.7551 84.4273 79.8059 84.2865 79.8231L78.4146 80.5546C78.3826 80.5563 78.3505 80.5552 78.319 80.5514Z" fill="#093F68"/>
<path d="M49.4691 80.5529C49.4339 80.5562 49.3981 80.5562 49.3629 80.5529L43.4909 79.8117C43.4212 79.8034 43.3549 79.7868 43.2958 79.763C43.2367 79.7392 43.186 79.7086 43.1466 79.673C43.1072 79.6374 43.0798 79.5975 43.066 79.5555C43.0522 79.5135 43.0522 79.4703 43.0662 79.4284C43.0801 79.3864 43.1077 79.3466 43.1472 79.311C43.1868 79.2755 43.2376 79.245 43.2968 79.2212C43.3559 79.1975 43.4223 79.181 43.492 79.1727C43.5618 79.1644 43.6336 79.1644 43.7033 79.1728L49.5752 79.8948C49.6436 79.9032 49.7085 79.9196 49.7663 79.9431C49.8241 79.9665 49.8736 79.9967 49.9121 80.0317C49.9505 80.0667 49.9772 80.1059 49.9904 80.1471C50.0037 80.1883 50.0033 80.2306 49.9894 80.2718C49.9739 80.3486 49.9127 80.4194 49.817 80.4711C49.7213 80.5228 49.5977 80.5519 49.4691 80.5529Z" fill="#093F68"/>
<path d="M48.4431 69.4448H79.325C80.0199 69.4448 80.6863 69.7236 81.1777 70.2197C81.6691 70.7159 81.9451 71.3888 81.9451 72.0905V90.2782H45.834V72.0905C45.834 71.3907 46.1085 70.7195 46.5975 70.2236C47.0865 69.7278 47.7501 69.4478 48.4431 69.4448Z" fill="#F56132"/>
<path d="M81.4131 90.2782H46.366C46.2249 90.2782 46.0896 90.2228 45.9898 90.1242C45.89 90.0257 45.834 89.892 45.834 89.7526V72.4826C45.834 71.6769 46.1579 70.9042 46.7346 70.3346C47.3112 69.7649 48.0933 69.4448 48.9089 69.4448H78.8702C79.6857 69.4448 80.4678 69.7649 81.0445 70.3346C81.6211 70.9042 81.9451 71.6769 81.9451 72.4826V89.7526C81.9451 89.892 81.889 90.0257 81.7893 90.1242C81.6895 90.2228 81.5542 90.2782 81.4131 90.2782ZM46.898 89.227H80.8918V72.4826C80.8904 71.9561 80.678 71.4516 80.3012 71.0794C79.9244 70.7071 79.4138 70.4973 78.8809 70.496H48.8982C48.3653 70.4973 47.8547 70.7071 47.4778 71.0794C47.101 71.4516 46.8887 71.9561 46.8873 72.4826L46.898 89.227Z" fill="#093F68"/>
<path d="M44.4443 90.2778H83.3332C83.3332 91.0145 83.0601 91.7211 82.574 92.242C82.0878 92.7629 81.4285 93.0556 80.741 93.0556H47.0366C46.3491 93.0556 45.6897 92.7629 45.2036 92.242C44.7174 91.7211 44.4443 91.0145 44.4443 90.2778Z" fill="#F56132"/>
<path d="M80.287 93.0556H47.4905C46.6831 93.0545 45.9091 92.8044 45.3381 92.3601C44.7671 91.9158 44.4457 91.3135 44.4443 90.6851C44.4443 90.5771 44.4995 90.4735 44.5976 90.3971C44.6958 90.3207 44.8289 90.2778 44.9677 90.2778H82.8098C82.9486 90.2778 83.0818 90.3207 83.1799 90.3971C83.2781 90.4735 83.3332 90.5771 83.3332 90.6851C83.3318 91.3135 83.0105 91.9158 82.4395 92.3601C81.8685 92.8044 81.0945 93.0545 80.287 93.0556ZM45.5592 91.0843C45.675 91.4139 45.9267 91.7049 46.2756 91.9124C46.6246 92.1199 47.0514 92.2325 47.4905 92.2329H80.287C80.7306 92.237 81.1635 92.1264 81.5177 91.9186C81.872 91.7107 82.1276 91.4173 82.2446 91.0843H45.5592Z" fill="#093F68"/>
<path d="M63.1944 70.8333C63.0103 70.8333 62.8336 70.7747 62.7034 70.6706C62.5732 70.5664 62.5 70.4251 62.5 70.2777V60.2777C62.5 60.1304 62.5732 59.9891 62.7034 59.8849C62.8336 59.7807 63.0103 59.7222 63.1944 59.7222C63.3786 59.7222 63.5553 59.7807 63.6855 59.8849C63.8157 59.9891 63.8889 60.1304 63.8889 60.2777V70.2777C63.8889 70.4251 63.8157 70.5664 63.6855 70.6706C63.5553 70.7747 63.3786 70.8333 63.1944 70.8333Z" fill="#093F68"/>
<path d="M12.5 77.7783H27.7778V88.2029C27.7778 89.4901 27.2495 90.7245 26.3091 91.6346C25.3687 92.5448 24.0933 93.0561 22.7634 93.0561H17.5144C16.1845 93.0561 14.9091 92.5448 13.9687 91.6346C13.0283 90.7245 12.5 89.4901 12.5 88.2029V77.7783Z" fill="#FFBC0E"/>
<path d="M22.5884 93.0553H17.6894C16.3135 93.0539 14.9943 92.475 14.0214 91.4455C13.0485 90.4161 12.5013 89.0203 12.5 87.5644V76.9275C12.5 76.7846 12.5537 76.6476 12.6492 76.5465C12.7447 76.4454 12.8742 76.3887 13.0093 76.3887H27.2685C27.4036 76.3887 27.5331 76.4454 27.6286 76.5465C27.7241 76.6476 27.7778 76.7846 27.7778 76.9275V87.5644C27.7764 89.0203 27.2293 90.4161 26.2564 91.4455C25.2835 92.475 23.9643 93.0539 22.5884 93.0553ZM13.5185 77.4664V87.5644C13.5185 88.7349 13.9579 89.8574 14.7401 90.685C15.5223 91.5127 16.5832 91.9776 17.6894 91.9776H22.5884C23.6942 91.9762 24.7543 91.5108 25.5362 90.6835C26.3181 89.8561 26.7579 88.7345 26.7593 87.5644V77.4664H13.5185Z" fill="#093F68"/>
<path d="M94.0282 93.0552H3.19402C1.43001 93.0552 0 94.2988 0 95.833C0 97.3671 1.43001 98.6107 3.19402 98.6107H94.0282C95.7922 98.6107 97.2222 97.3671 97.2222 95.833C97.2222 94.2988 95.7922 93.0552 94.0282 93.0552Z" fill="#725858"/>
<path d="M93.3965 99.9968H3.82572C3.3303 100.018 2.83616 99.9263 2.37288 99.7267C1.90961 99.5271 1.48672 99.2238 1.12953 98.8351C0.772344 98.4463 0.488204 97.9801 0.294121 97.4643C0.100037 96.9485 0 96.3937 0 95.8332C0 95.2726 0.100037 94.7178 0.294121 94.202C0.488204 93.6862 0.772344 93.22 1.12953 92.8313C1.48672 92.4425 1.90961 92.1393 2.37288 91.9397C2.83616 91.74 3.3303 91.6482 3.82572 91.6695H93.3965C93.8919 91.6482 94.3861 91.74 94.8493 91.9397C95.3126 92.1393 95.7355 92.4425 96.0927 92.8313C96.4499 93.22 96.734 93.6862 96.9281 94.202C97.1222 94.7178 97.2222 95.2726 97.2222 95.8332C97.2222 96.3937 97.1222 96.9485 96.9281 97.4643C96.734 97.9801 96.4499 98.4463 96.0927 98.8351C95.7355 99.2238 95.3126 99.5271 94.8493 99.7267C94.3861 99.9263 93.8919 100.018 93.3965 99.9968ZM3.82572 92.8808C3.47285 92.8627 3.1204 92.9257 2.78966 93.0659C2.45892 93.2061 2.15675 93.4207 1.90139 93.6966C1.64603 93.9725 1.44278 94.3041 1.30392 94.6714C1.16506 95.0386 1.09347 95.4338 1.09347 95.8332C1.09347 96.2325 1.16506 96.6278 1.30392 96.995C1.44278 97.3622 1.64603 97.6938 1.90139 97.9697C2.15675 98.2457 2.45892 98.4602 2.78966 98.6005C3.1204 98.7407 3.47285 98.8036 3.82572 98.7856H93.3965C93.7494 98.8036 94.1018 98.7407 94.4326 98.6005C94.7633 98.4602 95.0655 98.2457 95.3208 97.9697C95.5762 97.6938 95.7794 97.3622 95.9183 96.995C96.0572 96.6278 96.1288 96.2325 96.1288 95.8332C96.1288 95.4338 96.0572 95.0386 95.9183 94.6714C95.7794 94.3041 95.5762 93.9725 95.3208 93.6966C95.0655 93.4207 94.7633 93.2061 94.4326 93.0659C94.1018 92.9257 93.7494 92.8627 93.3965 92.8808H3.82572Z" fill="#093F68"/>
<path d="M29.2143 87.4654H28.3237C28.1788 87.4654 28.0398 87.4085 27.9374 87.3072C27.8349 87.2059 27.7773 87.0686 27.7773 86.9253V78.3536C27.7773 78.2103 27.8349 78.0729 27.9374 77.9716C28.0398 77.8703 28.1788 77.8134 28.3237 77.8134H29.2143C29.9049 77.7309 30.6053 77.7942 31.2693 77.999C31.9333 78.2039 32.5457 78.5456 33.0662 79.0018C33.5868 79.4579 34.0035 80.0179 34.2888 80.645C34.5742 81.2721 34.7218 81.9518 34.7218 82.6394C34.7218 83.327 34.5742 84.0068 34.2888 84.6339C34.0035 85.2609 33.5868 85.821 33.0662 86.2771C32.5457 86.7332 31.9333 87.075 31.2693 87.2798C30.6053 87.4847 29.9049 87.5479 29.2143 87.4654ZM28.8701 86.3852H29.2143C29.7497 86.4455 30.2919 86.3933 30.8054 86.232C31.3189 86.0707 31.7922 85.804 32.1941 85.4494C32.5961 85.0947 32.9178 84.6601 33.138 84.174C33.3582 83.6879 33.4721 83.1613 33.4721 82.6286C33.4721 82.096 33.3582 81.5694 33.138 81.0833C32.9178 80.5972 32.5961 80.1625 32.1941 79.8079C31.7922 79.4532 31.3189 79.1865 30.8054 79.0252C30.2919 78.864 29.7497 78.8118 29.2143 78.8721H28.8701V86.3852Z" fill="#093F68"/>
<path d="M34.8143 30.5557H4.07376C3.35777 30.5557 2.77734 31.1594 2.77734 31.9042V58.3738C2.77734 59.1186 3.35777 59.7223 4.07376 59.7223H34.8143C35.5303 59.7223 36.1107 59.1186 36.1107 58.3738V31.9042C36.1107 31.1594 35.5303 30.5557 34.8143 30.5557Z" fill="white"/>
<path d="M35.5939 59.7221H3.29109C2.7863 59.7206 2.30267 59.519 1.94623 59.1615C1.5898 58.8039 1.38965 58.3196 1.38965 57.8147V31.0684C1.38965 30.564 1.58998 30.0802 1.94657 29.7236C2.30316 29.3669 2.7868 29.1665 3.29109 29.1665H35.5939C36.0987 29.1665 36.5829 29.3667 36.9403 29.7232C37.2978 30.0797 37.4993 30.5635 37.5008 31.0684V57.8147C37.5008 58.3206 37.2999 58.8057 36.9422 59.1634C36.5846 59.5211 36.0996 59.7221 35.5939 59.7221ZM3.29109 30.2673C3.07579 30.2673 2.86931 30.3529 2.71707 30.5051C2.56483 30.6574 2.4793 30.8639 2.4793 31.0793V57.8256C2.4793 58.0415 2.56465 58.2486 2.71674 58.4017C2.86882 58.5548 3.07529 58.6416 3.29109 58.6431H35.5939C35.8106 58.6431 36.0185 58.5569 36.1717 58.4036C36.325 58.2503 36.4111 58.0424 36.4111 57.8256V31.0684C36.4068 30.8544 36.3188 30.6507 36.166 30.5009C36.0132 30.3511 35.8078 30.2673 35.5939 30.2673H3.29109Z" fill="#093F68"/>
<path d="M4.06857 30.5557H34.8143C35.1581 30.5557 35.4878 30.6628 35.731 30.8535C35.9741 31.0441 36.1107 31.3028 36.1107 31.5724V33.3334H2.77734V31.5724C2.77734 31.3035 2.91321 31.0455 3.15522 30.8549C3.39722 30.6643 3.72564 30.5567 4.06857 30.5557Z" fill="#1CD3C1"/>
<path d="M36.9559 34.7221H1.93448C1.78998 34.7221 1.6514 34.6558 1.54922 34.5378C1.44705 34.4198 1.38965 34.2598 1.38965 34.0929V31.3623C1.38965 30.7799 1.58998 30.2214 1.94657 29.8096C2.30316 29.3978 2.7868 29.1665 3.29109 29.1665H35.5939C36.0987 29.1665 36.5829 29.3976 36.9403 29.8093C37.2978 30.2209 37.4993 30.7794 37.5008 31.3623V34.0929C37.5008 34.2598 37.4434 34.4198 37.3412 34.5378C37.239 34.6558 37.1004 34.7221 36.9559 34.7221ZM2.4793 33.4637H36.4111V31.3623C36.4068 31.1153 36.3188 30.8801 36.166 30.7071C36.0132 30.5342 35.8078 30.4374 35.5939 30.4374H3.29109C3.07579 30.4374 2.86931 30.5362 2.71707 30.712C2.56483 30.8878 2.4793 31.1263 2.4793 31.3749V33.4637Z" fill="#093F68"/>
<path d="M4.86046 33.3332C5.24399 33.3332 5.5549 33.0223 5.5549 32.6388C5.5549 32.2552 5.24399 31.9443 4.86046 31.9443C4.47693 31.9443 4.16602 32.2552 4.16602 32.6388C4.16602 33.0223 4.47693 33.3332 4.86046 33.3332Z" fill="#093F68"/>
<path d="M6.25011 33.3332C6.63364 33.3332 6.94455 33.0223 6.94455 32.6388C6.94455 32.2552 6.63364 31.9443 6.25011 31.9443C5.86658 31.9443 5.55566 32.2552 5.55566 32.6388C5.55566 33.0223 5.86658 33.3332 6.25011 33.3332Z" fill="#093F68"/>
<path d="M9.02745 33.3332C9.41099 33.3332 9.7219 33.0223 9.7219 32.6388C9.7219 32.2552 9.41099 31.9443 9.02745 31.9443C8.64392 31.9443 8.33301 32.2552 8.33301 32.6388C8.33301 33.0223 8.64392 33.3332 9.02745 33.3332Z" fill="#093F68"/>
<path d="M15.2777 44.2096L10.0588 46.5172V46.5554L15.2777 48.863V51.3892L6.94434 47.7092V45.3634L15.2777 41.667V44.2096Z" fill="#093F68"/>
<path d="M20.6919 37.5L22.2225 38.1571L18.1884 52.7778L16.667 52.1207L20.6919 37.5Z" fill="#093F68"/>
<path d="M23.6113 48.8751L28.8338 46.5637V46.5254L23.6113 44.2139V41.667L31.9447 45.3532V47.703L23.6113 51.3892V48.8751Z" fill="#093F68"/>
</svg>
