<svg width="155" height="101" viewBox="0 0 155 101" fill="none" xmlns="http://www.w3.org/2000/svg">
<path d="M36.876 99.6991V86.598C36.876 85.334 36.6269 84.0824 36.143 82.9146C35.6592 81.7469 34.9499 80.6859 34.0559 79.7924C33.1618 78.8988 32.1004 78.1902 30.9324 77.7069C29.7644 77.2237 28.5126 76.9754 27.2486 76.9761H12.4243C11.1602 76.9754 9.90845 77.2237 8.74043 77.7069C7.57242 78.1902 6.51106 78.8988 5.617 79.7924C4.72294 80.6859 4.01371 81.7469 3.52982 82.9146C3.04593 84.0824 2.79687 85.334 2.79688 86.598V99.6991H36.876Z" fill="#78DDD1"/>
<path d="M36.8766 100.242H2.79752C2.65334 100.242 2.51507 100.185 2.41313 100.083C2.31118 99.9807 2.25391 99.8425 2.25391 99.6983V86.5972C2.25679 83.9011 3.32947 81.3163 5.23643 79.4103C7.1434 77.5044 9.72877 76.4331 12.4249 76.4316H27.2547C29.9499 76.4345 32.5339 77.5065 34.4396 79.4122C36.3454 81.318 37.4174 83.902 37.4202 86.5972V99.6983C37.4202 99.8425 37.363 99.9807 37.261 100.083C37.1591 100.185 37.0208 100.242 36.8766 100.242ZM3.34113 99.1547H36.333V86.5972C36.3301 84.1904 35.3728 81.8829 33.6709 80.181C31.969 78.4791 29.6615 77.5217 27.2547 77.5189H12.4249C10.0171 77.5203 7.70829 78.4771 6.00522 80.1791C4.30215 81.8812 3.34401 84.1894 3.34113 86.5972V99.1547Z" fill="#093F68"/>
<path d="M10.9196 100.242C10.7754 100.242 10.6371 100.185 10.5352 100.083C10.4332 99.981 10.376 99.8427 10.376 99.6986V87.1955C10.376 87.0513 10.4332 86.913 10.5352 86.8111C10.6371 86.7091 10.7754 86.6519 10.9196 86.6519C11.0638 86.6519 11.202 86.7091 11.304 86.8111C11.4059 86.913 11.4632 87.0513 11.4632 87.1955V99.6986C11.4632 99.8427 11.4059 99.981 11.304 100.083C11.202 100.185 11.0638 100.242 10.9196 100.242Z" fill="#093F68"/>
<path d="M34.2741 100.242C34.1299 100.242 33.9916 100.185 33.8897 100.083C33.7877 99.981 33.7305 99.8427 33.7305 99.6986V87.1955C33.7305 87.0513 33.7877 86.913 33.8897 86.8111C33.9916 86.7091 34.1299 86.6519 34.2741 86.6519C34.4183 86.6519 34.5565 86.7091 34.6585 86.8111C34.7604 86.913 34.8177 87.0513 34.8177 87.1955V99.6986C34.8177 99.8427 34.7604 99.981 34.6585 100.083C34.5565 100.185 34.4183 100.242 34.2741 100.242Z" fill="#093F68"/>
<path d="M23.0684 81.2158C23.1934 87.3532 23.1934 93.4634 23.0684 99.3344Z" fill="#78DDD1"/>
<path d="M23.069 99.8775C22.9248 99.8775 22.7866 99.8202 22.6846 99.7182C22.5827 99.6163 22.5254 99.478 22.5254 99.3339C22.6559 93.4628 22.6559 87.3744 22.5254 81.237C22.5254 81.0928 22.5827 80.9545 22.6846 80.8526C22.7866 80.7506 22.9248 80.6934 23.069 80.6934C23.2132 80.6934 23.3514 80.7506 23.4534 80.8526C23.5553 80.9545 23.6126 81.0928 23.6126 81.237C23.7431 87.3907 23.7431 93.4954 23.6126 99.3828C23.6004 99.5183 23.5377 99.6443 23.4371 99.7359C23.3364 99.8275 23.2051 99.878 23.069 99.8775Z" fill="#093F68"/>
<path d="M19.7857 74.8013H25.7926V78.5739C25.7926 79.2761 25.5137 79.9495 25.0172 80.4459C24.5207 80.9424 23.8474 81.2213 23.1452 81.2213H22.4277C21.7255 81.2213 21.0522 80.9424 20.5557 80.4459C20.0592 79.9495 19.7803 79.2761 19.7803 78.5739V74.8013H19.7857Z" fill="#FFC9B0"/>
<path d="M23.1453 81.7597H22.4278C21.5833 81.7582 20.7739 81.4222 20.1768 80.8251C19.5797 80.228 19.2436 79.4185 19.2422 78.5741V74.8014C19.2422 74.6573 19.2995 74.519 19.4014 74.417C19.5034 74.3151 19.6416 74.2578 19.7858 74.2578H25.7927C25.9369 74.2578 26.0752 74.3151 26.1771 74.417C26.2791 74.519 26.3363 74.6573 26.3363 74.8014V78.5741C26.3349 79.4195 25.9981 80.2297 25.3998 80.827C24.8015 81.4242 23.9907 81.7597 23.1453 81.7597ZM20.3294 75.345V78.5741C20.3294 79.1306 20.5505 79.6643 20.944 80.0579C21.3375 80.4514 21.8712 80.6725 22.4278 80.6725H23.1453C23.7024 80.6725 24.2366 80.4516 24.631 80.0582C25.0254 79.6648 25.2477 79.1311 25.2491 78.5741V75.345H20.3294Z" fill="#093F68"/>
<path d="M17.9203 35.4495C19.0899 35.6422 20.2241 36.0086 21.2853 36.5367C20.5945 35.2863 19.6277 34.2099 18.4585 33.3892C22.9433 33.4218 27.6021 34.3242 31.1573 37.064C37.2295 41.7391 35.5062 48.1646 34.544 54.6173C34.0385 57.9224 33.31 61.1895 32.7012 64.473L4.5855 65.1307C4.5855 65.1307 3.63418 58.3138 3.49827 52.595C3.52498 51.3227 3.61751 50.0525 3.77551 48.7897C3.89511 47.1969 3.819 47.3709 2.25883 46.6751C2.01421 46.5718 1.71522 46.4304 1.67173 46.1749C1.44885 45.4085 2.9764 45.4519 3.36237 44.7507C2.38718 44.7334 1.4263 44.5131 0.541016 44.1038C1.57269 42.5902 2.95342 41.3472 4.56662 40.4795C6.17981 39.6119 7.9781 39.1452 9.80962 39.1188L7.60255 37.7109C7.41114 37.6176 7.26314 37.454 7.1894 37.2543C7.11873 36.8846 7.55906 36.64 7.91785 36.5258C11.136 35.5093 14.6587 34.8787 17.9203 35.4495Z" fill="#FFD705"/>
<path d="M4.58617 65.674C4.45426 65.6753 4.32638 65.6286 4.22636 65.5426C4.12635 65.4565 4.06102 65.3371 4.04256 65.2065C4.04256 65.1412 3.08036 58.2917 2.95533 52.6055C2.9511 51.7168 3.00557 50.8288 3.11841 49.9473C3.1619 49.5559 3.19995 49.1645 3.23257 48.7676C3.2834 48.4361 3.2834 48.0988 3.23257 47.7674C3.01236 47.6058 2.76848 47.4793 2.50957 47.3923L2.03662 47.1911C1.83526 47.1244 1.65128 47.0136 1.49802 46.867C1.34476 46.7203 1.22606 46.5413 1.15054 46.3431C1.07983 46.0992 1.10246 45.8377 1.21401 45.6096C1.32556 45.3815 1.51803 45.2031 1.75394 45.1091C1.25824 44.9934 0.775578 44.8276 0.313371 44.6144C0.240881 44.583 0.176645 44.5353 0.125711 44.4749C0.074778 44.4146 0.0385334 44.3432 0.019819 44.2665C-0.001014 44.1915 -0.0054876 44.1128 0.00670483 44.0359C0.0188973 43.959 0.0474697 43.8856 0.0904873 43.8207C1.01251 42.4632 2.20406 41.3099 3.59099 40.4326C4.97793 39.5554 6.53056 38.973 8.15227 38.7216L7.30967 38.178C7.15101 38.0952 7.01118 37.9805 6.89892 37.8412C6.78667 37.7018 6.70442 37.5407 6.65734 37.368C6.54318 36.7864 6.9672 36.2808 7.74456 36.0199C11.6423 34.7859 15.0888 34.4217 17.9917 34.9327C18.5953 35.039 19.191 35.1861 19.7747 35.373C19.2964 34.8079 18.7484 34.3056 18.1439 33.8781C18.0492 33.8117 17.9781 33.7169 17.9409 33.6074C17.9038 33.4979 17.9025 33.3795 17.9373 33.2692C17.9777 33.1575 18.0515 33.061 18.1488 32.9928C18.2462 32.9247 18.3621 32.8883 18.4809 32.8887C23.9171 32.9322 28.2986 34.2042 31.5276 36.694C37.3171 41.1462 36.3386 47.1966 35.3927 53.0459C35.3003 53.5895 35.2025 54.1874 35.1155 54.7582C34.7893 56.9327 34.3544 59.1071 33.9304 61.2435C33.7075 62.3743 33.4847 63.4995 33.2726 64.6303C33.2495 64.7569 33.1821 64.8712 33.0826 64.9528C32.983 65.0345 32.8578 65.0781 32.729 65.076L4.59704 65.674H4.58617ZM2.25407 46.0767C2.32939 46.1215 2.40747 46.1614 2.48782 46.1963L2.94989 46.3975C4.30893 46.9737 4.4557 47.2292 4.32524 48.8492C4.29262 49.2569 4.25457 49.6591 4.21108 50.0614C4.10239 50.8978 4.04973 51.7404 4.05343 52.5838C4.15672 57.3404 4.84167 62.9124 5.05911 64.5813L32.2398 63.9888C32.4246 62.9994 32.6203 62.01 32.816 61.0207C33.2346 58.9169 33.6695 56.737 33.9956 54.5843C34.0826 54.0081 34.175 53.4318 34.2675 52.861C35.2025 47.0715 36.0886 41.6028 30.8155 37.542C28.0974 35.46 24.477 34.2803 20.0085 34.0303C20.7017 34.7039 21.2932 35.4749 21.7643 36.3189C21.8211 36.4212 21.8433 36.5391 21.8277 36.6551C21.812 36.7711 21.7594 36.8789 21.6775 36.9626C21.5957 37.0463 21.4891 37.1013 21.3735 37.1195C21.2579 37.1377 21.1395 37.1181 21.0359 37.0636C20.0278 36.5413 18.9465 36.1748 17.8286 35.9764C15.1105 35.4926 11.8488 35.8514 8.09248 37.031C7.98959 37.0621 7.89097 37.106 7.79892 37.1615L7.90765 37.2376L10.0821 38.6455C10.1817 38.7081 10.2583 38.8012 10.3004 38.911C10.3426 39.0208 10.348 39.1413 10.3159 39.2544C10.282 39.371 10.21 39.4728 10.1115 39.5438C10.013 39.6147 9.89354 39.6506 9.77224 39.6458C8.14262 39.6669 6.53873 40.0552 5.07991 40.7817C3.62108 41.5083 2.34487 42.5545 1.34623 43.8425C1.98562 44.0605 2.655 44.1779 3.33042 44.1904C3.42436 44.1919 3.51631 44.2177 3.59729 44.2654C3.67828 44.313 3.74553 44.3808 3.79249 44.4622C3.8402 44.5448 3.86533 44.6386 3.86533 44.734C3.86533 44.8294 3.8402 44.9232 3.79249 45.0058C3.5043 45.4198 3.08483 45.7243 2.60198 45.8702C2.52044 45.9245 2.35736 45.9952 2.25407 46.055V46.0767Z" fill="#093F68"/>
<path d="M35.5942 67.315C37.7523 67.2679 39.4592 65.2758 39.4066 62.8655C39.354 60.4553 37.5619 58.5395 35.4037 58.5866C33.2456 58.6337 31.5387 60.6258 31.5913 63.036C31.6439 65.4463 33.4361 67.3621 35.5942 67.315Z" fill="#FFC9B0"/>
<path d="M35.5121 67.8483C34.9256 67.8449 34.3462 67.7194 33.8108 67.4798C33.2755 67.2402 32.7959 66.8918 32.4026 66.4566C31.5537 65.5164 31.0712 64.3022 31.0433 63.0357C31.0153 61.7692 31.4438 60.5349 32.2504 59.5582C32.6352 59.0959 33.1138 58.7206 33.6546 58.4573C34.1953 58.194 34.7859 58.0485 35.3871 58.0306C37.8279 57.9817 39.8882 60.1344 39.948 62.8416C39.9859 64.111 39.5543 65.3497 38.7357 66.3207C38.352 66.7828 37.8743 67.158 37.3345 67.4214C36.7946 67.6848 36.2049 67.8303 35.6045 67.8483H35.5121ZM35.4795 59.1504H35.4142C34.9652 59.1631 34.5241 59.2721 34.1208 59.4699C33.7176 59.6678 33.3615 59.95 33.0767 60.2975C32.4482 61.0703 32.1151 62.0416 32.137 63.0375C32.159 64.0335 32.5344 64.9891 33.1963 65.7336C33.4944 66.0691 33.8615 66.3361 34.2725 66.5162C34.6835 66.6964 35.1286 66.7855 35.5773 66.7773C36.0258 66.7616 36.4658 66.6512 36.8686 66.4536C37.2715 66.2559 37.628 65.9754 37.9149 65.6303C38.5492 64.8689 38.8853 63.903 38.8608 62.9122C38.8118 60.7813 37.3115 59.1504 35.4795 59.1504Z" fill="#093F68"/>
<path d="M22.1442 77.4813C13.566 77.6661 5.66181 67.2559 5.48242 58.8136L7.53728 59.5475L7.33615 53.5677C7.33615 53.5677 18.0181 50.5018 16.496 45.5386C16.496 45.5386 19.7251 49.2134 24.2534 49.1047C32.5761 48.8981 35.7889 46.6258 35.7889 46.6258L36.1205 61.885C36.2999 70.3273 30.717 77.2965 22.1442 77.4813Z" fill="#FFC9B0"/>
<path d="M21.9164 78.0252C13.1262 78.0252 5.12418 67.3758 4.93935 58.8302C4.93428 58.7408 4.95136 58.6516 4.98905 58.5705C5.02674 58.4893 5.08388 58.4187 5.1554 58.3649C5.22692 58.3111 5.31062 58.2759 5.39905 58.2622C5.48749 58.2485 5.57793 58.2569 5.66235 58.2866L6.96703 58.7486L6.79307 53.5789C6.78824 53.4576 6.82416 53.3381 6.89509 53.2396C6.96603 53.1411 7.0679 53.0692 7.18447 53.0353C7.25514 53.0353 14.0068 51.0456 15.7246 47.8764C15.9148 47.551 16.0352 47.1898 16.0782 46.8154C16.1213 46.4411 16.086 46.0619 15.9747 45.7019C15.9382 45.5829 15.9437 45.4549 15.9903 45.3394C16.0368 45.2239 16.1216 45.1279 16.2305 45.0674C16.3393 45.007 16.4656 44.9857 16.5883 45.0072C16.7109 45.0287 16.8225 45.0916 16.9043 45.1855C16.9043 45.2181 19.9376 48.5668 24.0582 48.5668H24.2648C32.2722 48.3711 35.4632 46.2075 35.4958 46.1857C35.5766 46.1282 35.6716 46.0939 35.7704 46.0864C35.8693 46.079 35.9683 46.0987 36.0568 46.1435C36.1452 46.1883 36.2197 46.2564 36.2723 46.3405C36.3248 46.4246 36.3533 46.5215 36.3548 46.6206L36.6864 61.8798C36.8472 65.9786 35.4793 69.991 32.8484 73.1381C31.5166 74.6615 29.877 75.8853 28.0375 76.7287C26.1981 77.572 24.2008 78.0157 22.1773 78.0306L21.9164 78.0252ZM6.05919 59.5967C6.71697 68.9523 15.2408 76.9379 21.949 76.9379H22.1338C24.0044 76.9242 25.8509 76.5151 27.5523 75.7375C29.2536 74.9599 30.7713 73.8314 32.0059 72.4259C34.4611 69.4826 35.7341 65.7314 35.5774 61.9016L35.2621 47.5448C33.8161 48.246 30.3968 49.5018 24.2648 49.6485C21.052 49.741 18.5242 48.0612 17.1652 46.9305C17.0979 47.451 16.9338 47.9544 16.6814 48.4145C14.9908 51.5349 9.45677 53.481 7.89117 53.9811L8.08144 59.5314C8.08429 59.6199 8.06548 59.7078 8.02663 59.7874C7.98779 59.867 7.93009 59.9359 7.85855 59.9881C7.78699 60.0412 7.70344 60.076 7.61528 60.0893C7.52711 60.1025 7.43704 60.0939 7.35299 60.0642L6.05919 59.5967Z" fill="#093F68"/>
<path d="M17.9454 61.7802C18.7258 61.7631 19.3447 61.1167 19.3277 60.3363C19.3106 59.5558 18.6642 58.937 17.8838 58.954C17.1033 58.9711 16.4845 59.6175 16.5015 60.3979C16.5186 61.1783 17.165 61.7972 17.9454 61.7802Z" fill="#093F68"/>
<path d="M31.5228 61.4879C32.3034 61.4879 32.9362 60.8551 32.9362 60.0745C32.9362 59.2939 32.3034 58.6611 31.5228 58.6611C30.7422 58.6611 30.1094 59.2939 30.1094 60.0745C30.1094 60.8551 30.7422 61.4879 31.5228 61.4879Z" fill="#093F68"/>
<path d="M25.353 64.2007C24.9419 64.2003 24.5314 64.1713 24.1244 64.1137C24.053 64.103 23.9844 64.0784 23.9226 64.0412C23.8607 64.0039 23.8068 63.9549 23.7639 63.8969C23.721 63.8388 23.6899 63.7729 23.6725 63.7028C23.6551 63.6328 23.6516 63.56 23.6623 63.4886C23.673 63.4172 23.6977 63.3486 23.7349 63.2868C23.7721 63.2249 23.8212 63.171 23.8792 63.1281C23.9373 63.0852 24.0032 63.0541 24.0733 63.0367C24.1433 63.0193 24.2161 63.0158 24.2875 63.0265C24.9455 63.1215 25.6137 63.1215 26.2717 63.0265C26.2717 62.5481 25.7281 61.1347 25.0159 59.8409C24.9815 59.7782 24.9598 59.7092 24.9521 59.638C24.9444 59.5668 24.9508 59.4948 24.971 59.4261C24.9912 59.3574 25.0248 59.2934 25.0698 59.2377C25.1148 59.182 25.1704 59.1358 25.2334 59.1016C25.359 59.0334 25.5065 59.0173 25.6438 59.057C25.7812 59.0967 25.8974 59.1889 25.9673 59.3136C26.5109 60.265 27.6688 62.5753 27.261 63.5375C27.2151 63.6577 27.1422 63.7657 27.0479 63.8534C26.9537 63.941 26.8406 64.0059 26.7174 64.0431C26.2715 64.1551 25.8127 64.2081 25.353 64.2007Z" fill="#093F68"/>
<path d="M8.57661 59.8246C8.57661 59.8246 4.77132 57.324 2.85237 60.6944C0.933412 64.0648 2.9774 69.6912 9.10936 67.9081" fill="#FFC9B0"/>
<path d="M6.86979 68.7942C6.08369 68.8228 5.30187 68.6665 4.58716 68.3379C3.87245 68.0093 3.24479 67.5177 2.75463 66.9025C2.06746 65.9768 1.66498 64.8709 1.59643 63.72C1.52788 62.5692 1.79624 61.4233 2.36867 60.4226C2.61599 59.9477 2.96075 59.5303 3.38041 59.1978C3.80007 58.8652 4.28519 58.625 4.80405 58.4928C6.78824 58.0252 8.7833 59.3191 8.86485 59.3734C8.98401 59.4531 9.06687 59.5767 9.09538 59.7172C9.12389 59.8577 9.09573 60.0037 9.01706 60.1236C8.93821 60.2436 8.81505 60.3276 8.67448 60.3572C8.53392 60.3867 8.38738 60.3594 8.26687 60.2812C8.26687 60.2812 6.57624 59.194 5.04868 59.5528C4.67589 59.6519 4.32846 59.8291 4.02946 60.0728C3.73047 60.3165 3.48677 60.6211 3.31456 60.9662C2.85838 61.7786 2.64368 62.7044 2.69568 63.6347C2.74768 64.5649 3.06423 65.461 3.60811 66.2175C4.72795 67.6418 6.62516 68.0495 8.94639 67.3754C9.0848 67.335 9.23357 67.3513 9.35999 67.4206C9.4864 67.4899 9.5801 67.6066 9.62047 67.7451C9.66084 67.8835 9.64457 68.0322 9.57525 68.1587C9.50592 68.2851 9.38922 68.3788 9.25081 68.4191C8.47839 68.6541 7.67702 68.7803 6.86979 68.7942Z" fill="#093F68"/>
<path d="M20.802 56.3512H14.4798C14.1915 56.3512 13.9149 56.2367 13.711 56.0328C13.5071 55.8289 13.3926 55.5523 13.3926 55.264C13.3926 54.9756 13.5071 54.6991 13.711 54.4952C13.9149 54.2913 14.1915 54.1768 14.4798 54.1768H20.7966C21.0849 54.1768 21.3615 54.2913 21.5654 54.4952C21.7693 54.6991 21.8838 54.9756 21.8838 55.264C21.8838 55.5523 21.7693 55.8289 21.5654 56.0328C21.3615 56.2367 21.0849 56.3512 20.7966 56.3512H20.802Z" fill="#093F68"/>
<path d="M33.2673 56.3512H26.9505C26.6622 56.3512 26.3856 56.2367 26.1817 56.0328C25.9778 55.8289 25.8633 55.5523 25.8633 55.264C25.8633 54.9756 25.9778 54.6991 26.1817 54.4952C26.3856 54.2913 26.6622 54.1768 26.9505 54.1768H33.2673C33.5556 54.1768 33.8322 54.2913 34.0361 54.4952C34.24 54.6991 34.3545 54.9756 34.3545 55.264C34.3545 55.5523 34.24 55.8289 34.0361 56.0328C33.8322 56.2367 33.5556 56.3512 33.2673 56.3512Z" fill="#093F68"/>
<path d="M26.9505 68.2451H23.1452C23.1452 68.2451 22.9278 72.0504 25.2055 72.1863C26.7113 72.2787 26.9505 68.2451 26.9505 68.2451Z" fill="#093F68"/>
<path d="M25.2713 72.7406H25.1897C22.9663 72.6047 22.526 69.8431 22.6239 68.234C22.6239 68.0899 22.6811 67.9516 22.7831 67.8496C22.885 67.7477 23.0233 67.6904 23.1675 67.6904H26.9728C27.0473 67.6907 27.121 67.7062 27.1893 67.7362C27.2575 67.7661 27.3189 67.8097 27.3696 67.8644C27.42 67.918 27.459 67.9813 27.4843 68.0505C27.5095 68.1196 27.5204 68.1932 27.5164 68.2667C27.5164 68.5874 27.2989 71.3924 26.2117 72.3546C25.959 72.5987 25.6225 72.7368 25.2713 72.7406ZM23.722 68.7885C23.76 69.7127 23.9992 71.561 25.2658 71.6425C25.3065 71.643 25.3468 71.635 25.3843 71.6191C25.4217 71.6032 25.4554 71.5797 25.4833 71.5501C25.9508 71.1369 26.2443 69.816 26.3694 68.7885H23.722Z" fill="#093F68"/>
<path d="M77.0331 36.3185C73.4887 35.9108 69.5747 37.3079 66.7806 39.2704C62.5023 42.2711 60.2572 46.8809 59.7788 51.9746L58.5122 65.6737C57.887 72.4036 56.191 79.9652 62.5078 84.5968C65.7694 86.9942 69.9172 87.8585 73.9563 88.2119C78.9881 88.7124 84.0693 88.2192 88.9111 86.7604C92.7925 85.521 98.495 83.1182 99.0494 78.4486C99.3539 75.8718 97.8263 73.4799 97.0544 70.9956C95.4235 65.7715 97.1957 60.1234 96.8315 54.6601C96.4564 49.0228 91.64 36.873 84.0457 38.8518C83.6736 38.9953 83.2752 39.0583 82.8769 39.0366C82.4596 38.913 82.0837 38.6781 81.7897 38.3571C80.4522 37.2035 78.7909 36.4915 77.0331 36.3185Z" fill="#725858"/>
<path d="M77.8606 88.9026C76.5668 88.9026 75.2513 88.8428 73.9031 88.7286C68.7768 88.2992 65.0477 87.0978 62.1774 85.0157C56.3172 80.7212 57.062 73.9097 57.7252 67.9028C57.8067 67.1309 57.8937 66.3589 57.9644 65.6033L59.2364 51.926C59.7801 46.3105 62.2589 41.7767 66.4719 38.8249C68.9997 37.0527 73.1203 35.324 77.0941 35.7752C78.9562 35.9635 80.7145 36.723 82.128 37.9497L82.2204 38.0312C82.4307 38.2447 82.6902 38.4034 82.976 38.4933C83.2151 38.5038 83.4538 38.4649 83.6773 38.3792L83.9165 38.3139C84.9588 38.0444 86.0491 38.0184 87.1031 38.238C88.157 38.4577 89.1462 38.9171 89.9941 39.5805C94.343 42.7281 97.061 50.3386 97.3655 54.6278C97.4556 56.7845 97.3848 58.9451 97.1535 61.0913C96.8653 64.5052 96.6098 67.7343 97.5612 70.8383C97.784 71.545 98.0776 72.2626 98.3603 72.9638C99.0724 74.7251 99.8117 76.5517 99.578 78.5141C99.1377 82.2433 95.5987 85.1897 89.0699 87.2772C85.4398 88.3942 81.6586 88.9425 77.8606 88.9026ZM75.7732 36.7918C72.4789 36.7918 69.2009 38.2378 67.0753 39.7164C63.1341 42.478 60.7912 46.7345 60.2965 52.0238L59.057 65.7066C58.9864 66.4677 58.8994 67.2396 58.8179 68.0169C58.1601 73.9967 57.4806 80.2156 62.8297 84.1351C65.5478 86.1193 69.0867 87.2337 74.0064 87.6468C78.9665 88.1453 83.9762 87.6613 88.7492 86.2226C94.8377 84.2764 98.1211 81.629 98.5342 78.3674C98.7299 76.6822 98.0776 75.0622 97.3818 73.3498C97.0937 72.6322 96.7892 71.8875 96.5555 71.1373C95.5281 67.8321 95.8216 64.3476 96.0989 60.9826C96.3259 58.8888 96.3985 56.7811 96.3163 54.6767C96.0445 50.605 93.4841 43.3913 89.3907 40.4449C88.6679 39.8773 87.824 39.484 86.9246 39.2955C86.0252 39.1069 85.0945 39.1282 84.2046 39.3577L83.9926 39.4175C83.6144 39.5579 83.2082 39.6063 82.8075 39.5588C82.3228 39.439 81.8818 39.1846 81.5355 38.8249L81.4485 38.7488C80.195 37.675 78.6396 37.0161 76.9963 36.8625C76.5902 36.8166 76.1818 36.793 75.7732 36.7918Z" fill="#093F68"/>
<path d="M93.12 99.6984V87.2932C93.12 86.096 92.8842 84.9105 92.4261 83.8045C91.9679 82.6984 91.2964 81.6934 90.4499 80.8469C89.6034 80.0004 88.5984 79.3288 87.4923 78.8707C86.3863 78.4126 85.2008 78.1768 84.0036 78.1768H69.9567C68.5084 78.1811 67.0816 78.5275 65.7926 79.1879C64.3022 79.953 63.0517 81.1146 62.1789 82.5446C61.3061 83.9747 60.8448 85.6178 60.8457 87.2932V99.6984H93.12Z" fill="#78DDD1"/>
<path d="M93.1197 100.242H60.8454C60.7012 100.242 60.5629 100.185 60.461 100.083C60.359 99.981 60.3018 99.8427 60.3018 99.6986V87.2933C60.2997 85.1476 61.0134 83.0624 62.3299 81.3679C63.6463 79.6734 65.4902 78.4663 67.5699 77.9377C68.3491 77.7346 69.1511 77.6323 69.9563 77.6333H84.0033C86.5644 77.6362 89.0198 78.6549 90.8308 80.4658C92.6418 82.2768 93.6604 84.7322 93.6633 87.2933V99.6986C93.6633 99.8427 93.606 99.981 93.5041 100.083C93.4021 100.185 93.2639 100.242 93.1197 100.242ZM61.389 99.155H92.5761V87.2933C92.5732 85.0206 91.6691 82.8417 90.062 81.2346C88.4549 79.6275 86.2761 78.7234 84.0033 78.7205H69.9563C69.2413 78.721 68.5291 78.8105 67.8362 78.9869C67.2134 79.1492 66.61 79.3789 66.0369 79.6719C64.6358 80.3886 63.4602 81.4787 62.6399 82.8218C61.8196 84.1649 61.3867 85.7087 61.389 87.2824V99.155Z" fill="#093F68"/>
<path d="M82.4692 78.1768C81.7951 82.2321 78.7291 85.3035 75.0597 85.3035C71.4773 85.3035 68.4711 82.3789 67.6992 78.4649C68.4358 78.2726 69.194 78.1757 69.9552 78.1768H82.4692Z" fill="#FFC9B0"/>
<path d="M75.0606 85.8473C71.2553 85.8473 67.9936 82.852 67.1674 78.5683C67.1408 78.4324 67.167 78.2915 67.2408 78.1743C67.3145 78.0572 67.4302 77.9725 67.5642 77.9377C68.3453 77.735 69.1491 77.6327 69.9561 77.6333H82.4592C82.5381 77.634 82.616 77.6518 82.6873 77.6856C82.7587 77.7194 82.8218 77.7683 82.8723 77.829C82.9239 77.8889 82.9619 77.9593 82.9835 78.0354C83.0051 78.1114 83.0098 78.1913 82.9974 78.2693C82.2744 82.6563 78.9311 85.8473 75.0606 85.8473ZM68.3524 78.8727C69.2385 82.3627 71.9348 84.7601 75.0606 84.7601C78.1864 84.7601 80.9697 82.254 81.8069 78.7205H69.9561C69.418 78.7216 68.8811 78.7725 68.3524 78.8727Z" fill="#093F68"/>
<path d="M85.4274 99.84C85.2832 99.84 85.1449 99.7827 85.043 99.6808C84.9411 99.5789 84.8838 99.4406 84.8838 99.2964V87.8805C84.8838 87.7364 84.9411 87.5981 85.043 87.4961C85.1449 87.3942 85.2832 87.3369 85.4274 87.3369C85.5716 87.3369 85.7098 87.3942 85.8118 87.4961C85.9137 87.5981 85.971 87.7364 85.971 87.8805V99.2964C85.971 99.4406 85.9137 99.5789 85.8118 99.6808C85.7098 99.7827 85.5716 99.84 85.4274 99.84Z" fill="#093F68"/>
<path d="M77.9309 79.6932V76.1162H72.2393V79.6932" fill="#FFC9B0"/>
<path d="M77.9306 80.2374C77.7864 80.2374 77.6481 80.1802 77.5462 80.0782C77.4442 79.9763 77.3869 79.838 77.3869 79.6938V76.6605H72.7825V79.6938C72.7825 79.838 72.7253 79.9763 72.6233 80.0782C72.5214 80.1802 72.3831 80.2374 72.2389 80.2374C72.0948 80.2374 71.9565 80.1802 71.8545 80.0782C71.7526 79.9763 71.6953 79.838 71.6953 79.6938V76.1169C71.6953 75.9727 71.7526 75.8344 71.8545 75.7325C71.9565 75.6305 72.0948 75.5732 72.2389 75.5732H77.9306C78.0747 75.5732 78.213 75.6305 78.315 75.7325C78.4169 75.8344 78.4742 75.9727 78.4742 76.1169V79.6938C78.4742 79.838 78.4169 79.9763 78.315 80.0782C78.213 80.1802 78.0747 80.2374 77.9306 80.2374Z" fill="#093F68"/>
<path d="M58.2461 63.6243C58.1428 65.8422 60.0781 68.9027 62.644 69.0223C65.2098 69.1419 67.3734 67.4513 67.4821 65.217C67.5908 62.9828 65.5958 61.1019 63.0299 60.9823C60.4641 60.8627 58.3549 61.4063 58.2461 63.6243Z" fill="#FFC9B0"/>
<path d="M62.9051 69.5772H62.617C61.895 69.5116 61.1967 69.2864 60.5724 68.9178C59.9481 68.5493 59.4136 68.0466 59.0074 67.4462C58.1565 66.3486 57.699 64.997 57.7081 63.6083C57.7141 63.0397 57.8861 62.4852 58.2028 62.013C58.5196 61.5408 58.9674 61.1713 59.4912 60.95C60.6254 60.5108 61.8471 60.3451 63.0573 60.4662C64.3891 60.5154 65.6588 61.0422 66.6343 61.9503C67.0943 62.369 67.4572 62.8833 67.6976 63.457C67.938 64.0308 68.0501 64.6501 68.0259 65.2718C67.9063 67.6908 65.6395 69.5772 62.9051 69.5772ZM62.3615 61.5263C61.5342 61.492 60.7088 61.6289 59.937 61.9285C59.5937 62.0664 59.3001 62.3046 59.0945 62.6121C58.8889 62.9196 58.7808 63.2819 58.7845 63.6518C58.7942 64.7864 59.1762 65.8865 59.8717 66.783C60.1882 67.2504 60.6015 67.6442 61.0836 67.9378C61.5658 68.2314 62.1054 68.4179 62.6659 68.4845C64.9436 68.5987 66.8408 67.1255 66.9333 65.2228C66.9485 64.757 66.8621 64.2934 66.68 63.8643C66.4979 63.4353 66.2244 63.0511 65.8786 62.7385C65.0934 62.0077 64.0697 61.5866 62.9975 61.5534L62.3615 61.5263Z" fill="#093F68"/>
<path d="M74.7554 77.9871C76.5969 78.0734 78.4374 77.796 80.1717 77.1709C81.906 76.5457 83.5001 75.5851 84.8631 74.3437C86.2261 73.1024 87.3312 71.6047 88.1153 69.9363C88.8994 68.2678 89.3471 66.4612 89.4329 64.6197L89.7482 58.0963C89.9113 54.7205 85.0786 48.1645 81.7136 48.0068C81.7136 48.0068 81.0124 51.1707 75.5817 53.7093C71.7764 55.4815 66.5577 55.3402 61.9913 51.8176L61.4477 63.2334C61.3517 65.0762 61.6199 66.9198 62.2369 68.6589C62.8539 70.3979 63.8077 71.9983 65.0436 73.3685C66.2795 74.7387 67.7734 75.8519 69.4398 76.6444C71.1062 77.4369 72.9125 77.8932 74.7554 77.9871Z" fill="#FFC9B0"/>
<path d="M75.436 78.5469H74.7293C70.8668 78.3513 67.2396 76.6313 64.6438 73.7644C62.048 70.8975 60.6956 67.1179 60.8835 63.255L61.4271 51.8391C61.4318 51.7398 61.4638 51.6437 61.5194 51.5613C61.5749 51.4789 61.6521 51.4133 61.7424 51.3716C61.8302 51.3327 61.9267 51.3177 62.0222 51.3282C62.1177 51.3387 62.2087 51.3743 62.286 51.4314C67.0045 55.0736 72.1199 54.7638 75.3327 53.258C80.4046 50.8878 81.1548 47.9577 81.1602 47.9251C81.1889 47.8035 81.2587 47.6955 81.3577 47.6192C81.4567 47.543 81.5789 47.5032 81.7038 47.5065C83.4054 47.5881 85.5526 49.0993 87.4498 51.5565C88.8741 53.3939 90.3582 56.1011 90.2603 58.1668L89.945 64.6902C89.7535 68.4158 88.1437 71.927 85.4458 74.5035C82.748 77.0801 79.1665 78.5268 75.436 78.5469ZM62.4708 52.8666L61.9707 63.2876C61.8006 66.8588 63.0532 70.3518 65.4539 73.0011C67.8546 75.6504 71.2076 77.24 74.7782 77.4216C78.3562 77.59 81.8547 76.331 84.5049 73.9213C87.1551 71.5116 88.7403 68.1484 88.9122 64.5706L89.222 58.0472C89.2927 56.5903 88.2816 54.2745 86.6398 52.1544C85.1177 50.1866 83.4217 48.8601 82.1007 48.5775C81.6767 49.6103 80.2524 52.1109 75.8328 54.1767C73.6828 55.134 71.321 55.5165 68.9787 55.2869C66.6365 55.0572 64.3939 54.2232 62.4708 52.8666Z" fill="#093F68"/>
<path d="M83.3941 59.3791H83.3289L77.148 59.004C76.8596 58.9867 76.59 58.8556 76.3983 58.6395C76.2066 58.4234 76.1087 58.1399 76.126 57.8516C76.1433 57.5632 76.2744 57.2936 76.4905 57.1019C76.7067 56.9102 76.9901 56.8123 77.2784 56.8296L83.4593 57.2101C83.7477 57.2188 84.0208 57.3416 84.2186 57.5516C84.4163 57.7616 84.5226 58.0416 84.5139 58.33C84.5053 58.6183 84.3824 58.8914 84.1724 59.0892C83.9624 59.287 83.6824 59.3932 83.3941 59.3846V59.3791Z" fill="#093F68"/>
<path d="M69.3851 58.5526L63.1934 58.2916C62.905 58.2794 62.6333 58.1531 62.4381 57.9405C62.2429 57.728 62.1401 57.4466 62.1523 57.1582C62.1646 56.8699 62.2909 56.5982 62.5035 56.403C62.716 56.2077 62.9974 56.1049 63.2858 56.1172L69.4721 56.3727C69.7605 56.3785 70.0347 56.4985 70.2345 56.7065C70.4343 56.9145 70.5433 57.1933 70.5376 57.4817C70.5318 57.77 70.4117 58.0443 70.2038 58.2441C69.9958 58.4439 69.717 58.5529 69.4286 58.5471L69.3851 58.5526Z" fill="#093F68"/>
<path d="M86.8945 69.9413C89.4604 70.0609 93.1461 67.2667 93.0482 65.0488C92.8852 61.3413 88.8244 61.7871 87.2261 63.0918" fill="#FFC9B0"/>
<path d="M87.0684 70.4853H86.8727C86.7285 70.4853 86.5903 70.428 86.4883 70.326C86.3864 70.2241 86.3291 70.0858 86.3291 69.9416C86.329 69.8679 86.3439 69.7949 86.3729 69.7271C86.4019 69.6593 86.4444 69.5982 86.4978 69.5473C86.5512 69.4965 86.6144 69.457 86.6835 69.4313C86.7526 69.4057 86.8262 69.3943 86.8999 69.398C88.2263 69.4633 90.0094 68.6207 91.276 67.3649C92.0751 66.5712 92.5154 65.7341 92.4828 65.0709C92.4393 63.9836 92.0207 63.2769 91.2488 62.929C90.6308 62.7162 89.9701 62.6585 89.3246 62.7608C88.6791 62.8632 88.0686 63.1226 87.5468 63.5161C87.4911 63.5611 87.4271 63.5947 87.3584 63.6149C87.2898 63.6352 87.2178 63.6417 87.1466 63.6341C87.0755 63.6265 87.0065 63.605 86.9436 63.5708C86.8808 63.5366 86.8253 63.4903 86.7803 63.4346C86.7353 63.3789 86.7018 63.3149 86.6815 63.2463C86.6613 63.1776 86.6548 63.1056 86.6623 63.0345C86.6699 62.9633 86.6914 62.8943 86.7256 62.8314C86.7599 62.7686 86.8061 62.7131 86.8618 62.6681C87.998 61.7494 90.1235 61.2221 91.7 61.9342C92.5045 62.2984 93.4885 63.1302 93.57 65.0274C93.6135 66.0059 93.0699 67.1094 92.0425 68.1314C90.8683 69.3219 88.8841 70.4853 87.0684 70.4853Z" fill="#093F68"/>
<path d="M90.0416 61.205C90.0416 61.205 92.1671 54.0891 88.1661 47.6963C84.1651 41.3034 73.2113 40.3086 68.7972 42.8581C61.8933 46.8373 61.964 51.8332 61.964 51.8332C61.964 51.8332 61.0018 37.9547 77.1852 38.7864C91.7594 39.5421 94.8254 51.7299 90.0416 61.205Z" fill="#FFBC0E"/>
<path d="M90.0419 61.7489C89.9732 61.7473 89.9053 61.7344 89.8408 61.7109C89.7138 61.6608 89.6103 61.5648 89.5509 61.4419C89.4915 61.319 89.4805 61.1783 89.52 61.0477C89.52 60.977 91.5205 54.084 87.7098 48.001C83.8991 41.9179 73.4236 40.8307 69.0693 43.3422C62.5459 47.0986 62.5079 51.654 62.5079 51.8443C62.5137 51.9885 62.4619 52.129 62.364 52.2351C62.2662 52.3411 62.1302 52.4039 61.986 52.4097C61.8418 52.4154 61.7013 52.3637 61.5953 52.2658C61.4892 52.168 61.4264 52.032 61.4207 51.8878C61.4207 51.654 61.0619 46.0548 64.9922 42.0538C67.7103 39.2651 71.8363 37.9876 77.1909 38.2485C85.2309 38.6617 89.0145 42.3637 90.7812 45.3916C93.3688 49.8492 93.271 55.9975 90.5257 61.45C90.4805 61.5396 90.4114 61.615 90.326 61.6678C90.2406 61.7205 90.1423 61.7486 90.0419 61.7489ZM74.8968 40.9829C79.947 40.9829 85.8561 42.9725 88.6285 47.4084C90.2981 50.1369 91.1735 53.2771 91.1563 56.4759C91.9935 52.6706 91.564 48.8979 89.8408 45.9407C87.5087 41.9234 83.1217 39.6402 77.142 39.3303C72.119 39.0748 68.2919 40.2382 65.7804 42.7931C64.6263 43.9852 63.7582 45.4239 63.2418 47.0007C64.644 45.0941 66.4478 43.5185 68.5257 42.3854C70.1239 41.4667 72.4125 40.9829 74.9077 40.9829H74.8968Z" fill="#093F68"/>
<path d="M73.8703 67.9516C73.3861 67.9629 72.9027 67.9043 72.4352 67.7777C72.3124 67.7414 72.1995 67.6775 72.1052 67.5908C72.011 67.5041 71.9379 67.3969 71.8916 67.2775C71.5491 66.4023 72.5548 64.4616 73.1799 63.3853C73.2552 63.2669 73.3732 63.1823 73.5094 63.1489C73.6456 63.1156 73.7894 63.1361 73.9108 63.2063C74.0321 63.2764 74.1217 63.3908 74.1608 63.5254C74.1999 63.6601 74.1854 63.8046 74.1204 63.9289C73.5658 64.8064 73.153 65.7659 72.8973 66.772C73.4827 66.8728 74.0798 66.8874 74.6694 66.8155C74.8136 66.7975 74.959 66.8374 75.0737 66.9266C75.1884 67.0159 75.263 67.147 75.281 67.2911C75.299 67.4353 75.259 67.5807 75.1698 67.6954C75.0806 67.8101 74.9495 67.8847 74.8053 67.9027C74.7782 67.9027 74.3813 67.9516 73.8703 67.9516Z" fill="#093F68"/>
<path d="M79.0603 63.0512C79.0934 62.3675 78.5659 61.7864 77.8822 61.7534C77.1985 61.7203 76.6174 62.2477 76.5843 62.9314C76.5512 63.6152 77.0787 64.1963 77.7624 64.2293C78.4461 64.2624 79.0272 63.735 79.0603 63.0512Z" fill="#093F68"/>
<path d="M67.3806 62.4883C67.4137 61.8045 66.8862 61.2234 66.2025 61.1904C65.5188 61.1573 64.9377 61.6847 64.9046 62.3685C64.8715 63.0522 65.399 63.6333 66.0827 63.6663C66.7664 63.6994 67.3475 63.172 67.3806 62.4883Z" fill="#093F68"/>
<path d="M67.5262 67.0006H67.3033C66.0417 66.9713 64.8425 66.4458 63.9659 65.538C63.0892 64.6302 62.6058 63.4134 62.6204 62.1515C62.6351 60.8897 63.1467 59.6844 64.0442 58.7973C64.9417 57.9101 66.1528 57.4126 67.4148 57.4126C68.6768 57.4126 69.8878 57.9101 70.7854 58.7973C71.6829 59.6844 72.1945 60.8897 72.2091 62.1515C72.2238 63.4134 71.7404 64.6302 70.8637 65.538C69.9871 66.4458 68.7879 66.9713 67.5262 67.0006ZM67.5262 59.0585C66.6168 59.0806 65.7528 59.4603 65.1215 60.1152C64.4901 60.77 64.1423 61.6473 64.1534 62.5569C64.1644 63.4665 64.5336 64.3351 65.1807 64.9744C65.8278 65.6137 66.7008 65.9722 67.6105 65.9722C68.5201 65.9722 69.3931 65.6137 70.0403 64.9744C70.6874 64.3351 71.0565 63.4665 71.0676 62.5569C71.0787 61.6473 70.7309 60.77 70.0995 60.1152C69.4681 59.4603 68.6041 59.0806 67.6947 59.0585H67.5262Z" fill="#093F68"/>
<path d="M79.3276 67.5707H79.1047C78.5125 67.5421 77.9318 67.3972 77.3956 67.1442C76.8594 66.8912 76.3784 66.5351 75.9798 66.0962C75.5813 65.6573 75.2731 65.1441 75.0729 64.5861C74.8727 64.0281 74.7843 63.4361 74.8129 62.8439C74.8414 62.2518 74.9863 61.671 75.2393 61.1349C75.4923 60.5987 75.8484 60.1176 76.2873 59.7191C76.7263 59.3206 77.2394 59.0124 77.7974 58.8122C78.3554 58.6119 78.9474 58.5236 79.5396 58.5521C80.7357 58.6113 81.8595 59.1424 82.6646 60.029C83.4697 60.9156 83.8903 62.0853 83.8341 63.2816C83.777 64.4387 83.2774 65.5297 82.4386 66.329C81.5999 67.1283 80.4861 67.5747 79.3276 67.5761V67.5707ZM79.3276 59.6285C78.4482 59.6302 77.603 59.9696 76.9667 60.5766C76.3303 61.1836 75.9514 62.0118 75.9082 62.8902C75.8863 63.3403 75.9533 63.7904 76.1053 64.2146C76.2574 64.6388 76.4916 65.029 76.7945 65.3627C77.0974 65.6964 77.4631 65.9671 77.8707 66.1594C78.2783 66.3517 78.7198 66.4618 79.1699 66.4834C79.6204 66.5079 80.0713 66.4422 80.4961 66.29C80.9208 66.1379 81.3109 65.9024 81.6434 65.5973C82.1505 65.1422 82.5106 64.5462 82.6777 63.8856C82.8448 63.2249 82.8113 62.5294 82.5815 61.8879C82.3517 61.2463 81.936 60.6877 81.3875 60.2834C80.8389 59.8791 80.1823 59.6473 79.5015 59.6176L79.3276 59.6285Z" fill="#093F68"/>
<path d="M75.364 63.407L71.4989 63.2222C71.3548 63.2186 71.2179 63.1578 71.1185 63.0533C71.0191 62.9488 70.9653 62.8091 70.9689 62.665C70.9725 62.5208 71.0333 62.3839 71.1378 62.2845C71.2422 62.1851 71.382 62.1313 71.5261 62.1349L75.3912 62.3198C75.5306 62.3267 75.662 62.3871 75.7582 62.4883C75.8543 62.5895 75.9078 62.7238 75.9077 62.8634C75.9077 63.0076 75.8504 63.1458 75.7484 63.2478C75.6465 63.3497 75.5082 63.407 75.364 63.407Z" fill="#093F68"/>
<path d="M63.6326 62.2272C63.5005 62.227 63.3729 62.1787 63.2738 62.0913L61.1809 60.2376C61.1234 60.1914 61.0758 60.134 61.0412 60.0689C61.0065 60.0037 60.9855 59.9322 60.9794 59.8587C60.9733 59.7851 60.9822 59.7111 61.0056 59.6411C61.029 59.5712 61.0665 59.5067 61.1156 59.4516C61.1647 59.3966 61.2246 59.3521 61.2915 59.3209C61.3583 59.2898 61.4309 59.2725 61.5046 59.2703C61.5784 59.268 61.6518 59.2808 61.7205 59.3079C61.7891 59.3349 61.8515 59.3757 61.9039 59.4276L63.9968 61.2813C64.08 61.3546 64.1387 61.4516 64.1652 61.5592C64.1916 61.6668 64.1846 61.78 64.145 61.8834C64.1053 61.9869 64.035 62.0759 63.9435 62.1383C63.8519 62.2007 63.7434 62.2336 63.6326 62.2327V62.2272Z" fill="#093F68"/>
<path d="M83.2911 63.7931C83.169 63.7976 83.0491 63.7609 82.9504 63.6889C82.8518 63.6169 82.7803 63.5138 82.7474 63.3962C82.7089 63.2578 82.7268 63.1098 82.797 62.9845C82.8673 62.8592 82.9844 62.7669 83.1225 62.7276L89.0751 61.0315C89.1436 61.0115 89.2154 61.0052 89.2864 61.013C89.3574 61.0207 89.4261 61.0424 89.4887 61.0767C89.5513 61.1111 89.6065 61.1574 89.6512 61.213C89.6959 61.2687 89.7292 61.3326 89.7492 61.4012C89.7691 61.4701 89.7751 61.5422 89.767 61.6134C89.7589 61.6847 89.7368 61.7536 89.7019 61.8163C89.6671 61.8789 89.6201 61.9341 89.5639 61.9785C89.5076 62.023 89.4431 62.0558 89.3741 62.0753L83.4215 63.7713C83.3793 63.7849 83.3354 63.7922 83.2911 63.7931Z" fill="#093F68"/>
<path d="M76.202 69.7832L72.2119 69.9789C72.2119 69.9789 72.5163 73.208 74.0058 74.056C74.9191 74.5724 76.4901 72.8818 76.202 69.7832Z" fill="#093F68"/>
<path d="M74.3593 74.6927C74.1404 74.6928 73.9252 74.6366 73.7342 74.5296C72.049 73.5728 71.7011 70.3927 71.6685 70.0339C71.6615 69.9607 71.6695 69.8868 71.6919 69.8167C71.7143 69.7466 71.7507 69.6818 71.7989 69.6262C71.8469 69.5699 71.9059 69.524 71.9723 69.4913C72.0387 69.4585 72.111 69.4397 72.1849 69.4359L76.175 69.2402C76.3111 69.2397 76.4425 69.2902 76.5431 69.3818C76.6438 69.4734 76.7064 69.5994 76.7186 69.7349C76.947 72.1431 76.1098 73.8229 75.1802 74.4209C74.9381 74.5878 74.6533 74.6821 74.3593 74.6927ZM72.8264 70.496C73.0003 71.5071 73.4406 73.1108 74.2724 73.5837C74.3811 73.6435 74.5333 73.5837 74.6148 73.5076C75.0932 73.1977 75.7021 72.1214 75.7021 70.3546L72.8264 70.496Z" fill="#093F68"/>
<path d="M93.1189 95.5342H85.4268V99.6983H93.1189V95.5342Z" fill="#FFC9B0"/>
<path d="M93.1195 100.242H85.4274C85.2832 100.242 85.1449 100.185 85.043 100.083C84.9411 99.9809 84.8838 99.8426 84.8838 99.6984V95.5343C84.8838 95.3902 84.9411 95.2519 85.043 95.15C85.1449 95.048 85.2832 94.9907 85.4274 94.9907H93.1195C93.2637 94.9907 93.402 95.048 93.5039 95.15C93.6059 95.2519 93.6631 95.3902 93.6631 95.5343V99.6984C93.6631 99.8426 93.6059 99.9809 93.5039 100.083C93.402 100.185 93.2637 100.242 93.1195 100.242ZM85.971 99.1548H92.5759V96.0779H85.971V99.1548Z" fill="#093F68"/>
<path d="M65.7915 95.5342H60.8555V99.6983H65.7915V95.5342Z" fill="#FFC9B0"/>
<path d="M65.7921 100.242H60.8561C60.7119 100.242 60.5737 100.185 60.4717 100.083C60.3698 99.9809 60.3125 99.8426 60.3125 99.6984V95.5343C60.3125 95.3902 60.3698 95.2519 60.4717 95.15C60.5737 95.048 60.7119 94.9907 60.8561 94.9907H65.7921C65.9363 94.9907 66.0746 95.048 66.1765 95.15C66.2785 95.2519 66.3357 95.3902 66.3357 95.5343V99.6984C66.3357 99.8426 66.2785 99.9809 66.1765 100.083C66.0746 100.185 65.9363 100.242 65.7921 100.242ZM61.3997 99.1548H65.2485V96.0779H61.3997V99.1548Z" fill="#093F68"/>
<path d="M65.7917 96.0785C65.6475 96.0785 65.5092 96.0212 65.4073 95.9193C65.3053 95.8173 65.248 95.679 65.248 95.5349V86.5109C65.248 86.3667 65.3053 86.2285 65.4073 86.1265C65.5092 86.0246 65.6475 85.9673 65.7917 85.9673C65.9358 85.9673 66.0741 86.0246 66.1761 86.1265C66.278 86.2285 66.3353 86.3667 66.3353 86.5109V95.5349C66.3353 95.679 66.278 95.8173 66.1761 95.9193C66.0741 96.0212 65.9358 96.0785 65.7917 96.0785Z" fill="#093F68"/>
<path d="M46.3089 4.33789H84.8293C86.112 4.33933 87.3418 4.84952 88.2488 5.75654C89.1558 6.66356 89.666 7.89333 89.6675 9.17605V20.9072C89.6675 22.1904 89.1577 23.421 88.2504 24.3283C87.3431 25.2356 86.1125 25.7454 84.8293 25.7454H79.5617V32.5732L73.5439 25.7454H46.3089C45.6733 25.7461 45.0439 25.6214 44.4565 25.3786C43.8692 25.1357 43.3356 24.7793 42.8862 24.3299C42.4368 23.8805 42.0804 23.3469 41.8375 22.7596C41.5947 22.1722 41.47 21.5428 41.4707 20.9072V9.17605C41.4707 7.89289 41.9804 6.66229 42.8878 5.75495C43.7951 4.84762 45.0257 4.33789 46.3089 4.33789Z" fill="white"/>
<path d="M79.5614 33.1169C79.4842 33.1168 79.4079 33.1003 79.3376 33.0684C79.2673 33.0366 79.2046 32.9901 79.1536 32.9321L73.2989 26.2892H46.3085C44.8816 26.2877 43.5136 25.7202 42.5046 24.7113C41.4957 23.7023 40.9282 22.3343 40.9268 20.9074V9.17621C40.9282 7.74931 41.4957 6.38127 42.5046 5.37231C43.5136 4.36334 44.8816 3.79587 46.3085 3.79443H84.829C86.2559 3.79587 87.6239 4.36334 88.6329 5.37231C89.6418 6.38127 90.2093 7.74931 90.2107 9.17621V20.9074C90.2093 22.3343 89.6418 23.7023 88.6329 24.7113C87.6239 25.7202 86.2559 26.2877 84.829 26.2892H80.105V32.5733C80.1053 32.6844 80.0717 32.7929 80.0085 32.8843C79.9453 32.9756 79.8557 33.0454 79.7516 33.0843C79.6903 33.1052 79.6261 33.1162 79.5614 33.1169ZM46.3085 4.88166C45.17 4.8831 44.0785 5.33602 43.2734 6.14109C42.4683 6.94616 42.0154 8.03766 42.014 9.17621V20.9074C42.014 22.0464 42.4664 23.1387 43.2718 23.9441C44.0772 24.7495 45.1695 25.2019 46.3085 25.2019H73.5436C73.6207 25.202 73.697 25.2186 73.7673 25.2504C73.8376 25.2823 73.9003 25.3288 73.9513 25.3868L79.0177 31.1382V25.7455C79.0177 25.6014 79.075 25.4631 79.177 25.3611C79.2789 25.2592 79.4172 25.2019 79.5614 25.2019H84.829C85.968 25.2019 87.0603 24.7495 87.8657 23.9441C88.6711 23.1387 89.1235 22.0464 89.1235 20.9074V9.17621C89.1221 8.03766 88.6692 6.94616 87.8641 6.14109C87.059 5.33602 85.9675 4.8831 84.829 4.88166H46.3085Z" fill="#093F68"/>
<path d="M82.9259 11.9432H52.1139C51.9698 11.9432 51.8315 11.8859 51.7295 11.784C51.6276 11.682 51.5703 11.5437 51.5703 11.3996C51.5703 11.2554 51.6276 11.1171 51.7295 11.0152C51.8315 10.9132 51.9698 10.856 52.1139 10.856H82.9259C83.0701 10.856 83.2084 10.9132 83.3103 11.0152C83.4123 11.1171 83.4695 11.2554 83.4695 11.3996C83.4695 11.5437 83.4123 11.682 83.3103 11.784C83.2084 11.8859 83.0701 11.9432 82.9259 11.9432Z" fill="#DFEAEF"/>
<path d="M73.7939 18.472H67.4879C67.3438 18.472 67.2055 18.4147 67.1036 18.3128C67.0016 18.2108 66.9443 18.0726 66.9443 17.9284C66.9443 17.7842 67.0016 17.6459 67.1036 17.544C67.2055 17.442 67.3438 17.3848 67.4879 17.3848H73.7939C73.938 17.3848 74.0763 17.442 74.1783 17.544C74.2802 17.6459 74.3375 17.7842 74.3375 17.9284C74.3375 18.0726 74.2802 18.2108 74.1783 18.3128C74.0763 18.4147 73.938 18.472 73.7939 18.472Z" fill="#DFEAEF"/>
<path d="M62.5894 18.472H52.1139C51.9698 18.472 51.8315 18.4147 51.7295 18.3128C51.6276 18.2108 51.5703 18.0726 51.5703 17.9284C51.5703 17.7842 51.6276 17.6459 51.7295 17.544C51.8315 17.442 51.9698 17.3848 52.1139 17.3848H62.5894C62.7335 17.3848 62.8718 17.442 62.9737 17.544C63.0757 17.6459 63.133 17.7842 63.133 17.9284C63.133 18.0726 63.0757 18.2108 62.9737 18.3128C62.8718 18.4147 62.7335 18.472 62.5894 18.472Z" fill="#DFEAEF"/>
<path d="M52.2009 0.543945H13.6805C12.3959 0.543945 11.1639 1.05425 10.2556 1.9626C9.34722 2.87095 8.83691 4.10294 8.83691 5.38754V17.1187C8.83835 18.4024 9.34929 19.633 10.2575 20.5401C11.1657 21.4473 12.3968 21.9569 13.6805 21.9569H18.9481V28.7847L24.9605 21.9569H52.2009C53.4837 21.9554 54.7134 21.4452 55.6205 20.5382C56.5275 19.6312 57.0377 18.4014 57.0391 17.1187V5.38754C57.0391 4.10388 56.5295 2.87272 55.6224 1.96452C54.7152 1.05633 53.4846 0.545386 52.2009 0.543945Z" fill="white"/>
<path d="M18.9478 29.3279C18.8824 29.329 18.8175 29.3161 18.7575 29.2899C18.6543 29.2513 18.5653 29.1824 18.5022 29.0921C18.4391 29.0018 18.4049 28.8945 18.4042 28.7843V22.5002H13.6802C12.2528 22.4987 10.8842 21.9314 9.87435 20.9226C8.86452 19.9138 8.29585 18.5458 8.29297 17.1184V5.38721C8.29584 3.95931 8.86434 2.59072 9.87402 1.58105C10.8837 0.571375 12.2523 0.00287303 13.6802 0H52.2006C53.628 0.00287709 54.996 0.571554 56.0048 1.58138C57.0137 2.59121 57.5809 3.95981 57.5824 5.38721V17.1184C57.5809 18.5453 57.0135 19.9133 56.0045 20.9223C54.9955 21.9312 53.6275 22.4987 52.2006 22.5002H25.2102L19.3718 29.1431C19.3191 29.2032 19.2537 29.2509 19.1804 29.2829C19.1071 29.3148 19.0277 29.3302 18.9478 29.3279ZM13.6802 1.08723C12.5402 1.08866 11.4473 1.54216 10.6412 2.34825C9.83512 3.15434 9.38163 4.24722 9.3802 5.38721V17.1184C9.38307 18.2574 9.8372 19.3489 10.6431 20.1538C11.4491 20.9587 12.5411 21.4115 13.6802 21.4129H18.9478C19.092 21.4129 19.2302 21.4702 19.3322 21.5721C19.4341 21.6741 19.4914 21.8124 19.4914 21.9565V27.3437L24.5524 21.5978C24.6034 21.5398 24.6661 21.4933 24.7364 21.4614C24.8067 21.4296 24.883 21.413 24.9601 21.4129H52.2006C53.3387 21.4101 54.4294 20.9567 55.2341 20.1519C56.0389 19.3471 56.4923 18.2565 56.4952 17.1184V5.38721C56.4937 4.24816 56.041 3.1561 55.2361 2.35017C54.4311 1.54423 53.3397 1.0901 52.2006 1.08723H13.6802Z" fill="#093F68"/>
<path d="M48.3464 7.63801H17.529C17.3848 7.63801 17.2465 7.58073 17.1446 7.47879C17.0426 7.37684 16.9854 7.23857 16.9854 7.09439C16.9854 6.95022 17.0426 6.81195 17.1446 6.71C17.2465 6.60805 17.3848 6.55078 17.529 6.55078H48.3464C48.4906 6.55078 48.6288 6.60805 48.7308 6.71C48.8327 6.81195 48.89 6.95022 48.89 7.09439C48.89 7.23857 48.8327 7.37684 48.7308 7.47879C48.6288 7.58073 48.4906 7.63801 48.3464 7.63801Z" fill="#DFEAEF"/>
<path d="M39.2137 14.1668H17.529C17.3848 14.1668 17.2465 14.1095 17.1446 14.0076C17.0426 13.9056 16.9854 13.7674 16.9854 13.6232C16.9854 13.479 17.0426 13.3408 17.1446 13.2388C17.2465 13.1369 17.3848 13.0796 17.529 13.0796H39.2137C39.3579 13.0796 39.4961 13.1369 39.5981 13.2388C39.7 13.3408 39.7573 13.479 39.7573 13.6232C39.7573 13.7674 39.7 13.9056 39.5981 14.0076C39.4961 14.1095 39.3579 14.1668 39.2137 14.1668Z" fill="#DFEAEF"/>
</svg>
