<svg width="155" height="100" viewBox="0 0 155 100" fill="none" xmlns="http://www.w3.org/2000/svg">
<path d="M119.411 22.861V74.9306C119.411 76.9049 118.056 78.4996 116.379 78.4996H44.2856C42.6091 78.4996 41.2539 76.9049 41.2539 74.9306V22.861C41.2539 20.8925 42.6091 19.292 44.2856 19.292H116.379C118.056 19.292 119.411 20.8925 119.411 22.861Z" fill="#093F68"/>
<path d="M116.378 79.0839H44.2847C42.287 79.0839 40.6689 77.2205 40.6689 74.9307V22.8612C40.6689 20.5714 42.287 18.708 44.2847 18.708H116.378C118.37 18.708 119.994 20.5714 119.994 22.8612V74.9307C119.994 77.2205 118.37 79.0839 116.378 79.0839ZM44.2847 19.8763C42.9354 19.8763 41.8372 21.2139 41.8372 22.8612V74.9307C41.8372 76.578 42.9354 77.9156 44.2847 77.9156H116.378C117.728 77.9156 118.826 76.578 118.826 74.9307V22.8612C118.826 21.2139 117.728 19.8763 116.378 19.8763H44.2847Z" fill="#093F68"/>
<path d="M119.411 22.861V73.7915H41.2539V22.861C41.2539 20.8925 42.6091 19.292 44.2856 19.292H116.379C118.056 19.292 119.411 20.8925 119.411 22.861Z" fill="white"/>
<path d="M119.41 74.3758H41.2531C41.0982 74.3758 40.9496 74.3142 40.84 74.2047C40.7305 74.0951 40.6689 73.9466 40.6689 73.7916V22.8612C40.6689 20.5714 42.287 18.708 44.2847 18.708H116.378C118.37 18.708 119.994 20.5714 119.994 22.8612V73.7916C119.994 73.9466 119.933 74.0951 119.823 74.2047C119.713 74.3142 119.565 74.3758 119.41 74.3758ZM41.8372 73.2075H118.826V22.8612C118.826 21.2139 117.728 19.8763 116.378 19.8763H44.2847C42.9354 19.8763 41.8372 21.2139 41.8372 22.8612V73.2075Z" fill="#093F68"/>
<path d="M85.1159 27.4577C84.1294 26.9395 83.06 26.5975 81.9558 26.4472C80.4697 26.2614 78.9608 26.4169 77.5437 26.9017C76.1267 27.3865 74.8388 28.188 73.7779 29.2452C71.3012 31.7511 70.0979 35.9101 69.6423 39.3156C69.0507 43.8675 68.7036 48.4478 68.6025 53.0368C68.6367 53.4973 68.7249 53.9522 68.8654 54.392C68.8654 54.392 74.4672 59.6492 86.6405 58.1772C90.4549 57.7099 94.3043 57.5405 98.1363 57.0849C97.6631 53.8955 97.9026 50.6594 97.4703 47.4759C97.1082 44.8239 96.6759 42.1837 96.4247 39.4791C96.1736 36.7746 95.9808 33.1939 93.4165 31.6401C92.7777 31.2613 92.0606 31.0343 91.3202 30.9765C90.5799 30.9188 89.8362 31.0319 89.1465 31.3071C88.2014 29.6629 86.8019 28.3263 85.1159 27.4577Z" fill="#725858"/>
<path d="M82.3228 59.0303C73.0059 59.0303 68.6249 55.0115 68.4205 54.8187C68.3472 54.75 68.2929 54.6634 68.2628 54.5675C68.0959 54.0692 67.9976 53.5503 67.9707 53.0254C68.0723 48.4151 68.4194 43.8134 69.0105 39.2399C69.3668 36.623 70.3949 31.7922 73.3155 28.8307C74.4459 27.7118 75.8155 26.8639 77.3211 26.3509C78.8266 25.8379 80.4289 25.6732 82.0074 25.8691C83.18 26.0256 84.3153 26.3895 85.3603 26.944C86.9907 27.7901 88.3689 29.0514 89.3558 30.6006C90.0739 30.3888 90.8281 30.3277 91.5709 30.4212C92.3137 30.5147 93.0293 30.7607 93.6725 31.1439C96.3654 32.7736 96.6866 36.401 96.9261 39.0413L96.9612 39.4268C97.1422 41.4012 97.4285 43.3814 97.703 45.2682L98.0009 47.371C98.1868 48.9359 98.2921 50.5093 98.3164 52.085C98.3431 53.7199 98.4601 55.3521 98.6668 56.9742C98.6776 57.0513 98.6727 57.1298 98.6527 57.205C98.6326 57.2803 98.5977 57.3507 98.55 57.4123C98.5032 57.4744 98.4445 57.5265 98.3773 57.5656C98.3101 57.6048 98.2357 57.6301 98.1586 57.6401C96.2953 57.8562 94.3968 58.0139 92.5685 58.1658C90.6292 58.3235 88.6198 58.4871 86.6688 58.7499C85.2273 58.9328 83.7759 59.0265 82.3228 59.0303ZM69.3434 54.0652C70.1729 54.7545 75.7221 58.9252 86.5344 57.57C88.5146 57.3246 90.5299 57.1611 92.4809 56.9859C94.1106 56.8515 95.7871 56.7172 97.4402 56.5302C97.2591 55.0524 97.2123 53.5628 97.1656 52.1142C97.1189 50.6655 97.0605 49.0241 96.856 47.5171L96.5581 45.42C96.2777 43.4924 95.974 41.5005 95.8104 39.4911L95.7754 39.0997C95.5476 36.5763 95.2672 33.4278 93.0767 32.0902C92.5171 31.7568 91.8881 31.557 91.2387 31.5064C90.5893 31.4557 89.9369 31.5555 89.3324 31.7981C89.2003 31.8517 89.0531 31.8552 88.9186 31.8079C88.7841 31.7605 88.6716 31.6656 88.6022 31.5411C87.7077 30.019 86.3963 28.7846 84.8229 27.9837C83.8977 27.4936 82.8931 27.1713 81.8555 27.0316C80.4551 26.8559 79.033 27.0012 77.6971 27.4566C76.3612 27.9121 75.1465 28.6656 74.145 29.6602C71.3645 32.4757 70.4416 37.4116 70.1729 39.3976C69.5841 43.9302 69.239 48.491 69.139 53.0605C69.1697 53.4019 69.2383 53.7389 69.3434 54.0652Z" fill="#093F68"/>
<path d="M77.0486 56.7588H86.0734C87.7775 56.7588 89.4119 57.4358 90.6169 58.6408C91.8219 59.8458 92.4989 61.4801 92.4989 63.1842V74.0783H70.6465V63.1609C70.6526 61.4648 71.3291 59.84 72.5284 58.6407C73.7277 57.4414 75.3525 56.7649 77.0486 56.7588Z" fill="#FFBC0E"/>
<path d="M92.4766 74.6382H70.6476C70.4927 74.6382 70.3441 74.5766 70.2346 74.4671C70.125 74.3575 70.0635 74.209 70.0635 74.054V63.16C70.0635 61.3009 70.802 59.518 72.1165 58.2035C73.4311 56.8889 75.214 56.1504 77.0731 56.1504H86.0979C87.957 56.1504 89.7399 56.8889 91.0544 58.2035C92.369 59.518 93.1075 61.3009 93.1075 63.16V74.054C93.1077 74.1348 93.0912 74.2148 93.059 74.2889C93.0268 74.363 92.9795 74.4296 92.9202 74.4845C92.8609 74.5394 92.7909 74.5814 92.7145 74.6079C92.6382 74.6343 92.5572 74.6446 92.4766 74.6382ZM71.2317 73.4699H91.8925V63.16C91.8925 61.6108 91.2771 60.125 90.1816 59.0295C89.0861 57.9341 87.6004 57.3187 86.0512 57.3187H77.0497C75.5005 57.3187 74.0147 57.9341 72.9193 59.0295C71.8238 60.125 71.2084 61.6108 71.2084 63.16L71.2317 73.4699Z" fill="#093F68"/>
<path d="M83.1821 57.3545L80.3432 69.2708L79.5488 57.6115L83.1821 57.3545Z" fill="white"/>
<path d="M80.3436 69.8544H80.2968C80.1579 69.8437 80.0273 69.7836 79.9288 69.6851C79.8302 69.5865 79.7702 69.456 79.7594 69.317L78.965 57.6344C78.9554 57.4803 79.0071 57.3288 79.1089 57.2128C79.2107 57.0967 79.3543 57.0257 79.5082 57.0152L83.1415 56.7582C83.2327 56.752 83.3241 56.7672 83.4083 56.8027C83.4925 56.8382 83.5672 56.893 83.6264 56.9626C83.6858 57.0327 83.7278 57.1157 83.7492 57.205C83.7705 57.2943 83.7704 57.3874 83.749 57.4767L80.9102 69.393C80.8823 69.5229 80.8109 69.6394 80.7079 69.7232C80.6049 69.8071 80.4764 69.8534 80.3436 69.8544ZM80.1683 58.1718L80.6648 65.4209L82.4172 58.0141L80.1683 58.1718Z" fill="#093F68"/>
<path d="M81.44 59.1668L80.9208 59.1401C80.534 59.1202 80.171 58.9474 79.9116 58.6598C79.6521 58.3722 79.5176 57.9933 79.5375 57.6065L79.6391 55.6348L83.0693 55.8116L82.9683 57.7716C82.9599 57.9637 82.9137 58.1523 82.8323 58.3265C82.7509 58.5006 82.6359 58.657 82.4939 58.7867C82.3519 58.9163 82.1857 59.0166 82.0048 59.0818C81.824 59.1471 81.632 59.176 81.44 59.1668Z" fill="#FFC9B0"/>
<path d="M81.523 59.7551H81.4178H80.898C80.3571 59.7249 79.8501 59.4818 79.4878 59.0791C79.1256 58.6763 78.9374 58.1465 78.9645 57.6055L79.0638 55.6311C79.0762 55.4776 79.1448 55.334 79.2565 55.228C79.372 55.1257 79.5231 55.0732 79.6771 55.082L83.1118 55.2572C83.191 55.2571 83.2695 55.2732 83.3423 55.3043C83.4152 55.3355 83.4809 55.3811 83.5355 55.4385C83.5902 55.4959 83.6326 55.5638 83.6602 55.6381C83.6877 55.7123 83.6999 55.7914 83.696 55.8706L83.5908 57.8449C83.5639 58.3677 83.3375 58.8603 82.9582 59.2211C82.5789 59.5819 82.0757 59.7835 81.5522 59.7843L81.523 59.7551ZM80.2028 56.2503L80.1327 57.6463C80.1216 57.8769 80.2018 58.1025 80.356 58.2742C80.5102 58.4459 80.726 58.5498 80.9564 58.5634H81.4704C81.5853 58.573 81.7008 58.5581 81.8096 58.5199C81.9183 58.4816 82.0177 58.4208 82.1013 58.3415C82.2701 58.1922 82.373 57.9822 82.3875 57.7573L82.4634 56.3612L80.2028 56.2503Z" fill="#093F68"/>
<path d="M75.4992 46.8403C75.5809 45.2552 74.4953 43.9109 73.0745 43.8376C71.6537 43.7644 70.4356 44.9901 70.354 46.5752C70.2723 48.1603 71.3579 49.5047 72.7787 49.5779C74.1995 49.6511 75.4175 48.4255 75.4992 46.8403Z" fill="#FFC9B0"/>
<path d="M72.8949 50.1806H72.7431C72.3137 50.1549 71.8949 50.0373 71.515 49.8358C71.1351 49.6342 70.8029 49.3534 70.5409 49.0123C69.9935 48.3098 69.7176 47.4336 69.7638 46.5442C69.8099 45.6549 70.175 44.8119 70.7921 44.1698C71.0882 43.8599 71.4477 43.6174 71.8461 43.4591C72.2444 43.3008 72.6723 43.2303 73.1004 43.2525C73.5285 43.2747 73.9468 43.389 74.3267 43.5877C74.7065 43.7863 75.0391 44.0646 75.3016 44.4035C75.8528 45.105 76.1291 45.9836 76.0785 46.8744C76.0391 47.7644 75.6731 48.6088 75.0504 49.2459C74.7714 49.5373 74.437 49.7701 74.0669 49.9305C73.6968 50.091 73.2983 50.176 72.8949 50.1806ZM72.9475 44.4269C72.6988 44.4314 72.4535 44.4854 72.2258 44.5857C71.9982 44.686 71.7928 44.8305 71.6215 45.011C71.2075 45.4498 70.963 46.0216 70.932 46.6242C70.901 47.2267 71.0853 47.8206 71.4521 48.2997C71.6142 48.5072 71.8181 48.6784 72.0505 48.8022C72.283 48.9259 72.5388 48.9995 72.8015 49.0181C73.066 49.0275 73.3295 48.9803 73.5744 48.8795C73.8192 48.7788 74.0396 48.6269 74.2209 48.434C74.6346 47.9961 74.8788 47.4253 74.9098 46.8238C74.9408 46.2222 74.7567 45.6293 74.3903 45.1512C74.23 44.9417 74.0266 44.7692 73.7938 44.6452C73.561 44.5212 73.3042 44.4488 73.041 44.4327L72.9475 44.4269Z" fill="#093F68"/>
<path d="M81.4303 56.5359C87.073 56.828 92.4821 50.1105 92.7683 44.5729L91.4014 45.011L91.6467 41.0856C91.6467 41.0856 84.6722 38.8542 85.7762 35.6123C85.7762 35.6123 83.574 37.9488 80.595 37.8086C75.1158 37.5166 73.048 35.9511 73.048 35.9511L72.534 45.9982C72.2653 51.5474 75.77 56.2438 81.4303 56.5359Z" fill="#FFC9B0"/>
<path d="M81.7807 57.126H81.401C75.6999 56.8281 71.6343 52.0382 71.9498 45.969L72.4638 35.9278C72.4693 35.8213 72.5038 35.7184 72.5636 35.6301C72.6235 35.5418 72.7063 35.4716 72.8032 35.4271C72.9001 35.3826 73.0074 35.3654 73.1133 35.3775C73.2193 35.3895 73.3199 35.4304 73.4043 35.4956C73.4043 35.4956 75.4487 36.9559 80.6241 37.248C83.2995 37.4057 85.3264 35.2619 85.3498 35.2385C85.4407 35.1408 85.5624 35.0771 85.6946 35.0582C85.8268 35.0392 85.9615 35.0661 86.0762 35.1344C86.191 35.2027 86.2789 35.3083 86.3253 35.4335C86.3716 35.5588 86.3737 35.6961 86.3311 35.8227C86.259 36.0296 86.231 36.2493 86.2491 36.4676C86.2673 36.686 86.331 36.8981 86.4362 37.0902C87.2891 38.7784 90.6186 40.1569 91.8278 40.5425C91.9498 40.5821 92.0553 40.6607 92.1282 40.7663C92.201 40.8719 92.2371 40.9985 92.2308 41.1266L92.0381 44.1991L92.5872 44.018C92.6776 43.9887 92.7738 43.9819 92.8674 43.9982C92.9611 44.0145 93.0493 44.0534 93.1246 44.1115C93.2001 44.1694 93.2604 44.245 93.3001 44.3315C93.3398 44.418 93.3577 44.513 93.3524 44.608C93.0603 50.2507 87.6045 57.126 81.7807 57.126ZM81.4594 55.9577C85.7002 56.1914 91.3196 51.3314 92.1023 45.4024L91.5766 45.5718C91.4862 45.6012 91.39 45.608 91.2963 45.5917C91.2027 45.5754 91.1144 45.5365 91.0392 45.4784C90.9647 45.4198 90.9056 45.344 90.8669 45.2575C90.8282 45.171 90.8112 45.0764 90.8172 44.9819L91.0392 41.4771C89.8184 41.0331 86.4304 39.6487 85.3965 37.5926C85.2838 37.3745 85.1994 37.1428 85.1453 36.9033C83.8301 37.9001 82.2155 38.4211 80.5657 38.3812C76.8915 38.1826 74.6894 37.4232 73.5561 36.9092L73.0888 46.0158C72.8026 51.5008 76.3132 55.6773 81.4302 55.946L81.4594 55.9577Z" fill="#093F68"/>
<path d="M85.3796 45.0962C85.4052 44.5833 85.0102 44.1467 84.4972 44.121C83.9843 44.0954 83.5477 44.4904 83.522 45.0034C83.4964 45.5163 83.8914 45.9529 84.4044 45.9786C84.9173 46.0042 85.3539 45.6092 85.3796 45.0962Z" fill="#093F68"/>
<path d="M75.5938 45.8228C76.11 45.8228 76.5284 45.4044 76.5284 44.8882C76.5284 44.3721 76.11 43.9536 75.5938 43.9536C75.0776 43.9536 74.6592 44.3721 74.6592 44.8882C74.6592 45.4044 75.0776 45.8228 75.5938 45.8228Z" fill="#093F68"/>
<path d="M79.7357 47.9552C79.3633 47.9614 78.9918 47.9162 78.6317 47.8208C78.5157 47.7858 78.4094 47.7242 78.3213 47.6411C78.2331 47.558 78.1654 47.4555 78.1235 47.3418C77.8607 46.6759 78.4974 45.3674 79.0698 44.4212C79.1507 44.294 79.2775 44.203 79.4238 44.1672C79.5702 44.1313 79.7247 44.1534 79.8551 44.2288C79.9855 44.3042 80.0818 44.4271 80.1238 44.5718C80.1658 44.7165 80.1502 44.8718 80.0804 45.0053C79.7405 45.5564 79.4642 46.1443 79.2568 46.7577C79.5944 46.7966 79.9355 46.7966 80.2731 46.7577C80.4281 46.7383 80.5843 46.7813 80.7076 46.8771C80.8308 46.973 80.9109 47.1139 80.9303 47.2688C80.9497 47.4237 80.9067 47.58 80.8108 47.7032C80.715 47.8265 80.5741 47.9066 80.4192 47.9259C80.192 47.9475 79.9639 47.9572 79.7357 47.9552Z" fill="#093F68"/>
<path d="M88.1306 44.2288C88.036 44.2285 87.9419 44.2167 87.8502 44.1937L83.5334 43.1248C83.3846 43.0864 83.2448 43.0191 83.122 42.9267C82.9992 42.8343 82.8958 42.7187 82.8177 42.5863C82.7396 42.454 82.6883 42.3075 82.6668 42.1554C82.6453 42.0032 82.654 41.8483 82.6923 41.6995C82.7698 41.3989 82.9634 41.1415 83.2307 40.9837C83.3631 40.9056 83.5095 40.8543 83.6617 40.8328C83.8139 40.8113 83.9688 40.82 84.1176 40.8583L88.4343 41.9273C88.7105 41.9965 88.952 42.1642 89.1132 42.3989C89.2745 42.6336 89.3445 42.9191 89.31 43.2018C89.2756 43.4845 89.1391 43.7448 88.9262 43.9339C88.7133 44.123 88.4387 44.2279 88.1539 44.2288H88.1306Z" fill="#093F68"/>
<path d="M79.2737 42.7446L74.8284 42.7154C74.5186 42.7154 74.2214 42.5923 74.0023 42.3733C73.7832 42.1542 73.6602 41.857 73.6602 41.5472C73.6602 41.2373 73.7832 40.9402 74.0023 40.7211C74.2214 40.502 74.5186 40.3789 74.8284 40.3789H79.2737C79.5835 40.3789 79.8807 40.502 80.0998 40.7211C80.3188 40.9402 80.4419 41.2373 80.4419 41.5472C80.4419 41.857 80.3188 42.1542 80.0998 42.3733C79.8807 42.5923 79.5835 42.7154 79.2737 42.7154V42.7446Z" fill="#093F68"/>
<path d="M90.7055 45.1748C90.7055 45.1748 93.2523 43.6035 94.4614 45.8582C95.6706 48.113 94.2044 51.7813 90.1973 50.4846" fill="#FFC9B0"/>
<path d="M91.7631 51.349C91.167 51.3423 90.5756 51.2417 90.0107 51.0511C89.9352 51.0296 89.8648 50.993 89.8037 50.9436C89.7426 50.8942 89.6922 50.833 89.6553 50.7637C89.6184 50.6943 89.5959 50.6182 89.5891 50.54C89.5823 50.4617 89.5914 50.3829 89.6157 50.3082C89.6401 50.2335 89.6793 50.1645 89.7309 50.1054C89.7826 50.0462 89.8456 49.998 89.9163 49.9638C89.987 49.9295 90.0639 49.9099 90.1423 49.906C90.2208 49.9021 90.2992 49.9141 90.3729 49.9413C91.7982 50.4027 92.9665 50.1924 93.6674 49.3571C94.0147 48.9035 94.225 48.3601 94.2736 47.7909C94.3223 47.2216 94.2072 46.6504 93.9419 46.1444C93.8487 45.9415 93.7136 45.7606 93.5455 45.6136C93.3773 45.4666 93.18 45.3569 92.9665 45.2916C92.2885 45.1882 91.5957 45.3268 91.0096 45.683C90.9446 45.7375 90.8684 45.7773 90.7865 45.7994C90.7045 45.8216 90.6187 45.8256 90.535 45.8112C90.4513 45.7968 90.3718 45.7644 90.302 45.7161C90.2321 45.6678 90.1736 45.6049 90.1306 45.5317C90.0875 45.4585 90.0609 45.3768 90.0527 45.2923C90.0444 45.2078 90.0547 45.1226 90.0828 45.0424C90.1108 44.9623 90.156 44.8892 90.2152 44.8284C90.2744 44.7675 90.3462 44.7202 90.4255 44.6899C91.2844 44.1682 92.3054 43.981 93.2936 44.1642C93.6628 44.2687 94.0058 44.4503 94.2998 44.697C94.5938 44.9437 94.8322 45.2498 94.9992 45.5953C95.377 46.305 95.54 47.1093 95.4685 47.91C95.3969 48.7108 95.0938 49.4734 94.5962 50.1048C94.249 50.5132 93.8136 50.8373 93.3228 51.0529C92.832 51.2684 92.2988 51.3697 91.7631 51.349Z" fill="#093F68"/>
<path d="M80.6067 52.3418C79.3577 52.3072 78.1474 51.9004 77.1311 51.1736C77.0155 51.0772 76.9415 50.94 76.9246 50.7905C76.9077 50.641 76.9491 50.4908 77.0402 50.371C77.1313 50.2513 77.2651 50.1714 77.4137 50.1478C77.5623 50.1243 77.7143 50.159 77.8379 50.2448C77.8729 50.2448 79.4852 51.4539 81.2083 51.1443C81.7675 51.0123 82.2921 50.7627 82.7473 50.4122C83.2026 50.0617 83.578 49.6184 83.8486 49.1116C83.9315 48.9799 84.0633 48.8865 84.215 48.852C84.3667 48.8175 84.526 48.8447 84.6576 48.9276C84.7893 49.0104 84.8827 49.1422 84.9172 49.294C84.9517 49.4457 84.9245 49.6049 84.8416 49.7366C84.4846 50.3832 83.9934 50.9461 83.401 51.3873C82.8086 51.8286 82.1287 52.1381 81.4069 52.2951C81.142 52.333 80.8743 52.3487 80.6067 52.3418Z" fill="#093F68"/>
<path d="M75.3905 74.6386C75.247 74.6396 75.1081 74.5878 75.0004 74.493C74.8926 74.3982 74.8236 74.267 74.8064 74.1246L74.2865 69.7552C73.8435 68.8302 73.5347 67.8468 73.3694 66.8346C73.2762 66.0904 73.373 65.3347 73.6508 64.6381C73.9287 63.9415 74.3785 63.3266 74.9582 62.8508C75.0189 62.7979 75.0899 62.7581 75.1667 62.734C75.2435 62.7098 75.3245 62.7018 75.4045 62.7104C75.4846 62.719 75.562 62.7441 75.6319 62.784C75.7018 62.824 75.7627 62.878 75.8107 62.9426C75.8588 63.0072 75.893 63.081 75.9111 63.1594C75.9293 63.2379 75.931 63.3192 75.9162 63.3984C75.9015 63.4775 75.8705 63.5528 75.8252 63.6194C75.78 63.686 75.7215 63.7425 75.6534 63.7854C75.239 64.1411 74.9196 64.5943 74.7238 65.1041C74.528 65.6139 74.462 66.1644 74.5318 66.7061C74.6924 67.6207 74.9774 68.509 75.3788 69.3463C75.407 69.4056 75.4267 69.4685 75.4372 69.5333L75.9688 73.996C75.9786 74.0728 75.973 74.1508 75.9524 74.2254C75.9317 74.3 75.8965 74.3698 75.8486 74.4307C75.8008 74.4916 75.7414 74.5423 75.6737 74.58C75.6061 74.6177 75.5317 74.6416 75.4548 74.6503L75.3905 74.6386Z" fill="#093F68"/>
<path d="M87.5177 74.639C87.3628 74.639 87.2142 74.5774 87.1047 74.4679C86.9951 74.3583 86.9336 74.2098 86.9336 74.0548V63.3126C86.9336 63.1577 86.9951 63.0091 87.1047 62.8996C87.2142 62.7901 87.3628 62.7285 87.5177 62.7285C87.6726 62.7285 87.8212 62.7901 87.9308 62.8996C88.0403 63.0091 88.1019 63.1577 88.1019 63.3126V74.0548C88.1019 74.2098 88.0403 74.3583 87.9308 74.4679C87.8212 74.5774 87.6726 74.639 87.5177 74.639Z" fill="#093F68"/>
<path d="M64.4487 41.892H52.2228C52.0679 41.892 51.9193 41.8305 51.8098 41.721C51.7002 41.6114 51.6387 41.4628 51.6387 41.3079V26.506C51.6387 26.3511 51.7002 26.2025 51.8098 26.093C51.9193 25.9834 52.0679 25.9219 52.2228 25.9219H64.4487C64.6036 25.9219 64.7522 25.9834 64.8617 26.093C64.9713 26.2025 65.0328 26.3511 65.0328 26.506V41.3079C65.0328 41.4628 64.9713 41.6114 64.8617 41.721C64.7522 41.8305 64.6036 41.892 64.4487 41.892ZM52.8069 40.7238H63.8645V27.0901H52.8069V40.7238Z" fill="#DFEAEF"/>
<path d="M58.3342 35.5771C57.6604 35.5782 57.0014 35.3795 56.4406 35.006C55.8798 34.6325 55.4424 34.101 55.1838 33.4789C54.9251 32.8567 54.8568 32.1718 54.9876 31.5108C55.1183 30.8498 55.4422 30.2425 55.9182 29.7656C56.3943 29.2888 57.0011 28.9639 57.6618 28.832C58.3226 28.7001 59.0076 28.7672 59.6302 29.0248C60.2528 29.2824 60.785 29.7188 61.1595 30.279C61.534 30.8392 61.7338 31.4978 61.7338 32.1716C61.7338 33.0738 61.3758 33.9391 60.7385 34.5776C60.1011 35.2161 59.2364 35.5755 58.3342 35.5771ZM58.3342 29.9402C57.8912 29.9391 57.4579 30.0694 57.0891 30.3148C56.7203 30.5602 56.4326 30.9095 56.2625 31.3186C56.0925 31.7276 56.0477 32.1779 56.1338 32.6125C56.22 33.047 56.4332 33.4462 56.7464 33.7594C57.0596 34.0726 57.4588 34.2858 57.8933 34.372C58.3278 34.4581 58.7782 34.4133 59.1872 34.2432C59.5962 34.0732 59.9456 33.7855 60.191 33.4167C60.4363 33.0479 60.5667 32.6146 60.5656 32.1716C60.5579 31.5843 60.3196 31.0236 59.9021 30.6105C59.4847 30.1974 58.9215 29.9651 58.3342 29.9636V29.9402Z" fill="#DFEAEF"/>
<path d="M61.8155 41.8919H54.8527C54.6978 41.8919 54.5492 41.8304 54.4396 41.7208C54.3301 41.6113 54.2686 41.4627 54.2686 41.3078V38.4981C54.3763 37.495 54.851 36.5671 55.6015 35.8929C56.352 35.2187 57.3252 34.8457 58.3341 34.8457C59.343 34.8457 60.3162 35.2187 61.0667 35.8929C61.8172 36.5671 62.292 37.495 62.3997 38.4981V41.3078C62.3997 41.4627 62.3381 41.6113 62.2286 41.7208C62.119 41.8304 61.9705 41.8919 61.8155 41.8919ZM55.4368 40.7237H61.2314V38.4981C61.2838 38.0868 61.2479 37.669 61.1262 37.2725C61.0046 36.8761 60.7999 36.5101 60.5258 36.199C60.2517 35.8878 59.9145 35.6385 59.5366 35.4678C59.1587 35.2971 58.7488 35.2088 58.3341 35.2088C57.9194 35.2088 57.5095 35.2971 57.1316 35.4678C56.7537 35.6385 56.4165 35.8878 56.1424 36.199C55.8683 36.5101 55.6636 36.8761 55.542 37.2725C55.4203 37.669 55.3845 38.0868 55.4368 38.4981V40.7237Z" fill="#DFEAEF"/>
<path d="M0.585922 99.879C0.441925 99.8802 0.302551 99.8282 0.194555 99.7329C0.0793284 99.6298 0.00969875 99.4852 0.000938764 99.3308C-0.00782123 99.1764 0.0450023 99.0248 0.147823 98.9093C0.375634 98.6464 0.375636 98.6464 19.2197 98.6348C30.365 98.6348 45.2136 98.6348 60.0564 98.6348C89.7478 98.6348 119.416 98.7049 119.416 98.7049C119.571 98.7049 119.719 98.7664 119.829 98.876C119.938 98.9855 120 99.1341 120 99.289C120 99.4439 119.938 99.5925 119.829 99.702C119.719 99.8116 119.571 99.8731 119.416 99.8731C79.1692 99.8147 2.75889 99.7329 0.685223 99.8731L0.585922 99.879Z" fill="#093F68"/>
<path d="M104.345 73.7912H101.237C100.326 71.6299 98.7256 67.2898 99.0468 64.0654C100.602 64.9152 101.834 66.2537 102.552 67.874C102.685 68.1497 102.804 68.4325 102.908 68.721C103.545 70.3623 104.026 72.0598 104.345 73.7912Z" fill="#70CC40"/>
<path d="M104.345 74.3758H101.237C101.123 74.3757 101.011 74.3418 100.915 74.2785C100.819 74.2151 100.745 74.125 100.7 74.0194C99.7186 71.6829 98.1356 67.3311 98.4627 64.0074C98.4728 63.9156 98.5045 63.8275 98.5553 63.7503C98.6061 63.6731 98.6744 63.6091 98.7548 63.5635C98.837 63.5214 98.9281 63.4995 99.0205 63.4995C99.1129 63.4995 99.204 63.5214 99.2863 63.5635C100.97 64.4668 102.304 65.9057 103.077 67.6524C103.22 67.9432 103.347 68.2416 103.457 68.5461C104.101 70.2273 104.592 71.9634 104.923 73.7332C104.936 73.8169 104.93 73.9024 104.907 73.9837C104.883 74.0651 104.842 74.1403 104.786 74.2042C104.731 74.2681 104.662 74.3191 104.585 74.3538C104.508 74.3885 104.424 74.4059 104.339 74.405L104.345 74.3758ZM101.623 73.2075H103.644C103.312 71.7512 102.883 70.3188 102.359 68.92C102.264 68.6504 102.153 68.387 102.026 68.1314C101.472 66.9379 100.636 65.8974 99.5901 65.0997C99.6251 67.851 100.788 71.1747 101.623 73.2075Z" fill="#093F68"/>
<path d="M106.974 67.8276C107.039 69.869 106.673 71.9014 105.899 73.7915H103.148C102.771 71.8413 102.576 69.8605 102.563 67.8743C102.563 65.0296 102.967 61.7818 104.456 59.1123C104.456 59.1123 106.465 61.4138 106.944 66.9864C106.95 67.2668 106.968 67.553 106.974 67.8276Z" fill="#70CC40"/>
<path d="M105.899 74.3752H103.148C103.01 74.3777 102.876 74.3317 102.769 74.2451C102.663 74.1586 102.59 74.0371 102.564 73.9021C102.186 71.9146 101.99 69.8968 101.979 67.8738C101.979 64.2464 102.622 61.1972 103.942 58.814C103.988 58.7318 104.052 58.6618 104.131 58.61C104.209 58.5582 104.299 58.5261 104.392 58.5163C104.486 58.5066 104.58 58.5195 104.668 58.5541C104.755 58.5886 104.833 58.6437 104.894 58.7147C104.982 58.814 107.032 61.2264 107.523 66.9275C107.523 67.2313 107.564 67.5117 107.57 67.8096C107.634 69.9331 107.252 72.0464 106.448 74.0131C106.404 74.1216 106.327 74.2142 106.229 74.2788C106.131 74.3434 106.016 74.377 105.899 74.3752ZM103.633 73.207H105.502C106.144 71.4943 106.445 69.6728 106.39 67.8446C106.39 67.5759 106.39 67.3014 106.349 67.021C106.218 64.6645 105.593 62.3617 104.515 60.2626C103.518 62.6663 103.048 65.2557 103.136 67.8563C103.152 69.6506 103.318 71.4405 103.633 73.207Z" fill="#093F68"/>
<path d="M108.353 73.7914H104.556C104.997 71.6745 105.817 69.6543 106.974 67.8275C107.862 66.4275 108.97 65.1808 110.257 64.1357C110.257 64.1357 111.548 68.1838 108.353 73.7914Z" fill="#70CC40"/>
<path d="M108.353 74.3751H104.556C104.469 74.3754 104.383 74.3561 104.304 74.3187C104.225 74.2813 104.156 74.2267 104.101 74.1589C104.047 74.0918 104.008 74.0134 103.988 73.9296C103.968 73.8458 103.966 73.7585 103.984 73.6741C104.446 71.4883 105.293 69.4018 106.484 67.5115C107.406 66.0596 108.556 64.7657 109.889 63.6796C109.963 63.62 110.05 63.5793 110.143 63.5609C110.236 63.5425 110.332 63.547 110.423 63.5741C110.514 63.6011 110.597 63.6498 110.665 63.716C110.733 63.7822 110.783 63.864 110.812 63.9542C110.871 64.1294 112.144 68.3176 108.861 74.083C108.81 74.1721 108.736 74.2461 108.647 74.2974C108.557 74.3487 108.456 74.3755 108.353 74.3751ZM105.286 73.2068H108.009C109.989 69.5852 110.024 66.6645 109.866 65.2451C108.948 66.1138 108.143 67.0951 107.471 68.1657C106.486 69.7228 105.749 71.4234 105.286 73.2068Z" fill="#093F68"/>
<path d="M46.5631 44.4565C46.5631 44.4565 49.8518 49.5969 48.3155 51.4136C46.7792 53.2302 43.6016 51.4136 43.6016 51.4136" fill="#FFC9B0"/>
<path d="M46.4339 52.8036C45.3444 52.7501 44.2815 52.4484 43.3263 51.9215C43.1915 51.8441 43.093 51.7162 43.0525 51.5662C43.012 51.4161 43.0327 51.256 43.1102 51.1213C43.1876 50.9865 43.3155 50.888 43.4655 50.8475C43.6156 50.8069 43.7757 50.8277 43.9104 50.9051C43.9104 50.9051 46.6851 52.4531 47.8884 51.0336C48.8347 49.9121 47.0823 46.3314 46.0893 44.7718C46.0429 44.7074 46.0101 44.6343 45.9929 44.5568C45.9758 44.4794 45.9745 44.3993 45.9893 44.3214C46.0041 44.2435 46.0346 44.1694 46.079 44.1036C46.1233 44.0379 46.1806 43.9819 46.2473 43.939C46.3141 43.8961 46.3888 43.8672 46.467 43.8542C46.5453 43.8411 46.6253 43.8441 46.7024 43.863C46.7794 43.8819 46.8518 43.9163 46.9151 43.9641C46.9784 44.0118 47.0313 44.072 47.0706 44.1409C47.4328 44.725 50.5403 49.7077 48.7821 51.7872C48.4935 52.1237 48.1321 52.3901 47.7252 52.5662C47.3184 52.7423 46.8768 52.8235 46.4339 52.8036Z" fill="#093F68"/>
<path d="M55.0156 79.6206L55.5998 74.8016C55.5998 74.8016 54.7937 71.8809 55.2318 69.9182C55.6698 67.9555 55.997 67.5817 56.6045 68.3294C57.1078 69.0865 57.5288 69.8953 57.8603 70.7418C57.8603 70.7418 59.5076 64.4507 60.2728 63.668C61.2425 62.6925 66.1141 65.2101 66.9611 66.4134C67.8081 67.6167 67.4635 70.7477 66.745 72.8389C65.3372 76.9278 62.1362 84.4573 62.1362 84.4573L55.0156 79.6206Z" fill="#FFC9B0"/>
<path d="M62.1408 85.0301C62.0243 85.0304 61.9104 84.9958 61.8137 84.9308L54.6873 80.1059C54.5984 80.0454 54.5279 79.9617 54.4836 79.8638C54.4393 79.7658 54.4229 79.6576 54.4361 79.551L55.0202 74.8429C54.8683 74.2587 54.255 71.6769 54.6697 69.796C54.9969 68.3181 55.2539 67.547 55.9256 67.3952C56.1558 67.3705 56.3883 67.4124 56.5954 67.5159C56.8025 67.6195 56.9755 67.7803 57.0939 67.9793C57.3442 68.316 57.5651 68.6736 57.754 69.0483C58.3381 66.9629 59.2727 63.9021 59.8919 63.2712C60.0771 63.112 60.2949 62.995 60.5299 62.9284C60.7649 62.8619 61.0117 62.8473 61.2529 62.8857C63.1572 63.0259 66.6386 64.9418 67.4681 66.0867C68.5838 67.6171 67.9763 71.157 67.3279 73.0262C65.9376 77.0684 62.7424 84.6095 62.7132 84.7088C62.6795 84.7886 62.6285 84.8598 62.5638 84.9174C62.4991 84.975 62.4225 85.0175 62.3394 85.0418C62.273 85.0503 62.2057 85.0463 62.1408 85.0301ZM55.6394 79.3407L61.8838 83.5639C62.6899 81.6421 65.0556 75.941 66.1947 72.6348C66.8956 70.6196 67.1877 67.7106 66.4926 66.7585C65.9084 65.9933 62.9878 64.2934 61.3055 64.0598C60.8265 63.9897 60.6921 64.0598 60.6921 64.0598C60.2832 64.4862 59.2026 67.9267 58.4316 70.8649C58.4011 70.9839 58.3339 71.0904 58.2396 71.169C58.1452 71.2477 58.0284 71.2946 57.9058 71.303C57.782 71.3117 57.6586 71.2807 57.5536 71.2145C57.4485 71.1484 57.3673 71.0505 57.3217 70.935C57.0099 70.1531 56.6184 69.4054 56.1534 68.7036C56.0025 69.1348 55.8815 69.5759 55.7913 70.0238C55.3882 71.8287 56.1418 74.5917 56.1534 74.6209C56.1684 74.6961 56.1684 74.7735 56.1534 74.8487L55.6394 79.3407Z" fill="#093F68"/>
<path d="M11.9181 52.6103C15.2183 52.6103 17.8937 50.3062 17.8937 47.4641C17.8937 44.6219 15.2183 42.3179 11.9181 42.3179C8.61778 42.3179 5.94238 44.6219 5.94238 47.4641C5.94238 50.3062 8.61778 52.6103 11.9181 52.6103Z" fill="#FFC9B0"/>
<path d="M11.9182 53.1946C8.30243 53.1946 5.3584 50.6244 5.3584 47.4642C5.3584 44.3041 8.27906 41.7339 11.9182 41.7339C15.5573 41.7339 18.4722 44.3041 18.4722 47.4642C18.4722 50.6244 15.534 53.1946 11.9182 53.1946ZM11.9182 42.9021C8.94497 42.9021 6.52666 44.9466 6.52666 47.4642C6.52666 49.9818 8.94497 52.0263 11.9182 52.0263C14.8914 52.0263 17.3039 49.9818 17.3039 47.4642C17.3039 44.9466 14.8914 42.9021 11.9182 42.9021Z" fill="#093F68"/>
<path d="M37.5094 25.3955C42.6323 34.1867 46.1312 29.2099 47.1827 27.4809V46.2256C47.1822 50.7305 45.4933 55.0717 42.4493 58.3925C39.4053 61.7134 35.2272 63.7727 30.7394 64.1643V68.0138C30.7048 68.8062 30.3657 69.5548 29.7927 70.1033C29.2197 70.6519 28.4571 70.9581 27.6639 70.9581C26.8707 70.9581 26.1081 70.6519 25.5351 70.1033C24.9621 69.5548 24.623 68.8062 24.5884 68.0138V64.4038C13.6652 63.9949 8.33789 54.5904 8.33789 46.2256L11.1534 29.5428C11.1534 29.5428 18.3207 35.1155 37.5094 25.3955Z" fill="#FFC9B0"/>
<path d="M27.6661 71.6711C26.6958 71.6711 25.7651 71.2861 25.0784 70.6005C24.3917 69.9149 24.0052 68.9848 24.0036 68.0145V64.9595C21.6512 64.8468 19.3513 64.2249 17.2627 63.1367C15.1741 62.0486 13.3465 60.52 11.9062 58.6567C9.19596 55.0805 7.73479 50.7135 7.74723 46.2263C7.74441 46.1933 7.74441 46.1601 7.74723 46.127L10.5686 29.4501C10.5848 29.3502 10.6267 29.2562 10.6902 29.1773C10.7537 29.0985 10.8366 29.0375 10.9307 29.0003C11.0266 28.9609 11.1312 28.9477 11.2339 28.9621C11.3365 28.9764 11.4335 29.0178 11.5149 29.0821C11.5791 29.1347 18.7055 34.2633 37.2459 24.8763C37.3779 24.8096 37.5302 24.7954 37.6722 24.8366C37.8142 24.8778 37.9353 24.9713 38.0111 25.0983C39.8219 28.2059 41.621 29.8531 43.2099 29.8707C44.4132 29.8707 45.5464 28.9653 46.6621 27.1778C46.7276 27.0687 46.827 26.984 46.9451 26.9365C47.0632 26.8891 47.1935 26.8815 47.3163 26.915C47.4427 26.9503 47.5534 27.0271 47.6308 27.1331C47.7082 27.2391 47.7476 27.368 47.7427 27.4991V46.2439C47.7217 50.797 46.0396 55.186 43.012 58.5868C39.9844 61.9876 35.8196 64.1664 31.2994 64.7141V68.032C31.2933 68.9943 30.9087 69.9155 30.2289 70.5964C29.549 71.2774 28.6284 71.6635 27.6661 71.6711ZM8.91549 46.2731C8.91549 54.7138 14.3304 63.4349 24.6111 63.797C24.766 63.797 24.9146 63.8586 25.0242 63.9681C25.1337 64.0777 25.1952 64.2262 25.1952 64.3812V67.9911C25.2262 68.631 25.5022 69.2344 25.9661 69.6763C26.4299 70.1182 27.0459 70.3647 27.6866 70.3647C28.3272 70.3647 28.9433 70.1182 29.4071 69.6763C29.8709 69.2344 30.1469 68.631 30.1779 67.9911V64.1417C30.1773 63.9954 30.2316 63.8543 30.33 63.7462C30.4284 63.638 30.5638 63.5707 30.7095 63.5575C35.0442 63.1571 39.0747 61.1576 42.0161 57.9485C44.9574 54.7393 46.599 50.5503 46.6212 46.1971V29.2573C46.2224 29.7775 45.7145 30.2039 45.1333 30.5067C44.552 30.8094 43.9114 30.9811 43.2566 31.0097H43.2216C41.2589 31.0097 39.2728 29.3508 37.3101 26.1322C21.6204 33.9537 13.9449 31.6172 11.6083 30.449L8.91549 46.2731Z" fill="#093F68"/>
<path d="M37.6963 32.885C38.8237 33.0077 47.1417 35.0638 47.9945 34.211C48.7651 33.3704 49.2727 32.3226 49.4549 31.1969C49.7266 29.7072 49.6819 28.177 49.3237 26.7056C48.9654 25.2343 48.3016 23.8549 47.3754 22.6569C45.9019 20.698 43.8632 19.2383 41.534 18.4745C40.8214 18.2759 34.9742 18.2408 35.1086 18.5154C34.028 15.9218 31.5454 14.1519 28.9402 13.1005C18.8464 9.01156 8.82266 13.4101 4.7279 23.352C2.79442 28.0251 2.31544 33.1888 2.44979 38.2474C2.58414 43.5045 3.4136 48.861 6.09477 53.3647C11.2351 61.9982 23.2274 64.1887 31.3526 59.0249C38.9697 54.1591 36.972 36.8571 37.6963 32.885Z" fill="#FFD705"/>
<path d="M21.5563 62.3716C19.9965 62.3701 18.442 62.1878 16.9241 61.8284C14.5733 61.303 12.3528 60.3078 10.3964 58.9024C8.43995 57.4971 6.78785 55.7106 5.53942 53.6505C3.16784 49.6667 1.98205 44.7717 1.81266 38.2411C1.65494 32.2304 2.39679 27.277 4.14918 23.1121C8.3783 12.8431 18.881 8.39782 29.1267 12.5393C32.1057 13.7426 34.3196 15.6119 35.4119 17.8316C37.2636 17.557 41.6329 17.8841 41.6797 17.8958C44.1428 18.6827 46.3004 20.2156 47.8539 22.2826C48.8312 23.5471 49.5313 25.0031 49.9087 26.556C50.2861 28.1089 50.3324 29.7239 50.0444 31.2958C49.8438 32.5365 49.2785 33.6894 48.4205 34.6078C47.7605 35.2679 45.681 35.0868 39.5301 33.8134L38.2099 33.5447C38.1223 34.4676 38.0989 35.8403 38.0756 37.3824C37.9763 44.1876 37.8069 55.5782 31.6501 59.5035C28.6265 61.3995 25.1251 62.3944 21.5563 62.3716ZM21.3051 12.1363C14.3364 12.1363 8.22058 16.2661 5.2123 23.5619C3.55921 27.5749 2.82905 32.3706 2.98092 38.2178C3.14448 44.5381 4.27769 49.252 6.54412 53.0547C7.71175 54.982 9.25785 56.6527 11.0891 57.9659C12.9203 59.2791 14.9987 60.2075 17.1987 60.6952C19.5245 61.2693 21.9414 61.3744 24.3083 61.0043C26.6752 60.6343 28.9446 59.7964 30.9842 58.5397C36.6269 54.9531 36.7905 43.9364 36.8898 37.3883C36.8629 35.8506 36.939 34.3129 37.1176 32.7853C37.1447 32.6408 37.2253 32.5118 37.3433 32.4241C37.4613 32.3364 37.6081 32.2964 37.7543 32.3122C38.0639 32.3472 38.7707 32.4933 39.7462 32.6919C41.6913 33.0949 46.8551 34.158 47.6203 33.7725C48.2902 33.0167 48.7283 32.0838 48.882 31.0855C49.1387 29.6777 49.0955 28.2315 48.7553 26.8415C48.415 25.4515 47.7855 24.1488 46.9076 23.0186C45.5069 21.1539 43.5649 19.7668 41.3467 19.0465C39.3628 18.8771 37.3687 18.8634 35.3827 19.0057C35.3516 19.0266 35.3183 19.0443 35.2834 19.0582C35.2125 19.0879 35.1364 19.1033 35.0595 19.1035C34.9826 19.1037 34.9064 19.0887 34.8353 19.0594C34.7642 19.0301 34.6996 18.9871 34.6452 18.9327C34.5908 18.8784 34.5476 18.8139 34.5182 18.7428C33.6303 16.6224 31.5567 14.8116 28.6769 13.6492C26.3396 12.6777 23.8362 12.1679 21.3051 12.148V12.1363Z" fill="#093F68"/>
<path d="M54.2327 77.6354L52.2233 83.8039C50.0912 74.9251 44.7581 65.5322 39.2848 65.5322H16.9534C15.1367 65.5322 13.3941 66.2531 12.1084 67.5367C10.8227 68.8202 10.0988 70.5615 10.0957 72.3783V99.3067H59.414L64.4492 80.6496L54.2327 77.6354Z" fill="#78DDD1"/>
<path d="M59.4141 99.8788H10.0959C9.94093 99.8788 9.79235 99.8173 9.68281 99.7077C9.57326 99.5982 9.51172 99.4496 9.51172 99.2947V72.3779C9.51481 70.4051 10.2999 68.5141 11.6948 67.1191C13.0897 65.7242 14.9808 64.9391 16.9536 64.936H39.2849C44.729 64.936 49.8402 73.2658 52.2818 81.724L53.6779 77.4423C53.7249 77.2968 53.8271 77.1755 53.9626 77.1046C54.098 77.0336 54.2558 77.0185 54.4022 77.0626L64.6129 80.0884C64.759 80.1319 64.8823 80.2308 64.9565 80.3639C65.0307 80.4971 65.05 80.6539 65.0101 80.8011L59.9982 99.4465C59.964 99.574 59.8876 99.6861 59.7816 99.7646C59.6755 99.8431 59.546 99.8833 59.4141 99.8788ZM10.68 98.7105H58.9702L63.7367 81.0347L54.6125 78.3302L52.7784 83.9612C52.7388 84.0832 52.6601 84.1888 52.5545 84.2616C52.449 84.3345 52.3223 84.3705 52.1942 84.3643C52.066 84.36 51.9428 84.3136 51.8435 84.2323C51.7443 84.151 51.6746 84.0393 51.6451 83.9145C49.5481 75.1525 44.3493 66.0926 39.2791 66.0926H16.9536C16.1289 66.0934 15.3125 66.2566 14.551 66.5728C13.7894 66.8891 13.0976 67.3523 12.5151 67.936C11.9325 68.5196 11.4706 69.2123 11.1557 69.9744C10.8409 70.7366 10.6792 71.5533 10.68 72.3779V98.7105Z" fill="#093F68"/>
<path d="M41.6629 99.8786C41.5238 99.8806 41.3885 99.8328 41.2814 99.744C41.1743 99.6551 41.1025 99.5309 41.0788 99.3937L38.3743 83.6222C38.3488 83.4704 38.3842 83.3148 38.4728 83.189C38.5614 83.0633 38.696 82.9775 38.8474 82.9504C38.929 82.9326 39.0134 82.9325 39.095 82.9501C39.1766 82.9677 39.2535 83.0026 39.3205 83.0524C39.3874 83.1023 39.443 83.1659 39.4833 83.2389C39.5236 83.312 39.5478 83.3929 39.5542 83.4761L42.2588 99.2477C42.2722 99.3237 42.2704 99.4016 42.2535 99.4768C42.2366 99.5521 42.205 99.6233 42.1605 99.6863C42.116 99.7493 42.0594 99.8029 41.994 99.8439C41.9287 99.8849 41.8559 99.9126 41.7798 99.9253L41.6629 99.8786Z" fill="#093F68"/>
<path d="M39.2848 41.2963C36.8139 40.3967 32.8594 40.8348 32.8594 46.092C32.8594 48.9367 34.6118 51.3784 37.1878 51.5712" fill="#FFC9B0"/>
<path d="M37.2172 52.155H37.1763C34.3608 51.9447 32.3105 49.3979 32.3047 46.0917C32.3047 43.2411 33.4204 41.8509 34.3667 41.1908C35.9672 40.0635 38.0759 40.2212 39.5129 40.7469C39.6543 40.8026 39.7685 40.9114 39.8311 41.0499C39.8937 41.1885 39.8998 41.3461 39.848 41.489C39.7963 41.632 39.6909 41.7492 39.5541 41.8157C39.4174 41.8822 39.2601 41.8927 39.1157 41.8451C37.9474 41.4187 36.2709 41.2609 35.0267 42.143C33.9811 42.879 33.4554 44.205 33.4613 46.0917C33.4613 48.767 35.0618 50.829 37.2464 50.9867C37.4014 50.9922 37.5478 51.0589 37.6535 51.1723C37.7592 51.2857 37.8156 51.4364 37.8101 51.5913C37.8047 51.7462 37.738 51.8927 37.6246 51.9984C37.5112 52.1041 37.3605 52.1604 37.2056 52.155H37.2172Z" fill="#093F68"/>
<path d="M44.4138 43.2817C44.988 43.2817 45.4535 42.8161 45.4535 42.2419C45.4535 41.6677 44.988 41.2021 44.4138 41.2021C43.8395 41.2021 43.374 41.6677 43.374 42.2419C43.374 42.8161 43.8395 43.2817 44.4138 43.2817Z" fill="#093F68"/>
<path d="M46.6091 40.2507C46.3703 40.2484 46.1379 40.173 45.9432 40.0345C45.9023 40.0345 44.1908 38.8312 42.8006 39.6257C42.5336 39.7653 42.223 39.7964 41.9336 39.7125C41.6442 39.6285 41.3984 39.436 41.2476 39.1751C41.0968 38.9142 41.0527 38.6052 41.1244 38.3125C41.1961 38.0199 41.378 37.7662 41.6323 37.6046C44.3193 36.0508 47.1757 38.0427 47.2984 38.1303C47.4235 38.2192 47.5298 38.332 47.6113 38.462C47.6928 38.5921 47.7479 38.7369 47.7734 38.8883C47.7989 39.0396 47.7943 39.1945 47.7599 39.3441C47.7255 39.4936 47.662 39.635 47.573 39.76C47.4637 39.9134 47.3191 40.0382 47.1513 40.1236C46.9834 40.209 46.7974 40.2526 46.6091 40.2507Z" fill="#093F68"/>
<path d="M40.4238 56.6353C39.6498 56.6311 38.9079 56.3251 38.3559 55.7825C38.2514 55.6679 38.1966 55.5164 38.2037 55.3614C38.2109 55.2064 38.2793 55.0605 38.3939 54.956C38.5086 54.8514 38.66 54.7966 38.8151 54.8038C38.9701 54.8109 39.1159 54.8793 39.2205 54.9939C39.349 55.1283 40.4822 56.2206 42.3456 54.5441C42.4027 54.4927 42.4694 54.4531 42.5419 54.4275C42.6144 54.4019 42.6912 54.3908 42.7679 54.3949C42.8447 54.3989 42.9199 54.4181 42.9892 54.4512C43.0586 54.4843 43.1207 54.5308 43.1721 54.5879C43.2235 54.6451 43.2631 54.7118 43.2888 54.7843C43.3144 54.8567 43.3255 54.9335 43.3214 55.0103C43.3173 55.0871 43.2982 55.1623 43.265 55.2316C43.2319 55.301 43.1854 55.3631 43.1283 55.4145C42.4115 56.1457 41.4463 56.5814 40.4238 56.6353Z" fill="#093F68"/>
<path d="M55.6055 95.6146C55.4759 95.6202 55.3482 95.5824 55.2424 95.5073C55.1367 95.4322 55.0589 95.3241 55.0214 95.1999L51.6393 83.9495C51.617 83.8759 51.6095 83.7986 51.6171 83.722C51.6248 83.6455 51.6474 83.5712 51.6837 83.5034C51.7201 83.4356 51.7694 83.3756 51.8289 83.3269C51.8885 83.2781 51.957 83.2416 52.0307 83.2194C52.1043 83.1971 52.1816 83.1896 52.2581 83.1972C52.3347 83.2049 52.409 83.2275 52.4768 83.2638C52.5446 83.3002 52.6046 83.3495 52.6533 83.409C52.702 83.4686 52.7386 83.5371 52.7608 83.6107L56.1429 94.8611C56.1654 94.9348 56.1731 95.0121 56.1656 95.0887C56.1581 95.1653 56.1355 95.2397 56.0991 95.3076C56.0627 95.3754 56.0133 95.4354 55.9536 95.4841C55.894 95.5328 55.8253 95.5692 55.7516 95.5913C55.7037 95.6033 55.6548 95.6111 55.6055 95.6146Z" fill="#093F68"/>
<path d="M16.6492 99.879C16.5038 99.8798 16.3635 99.8263 16.2555 99.7291C16.1474 99.6319 16.0796 99.4979 16.065 99.3533L14.4353 82.4602C14.4206 82.307 14.4669 82.1542 14.5643 82.0349C14.6616 81.9157 14.8021 81.8397 14.9552 81.8235C15.0319 81.8154 15.1096 81.8227 15.1835 81.8448C15.2575 81.8669 15.3263 81.9035 15.3861 81.9523C15.4458 82.0012 15.4953 82.0615 15.5316 82.1296C15.568 82.1977 15.5904 82.2724 15.5977 82.3492L17.2333 99.2482C17.2414 99.3249 17.2341 99.4026 17.212 99.4765C17.1899 99.5505 17.1533 99.6193 17.1044 99.6791C17.0556 99.7388 16.9953 99.7883 16.9272 99.8246C16.8591 99.861 16.7844 99.8834 16.7076 99.8907L16.6492 99.879Z" fill="#093F68"/>
</svg>
