<svg width="155" height="100" viewBox="0 0 155 100" fill="none" xmlns="http://www.w3.org/2000/svg">
<path d="M63.6139 71.8533L62.0243 84.2297C58.1023 84.4552 48.9878 80.8523 44.2517 77.7115L43.6631 99.45H6.25884C6.25884 99.45 3.20599 69.8346 10.2688 59.4054C12.8156 55.6374 17.6396 54.3393 22.7442 54.2183C23.7013 54.2183 24.6695 54.2183 25.6376 54.2623C29.4638 54.5225 33.2574 55.1394 36.9689 56.105C36.9689 56.105 40.4618 57.5131 45.7699 60.0159C51.54 62.7607 59.0484 70.6542 63.6139 71.8533Z" fill="#78DDD1"/>
<path d="M43.6364 99.9998H6.23214C6.0953 100 5.96312 99.9501 5.86141 99.8586C5.7597 99.7671 5.69576 99.6409 5.68207 99.5047C5.55556 98.2891 2.68973 69.5703 9.78004 59.0971C12.1178 55.6427 16.4633 53.8165 22.701 53.668C23.6471 53.668 24.6317 53.668 25.6329 53.712C29.4959 53.9769 33.326 54.5993 37.0742 55.5712H37.1402C37.1787 55.5712 40.7101 57.0124 45.9412 59.4931C48.6915 60.8023 51.7994 63.2171 54.7972 65.5438C58.1856 68.1841 61.398 70.6814 63.7027 71.292C63.8307 71.3268 63.9418 71.4066 64.0156 71.5167C64.0893 71.6269 64.1209 71.76 64.1043 71.8916L62.5146 84.268C62.4994 84.3958 62.4399 84.5142 62.3464 84.6026C62.253 84.6911 62.1315 84.7439 62.003 84.752C58.1526 84.9721 49.6761 81.7047 44.7201 78.6683L44.17 99.4332C44.1722 99.5055 44.1601 99.5774 44.1345 99.645C44.1089 99.7126 44.0702 99.7745 44.0206 99.8271C43.9711 99.8797 43.9116 99.922 43.8457 99.9517C43.7798 99.9813 43.7087 99.9977 43.6364 99.9998ZM6.73819 98.8997H43.1029L43.6529 77.7002C43.6557 77.602 43.6847 77.5064 43.7369 77.4232C43.7892 77.34 43.8627 77.2723 43.95 77.2272C44.036 77.183 44.1321 77.1623 44.2287 77.1671C44.3253 77.172 44.4189 77.2022 44.5 77.2547C48.9665 80.214 57.432 83.6299 61.486 83.6904L62.9547 72.2436C60.4904 71.4075 57.3935 68.9927 54.1206 66.4404C51.1723 64.1412 48.1194 61.7649 45.4681 60.5108C40.5176 58.173 37.1237 56.7813 36.7496 56.6273C33.0824 55.6779 29.3352 55.0702 25.5559 54.8121C24.5877 54.7626 23.6251 54.7461 22.7065 54.7681C16.8484 54.9056 12.8054 56.5668 10.6766 59.7187C4.32892 69.1247 6.40816 94.9942 6.73819 98.8997Z" fill="#093F68"/>
<path d="M117.015 49.4546H53.9834V99.4498H117.015V49.4546Z" fill="white"/>
<path d="M117.014 99.9998H53.9827C53.8368 99.9998 53.6969 99.9418 53.5937 99.8387C53.4906 99.7355 53.4326 99.5956 53.4326 99.4497V49.449C53.4326 49.3031 53.4906 49.1632 53.5937 49.06C53.6969 48.9569 53.8368 48.8989 53.9827 48.8989H117.014C117.16 48.8989 117.3 48.9569 117.403 49.06C117.507 49.1632 117.564 49.3031 117.564 49.449V99.4497C117.564 99.5956 117.507 99.7355 117.403 99.8387C117.3 99.9418 117.16 99.9998 117.014 99.9998ZM54.5327 98.8997H116.464V49.9991H54.5327V98.8997Z" fill="#093F68"/>
<path d="M36.9473 56.105L30.5501 86.2099L22.7227 54.2183C23.6798 54.2183 24.6479 54.2183 25.616 54.2623C29.4422 54.5225 33.2358 55.1394 36.9473 56.105Z" fill="white"/>
<path d="M30.5516 86.7598C30.4252 86.7632 30.3015 86.7229 30.2013 86.6457C30.1011 86.5686 30.0306 86.4593 30.0015 86.3362L22.1906 54.3445C22.1718 54.265 22.1709 54.1823 22.188 54.1023C22.2051 54.0224 22.2398 53.9473 22.2896 53.8825C22.3397 53.8174 22.4038 53.7643 22.4771 53.7272C22.5504 53.6901 22.6311 53.6698 22.7132 53.668C23.6593 53.668 24.6439 53.668 25.645 53.712C29.5081 53.9769 33.3382 54.5993 37.0863 55.5712C37.2242 55.6064 37.3431 55.6937 37.418 55.8147C37.4929 55.9358 37.5179 56.0811 37.4879 56.2203L31.0907 86.3032C31.0638 86.4283 30.9942 86.5402 30.8938 86.6195C30.7934 86.6988 30.6685 86.7406 30.5406 86.7378L30.5516 86.7598ZM23.4008 54.7571L30.4911 83.7399L36.2778 56.5063C32.7634 55.6247 29.1775 55.0578 25.5625 54.8121C24.8529 54.7736 24.1324 54.7516 23.4228 54.7571H23.4008Z" fill="#093F68"/>
<path d="M27.4688 53.1636L33.784 53.7483L33.4477 57.3797C33.382 58.09 33.0367 58.7452 32.4879 59.2009C31.9391 59.6567 31.2317 59.8758 30.5214 59.8101L29.5684 59.7218C28.858 59.656 28.2029 59.3108 27.7471 58.762C27.2913 58.2132 27.0722 57.5058 27.138 56.7955L27.4742 53.1641L27.4688 53.1636Z" fill="#FFC9B0"/>
<path d="M30.7707 60.368C30.6699 60.3734 30.5689 60.3734 30.4681 60.368L29.5165 60.2799C28.6605 60.2004 27.871 59.7845 27.3213 59.1234C26.7716 58.4624 26.5067 57.6102 26.5847 56.754L26.9257 53.1181C26.9397 52.974 27.0099 52.8413 27.1211 52.7486C27.2323 52.6559 27.3756 52.6108 27.5198 52.6231L33.8345 53.2061C33.9796 53.2201 34.1133 53.291 34.2061 53.4035C34.299 53.5159 34.3434 53.6606 34.3296 53.8057L33.994 57.4361C33.9174 58.2381 33.5448 58.9828 32.9488 59.5248C32.3528 60.0669 31.5763 60.3675 30.7707 60.368ZM27.9708 53.7672L27.6848 56.8531C27.6565 57.1335 27.6848 57.4167 27.768 57.6859C27.8511 57.9552 27.9874 58.2051 28.1689 58.4207C28.3476 58.6373 28.5675 58.8164 28.8158 58.9476C29.0641 59.0788 29.3359 59.1596 29.6155 59.1853L30.5726 59.2733C30.8526 59.2991 31.1348 59.2694 31.4033 59.186C31.6717 59.1026 31.9211 58.9671 32.1372 58.7873C32.3533 58.6075 32.5318 58.3869 32.6626 58.1381C32.7934 57.8892 32.8739 57.6171 32.8994 57.3371L33.1854 54.2513L27.9708 53.7672Z" fill="#093F68"/>
<path d="M10.5832 35.3283C9.85158 34.1237 9.48304 32.215 9.098 31.0653C7.90132 27.2189 7.25501 23.2225 7.17828 19.195C7.07927 13.9639 8.61394 9.17831 13.6965 6.97806C16.2048 5.87793 19.4227 5.66341 21.3974 7.52812C20.8969 7.06057 23.7902 3.8977 24.1807 3.49616C25.3964 2.24201 26.8265 1.74146 28.5207 1.2959C32.7011 0.152608 37.1248 0.259136 41.2453 1.60232C45.3658 2.94551 49.0024 5.46649 51.7059 8.85377C52.74 10.1354 53.6916 11.4776 54.7092 12.7537C55.1493 13.3038 55.2978 14.0739 55.7654 14.6019C56.3154 15.2565 57.1295 15.383 57.7951 15.8726C59.0547 16.7967 59.3078 17.6493 59.3023 19.305C59.3023 25.0916 54.4507 40.0259 54.4507 40.0259L50.6003 38.9807C48.9831 38.5407 46.8928 38.7552 45.2316 38.6507L32.9872 37.8971C27.0631 37.5341 21.1114 38.5352 15.2367 37.3471C14.0706 37.1105 12.0628 36.8355 11.1387 36.0104C10.9208 35.8118 10.7336 35.5819 10.5832 35.3283Z" fill="#FFD705"/>
<path d="M54.4723 40.5929C54.4248 40.5983 54.3768 40.5983 54.3293 40.5929L50.4788 39.5423C49.3267 39.3063 48.1498 39.2139 46.9749 39.2672C46.3589 39.2672 45.7758 39.2672 45.2202 39.2342L32.9483 38.4476C30.7096 38.3101 28.4103 38.3706 26.1936 38.4476C22.5631 38.5466 18.8117 38.6457 15.1263 37.8976L14.6147 37.7986C13.3771 37.5675 11.6829 37.2485 10.7643 36.4344C10.5044 36.1958 10.2819 35.9195 10.1042 35.6148C9.5345 34.5302 9.10742 33.3765 8.83356 32.1824C8.74005 31.8304 8.65204 31.5058 8.56403 31.2308C7.35048 27.3404 6.69488 23.2975 6.6168 19.2229C6.49579 12.7982 8.81706 8.51319 13.4651 6.49446C15.7369 5.51535 18.8062 5.0918 21.067 6.58797C21.8591 5.34421 22.781 4.18809 23.8173 3.13907C25.1869 1.73091 26.8371 1.20285 28.4103 0.784803C33.0026 -0.441573 37.8609 -0.226499 42.3269 1.40088C46.1922 2.85298 49.5926 5.3239 52.1675 8.5517C52.7176 9.22828 53.2677 9.93236 53.7627 10.6144C54.2578 11.2965 54.6923 11.8466 55.1764 12.4516C55.3981 12.7628 55.5827 13.0988 55.7265 13.4528C55.8435 13.7492 56.0028 14.0271 56.1995 14.2779C56.4888 14.568 56.8354 14.7947 57.2171 14.9434C57.5426 15.0958 57.8521 15.2801 58.1412 15.4935C59.6099 16.5936 59.8794 17.6442 59.8739 19.3439C59.8739 25.1526 55.1929 39.6248 54.9949 40.2463C54.9534 40.3505 54.8812 40.4394 54.7878 40.5014C54.6944 40.5633 54.5843 40.5952 54.4723 40.5929ZM50.7649 38.4476L54.1093 39.3552C54.9454 36.7149 58.7683 24.344 58.7738 19.2999C58.7738 17.7928 58.5868 17.0997 57.4922 16.3076C57.2534 16.1485 57.0012 16.0105 56.7386 15.895C56.2223 15.6883 55.7542 15.3775 55.3634 14.9819C55.0947 14.6487 54.876 14.2781 54.7143 13.8818C54.6048 13.609 54.4625 13.3504 54.2908 13.1117C53.8067 12.4957 53.3337 11.8741 52.8606 11.247C52.3876 10.6199 51.8265 9.87735 51.2874 9.21177C48.6517 5.90674 45.1049 3.44702 41.0857 2.13694C37.0665 0.826873 32.7514 0.723955 28.6743 1.84093C26.8921 2.31948 25.649 2.80904 24.5819 3.89816C23.7128 4.79477 22.0956 6.73649 21.9141 7.33606C21.9621 7.45178 21.9692 7.58043 21.9342 7.70074C21.8992 7.82105 21.8242 7.9258 21.7215 7.99765C21.6189 8.06951 21.4947 8.10417 21.3697 8.09589C21.2447 8.08761 21.1262 8.03689 21.034 7.95213C19.1252 6.16442 16.0009 6.59347 13.8831 7.50107C9.70816 9.33279 7.61792 13.2657 7.72793 19.1954C7.80065 23.164 8.43967 27.1019 9.62565 30.8898C9.71366 31.1813 9.80717 31.5168 9.90618 31.8799C10.1539 32.9743 10.5383 34.0332 11.0503 35.0317C11.1708 35.2377 11.323 35.4233 11.5014 35.5818C12.1834 36.1924 13.7676 36.4949 14.8017 36.6819L15.3518 36.7809C18.9162 37.507 22.6016 37.408 26.1661 37.331C28.4103 37.2705 30.7316 37.21 33.0253 37.331L45.2918 38.0791C45.8143 38.1121 46.3919 38.1176 46.9804 38.1121C48.252 38.0547 49.5256 38.1601 50.7704 38.4256L50.7649 38.4476Z" fill="#093F68"/>
<path d="M20.1001 37.4569C20.3704 34.5378 17.843 31.9171 14.455 31.6034C11.0671 31.2897 8.10147 33.4018 7.83119 36.3209C7.5609 39.24 10.0883 41.8607 13.4763 42.1744C16.8642 42.4881 19.8298 40.376 20.1001 37.4569Z" fill="#FFC9B0"/>
<path d="M14.1359 42.7548C13.9012 42.7548 13.6647 42.7438 13.4263 42.7218C11.7077 42.5805 10.0962 41.8294 8.8828 40.6041C8.31759 40.0409 7.88166 39.3615 7.60526 38.6131C7.32885 37.8646 7.21859 37.0649 7.28211 36.2696C7.57914 33.0517 10.819 30.7084 14.5044 31.055C18.1899 31.4015 20.9402 34.2894 20.6431 37.5072C20.3681 40.5106 17.5188 42.7548 14.1359 42.7548ZM13.7894 32.1221C10.973 32.1221 8.60226 33.9318 8.37674 36.3686C8.32769 37.0067 8.41844 37.6479 8.64264 38.2474C8.86685 38.8468 9.21912 39.3902 9.67489 39.8395C10.7046 40.8748 12.07 41.5087 13.5253 41.6272C16.6057 41.9077 19.3065 40.0155 19.576 37.4027C19.8181 34.7899 17.5078 32.4521 14.4274 32.1496C14.1964 32.1331 13.9929 32.1221 13.7894 32.1221Z" fill="#093F68"/>
<path d="M55.8638 40.7689C56.1341 37.8498 53.6067 35.2291 50.2187 34.9154C46.8307 34.6018 43.8651 36.7138 43.5949 39.6329C43.3246 42.5521 45.852 45.1728 49.2399 45.4865C52.6279 45.8002 55.5935 43.688 55.8638 40.7689Z" fill="#FFC9B0"/>
<path d="M49.8899 46.0604C49.6589 46.0604 49.4168 46.0604 49.1803 46.0274C47.4625 45.8931 45.8511 45.143 44.6423 43.9152C44.0673 43.3586 43.6244 42.6801 43.3463 41.9296C43.0682 41.1792 42.9619 40.376 43.0352 39.5791C43.1086 38.7822 43.3597 38.0118 43.7702 37.3248C44.1806 36.6378 44.7399 36.0515 45.4069 35.6092C46.8316 34.6391 48.5497 34.1952 50.2661 34.3538C51.9824 34.5123 53.5901 35.2635 54.8129 36.4783C55.3791 37.041 55.8161 37.7202 56.0934 38.4687C56.3708 39.2172 56.4819 40.0171 56.4191 40.8128C56.1221 43.8217 53.2728 46.0604 49.8899 46.0604ZM49.5378 35.4277C48.2875 35.4223 47.0665 35.8068 46.0449 36.5278C45.5143 36.8821 45.0699 37.351 44.7446 37.8999C44.4193 38.4489 44.2214 39.0638 44.1654 39.6994C44.1095 40.335 44.1969 40.9751 44.4213 41.5724C44.6457 42.1697 45.0013 42.709 45.4619 43.1506C46.4882 44.1899 47.8558 44.823 49.3123 44.9328C52.3927 45.2188 55.099 43.3266 55.363 40.7138C55.4113 40.0753 55.3197 39.4339 55.0946 38.8344C54.8694 38.2349 54.5161 37.6918 54.0594 37.2429C53.0331 36.2036 51.6654 35.5705 50.2089 35.4607C49.986 35.4371 49.762 35.4261 49.5378 35.4277Z" fill="#093F68"/>
<path d="M30.4124 55.7797C27.9828 55.556 25.6211 54.8557 23.4622 53.7188C21.3033 52.5819 19.3897 51.0307 17.8306 49.1539C16.2715 47.2771 15.0976 45.1114 14.3759 42.7807C13.6542 40.45 13.3989 37.9998 13.6245 35.5704L14.8676 22.1434C15.7863 24.0191 19.4387 23.645 25.5389 15.1025C44.318 26.9069 52.2059 21.8683 52.2059 21.8683L50.6218 38.9973C50.1672 43.9026 47.7826 48.4265 43.9927 51.5738C40.2028 54.7211 35.3178 56.234 30.4124 55.7797Z" fill="#FFC9B0"/>
<path d="M32.1569 56.4126C31.5629 56.4126 30.9633 56.4126 30.3637 56.3301C25.3118 55.8629 20.6524 53.4082 17.4102 49.5059C14.1681 45.6035 12.6088 40.5732 13.0752 35.5212L14.3184 22.0942C14.328 21.9734 14.3772 21.8593 14.4583 21.7693C14.5394 21.6794 14.6479 21.6188 14.767 21.5968C14.8862 21.5749 15.0092 21.5929 15.117 21.648C15.2249 21.7031 15.3115 21.7923 15.3635 21.9016C15.4438 22.0779 15.5719 22.228 15.7333 22.335C15.8948 22.442 16.083 22.5015 16.2766 22.5067C17.0137 22.5727 19.8025 22.1932 25.0776 14.8058C25.1588 14.6907 25.2811 14.6111 25.4193 14.5834C25.5574 14.5558 25.7009 14.5822 25.8202 14.6573C44.0933 26.1481 51.8217 21.4781 51.8987 21.4286C51.9852 21.374 52.0853 21.3446 52.1876 21.3438C52.2899 21.3429 52.3905 21.3706 52.4779 21.4238C52.5653 21.4769 52.6362 21.5534 52.6826 21.6446C52.7289 21.7359 52.7489 21.8382 52.7403 21.9402L51.1561 39.0691C50.7179 43.8107 48.5266 48.2183 45.0108 51.4299C41.4951 54.6415 36.9077 56.4261 32.1459 56.4346L32.1569 56.4126ZM15.3085 23.3593L14.1754 35.6257C13.9565 37.9829 14.2043 40.3601 14.9044 42.6215C15.6046 44.8829 16.7435 46.9841 18.2561 48.8052C19.7686 50.6263 21.6252 52.1315 23.7196 53.2348C25.8141 54.3382 28.1054 55.018 30.4627 55.2355C35.2214 55.6685 39.9577 54.1973 43.6335 51.1443C47.3093 48.0912 49.6248 43.7054 50.0725 38.9481L51.5687 22.7707C48.9779 23.7444 40.9029 25.2845 25.6827 15.84C21.8982 21.0491 18.5319 23.7994 16.1886 23.6068C15.8815 23.5848 15.582 23.5006 15.3085 23.3593Z" fill="#093F68"/>
<path d="M28.5205 36.8907C29.4714 36.8907 30.2422 36.1198 30.2422 35.169C30.2422 34.2181 29.4714 33.4473 28.5205 33.4473C27.5697 33.4473 26.7988 34.2181 26.7988 35.169C26.7988 36.1198 27.5697 36.8907 28.5205 36.8907Z" fill="#093F68"/>
<path d="M43.1973 37.9639C44.1482 37.9639 44.919 37.1931 44.919 36.2422C44.919 35.2913 44.1482 34.5205 43.1973 34.5205C42.2464 34.5205 41.4756 35.2913 41.4756 36.2422C41.4756 37.1931 42.2464 37.9639 43.1973 37.9639Z" fill="#093F68"/>
<path d="M33.8446 42.3968C33.0533 42.3798 32.2667 42.269 31.5014 42.0668C31.3606 42.0281 31.2409 41.9351 31.1687 41.8082C31.0965 41.6814 31.0777 41.531 31.1163 41.3902C31.155 41.2494 31.248 41.1298 31.3749 41.0576C31.5018 40.9854 31.6521 40.9665 31.7929 41.0052C32.6132 41.2271 33.4637 41.3162 34.3122 41.2692C34.4552 40.7741 33.9767 38.8929 33.2451 37.1052C33.2173 37.0381 33.2031 36.9661 33.2032 36.8934C33.2034 36.8208 33.218 36.7489 33.2461 36.6819C33.2743 36.6149 33.3154 36.5541 33.3671 36.5031C33.4189 36.4521 33.4802 36.4118 33.5476 36.3846C33.6826 36.3302 33.8336 36.3315 33.9676 36.3882C34.1017 36.4449 34.2078 36.5524 34.2627 36.6872C34.7578 37.8918 35.8414 40.8181 35.2473 41.8688C35.1789 41.9947 35.0822 42.1029 34.9648 42.185C34.8474 42.2671 34.7125 42.3208 34.5707 42.3418C34.3306 42.3797 34.0878 42.3981 33.8446 42.3968Z" fill="#093F68"/>
<path d="M30.1874 29.0964H30.1214L21.9365 28.6124C21.6447 28.5949 21.3719 28.4622 21.1779 28.2435C20.984 28.0248 20.8849 27.738 20.9024 27.4463C20.9199 27.1545 21.0526 26.8816 21.2713 26.6877C21.49 26.4937 21.7767 26.3946 22.0685 26.4121L30.2534 26.8962C30.5452 26.9049 30.8216 27.0292 31.0217 27.2417C31.2218 27.4543 31.3293 27.7375 31.3206 28.0293C31.3118 28.3211 31.1875 28.5974 30.975 28.7976C30.7625 28.9977 30.4792 29.1052 30.1874 29.0964Z" fill="#093F68"/>
<path d="M46.6067 30.8403C46.5592 30.8459 46.5112 30.8459 46.4637 30.8403L38.3282 29.7401C38.0365 29.7015 37.772 29.5485 37.593 29.3149C37.414 29.0812 37.3352 28.786 37.3739 28.4943C37.4125 28.2025 37.5655 27.938 37.7992 27.759C38.0328 27.5801 38.328 27.5012 38.6198 27.5399L46.7497 28.64C46.8942 28.6494 47.0354 28.6872 47.1653 28.7511C47.2951 28.8151 47.4112 28.904 47.5067 29.0128C47.6022 29.1216 47.6753 29.2481 47.7219 29.3852C47.7686 29.5223 47.7877 29.6672 47.7783 29.8117C47.7689 29.9561 47.7312 30.0973 47.6672 30.2272C47.6033 30.3571 47.5143 30.4731 47.4055 30.5686C47.2967 30.6641 47.1702 30.7373 47.0331 30.7839C46.8961 30.8305 46.7512 30.8497 46.6067 30.8403Z" fill="#093F68"/>
<path d="M30.297 39.2724H30.0605L21.8095 38.5079C21.4966 38.4814 21.1922 38.3922 20.9144 38.2458C20.6366 38.0993 20.391 37.8985 20.1924 37.6553C19.9901 37.4153 19.8373 37.1377 19.7429 36.8384C19.6485 36.5391 19.6143 36.2241 19.6423 35.9116L20.1153 30.8125C20.1293 30.6673 20.2002 30.5337 20.3127 30.4408C20.4251 30.348 20.5698 30.3036 20.7149 30.3174L32.6018 31.4175C32.7459 31.4324 32.8783 31.5036 32.9703 31.6156C33.0167 31.6709 33.0518 31.7349 33.0735 31.8037C33.0952 31.8726 33.1031 31.9451 33.0968 32.0171L32.6238 37.1162C32.5702 37.7076 32.2971 38.2575 31.8583 38.6576C31.4195 39.0577 30.8468 39.279 30.253 39.2779L30.297 39.2724ZM21.2045 31.456L20.7809 36.0106C20.7508 36.3502 20.8555 36.6881 21.0725 36.9512C21.1808 37.0813 21.3139 37.1886 21.4641 37.267C21.6142 37.3453 21.7783 37.3932 21.9471 37.4077L30.198 38.1668C30.3663 38.1842 30.5364 38.1678 30.6982 38.1186C30.8601 38.0694 31.0105 37.9884 31.1407 37.8803C31.2708 37.7722 31.378 37.6392 31.4561 37.4891C31.5341 37.339 31.5814 37.1748 31.5952 37.0062L32.0187 32.4572L21.2045 31.456Z" fill="#093F68"/>
<path d="M45.0618 40.6478H44.8418L36.5908 39.8832C36.2822 39.8474 35.9837 39.7506 35.7127 39.5986C35.4418 39.4466 35.2036 39.2423 35.0121 38.9976C34.6052 38.5121 34.4074 37.8851 34.4621 37.2539L34.9351 32.1548C34.9413 32.0825 34.9618 32.0121 34.9954 31.9477C35.0289 31.8833 35.0749 31.8262 35.1306 31.7797C35.1864 31.7331 35.2508 31.6981 35.3201 31.6766C35.3895 31.655 35.4624 31.6475 35.5347 31.6543L47.4216 32.7544C47.5657 32.7693 47.6981 32.8405 47.7901 32.9524C47.8365 33.0078 47.8716 33.0717 47.8933 33.1406C47.915 33.2095 47.9229 33.282 47.9166 33.354L47.4436 38.4531C47.3964 39.0518 47.1248 39.6106 46.6831 40.0176C46.2415 40.4246 45.6624 40.6497 45.0618 40.6478ZM44.9408 39.5477C45.2795 39.5768 45.6161 39.4713 45.8776 39.2541C46.1391 39.0369 46.3045 38.7254 46.3379 38.387L46.7615 33.8325L35.9692 32.8369L35.5457 37.3859C35.5156 37.7256 35.6203 38.0635 35.8372 38.3265C35.9448 38.4576 36.0777 38.5656 36.228 38.644C36.3783 38.7225 36.5428 38.7698 36.7118 38.7831L44.9628 39.5477H44.9408Z" fill="#093F68"/>
<path d="M20.5293 33.3656H20.4798L12.4214 32.623C12.2762 32.609 12.1426 32.5381 12.0497 32.4256C11.9569 32.3132 11.9125 32.1685 11.9263 32.0234C11.9402 31.8783 12.0112 31.7446 12.1236 31.6518C12.236 31.559 12.3807 31.5146 12.5259 31.5283L20.5788 32.2709C20.651 32.2742 20.7219 32.2916 20.7874 32.3223C20.8529 32.3529 20.9117 32.3962 20.9605 32.4495C21.0093 32.5029 21.0471 32.5654 21.0717 32.6334C21.0963 32.7013 21.1073 32.7735 21.1041 32.8457C21.1008 32.918 21.0834 32.9889 21.0528 33.0544C21.0221 33.1199 20.9789 33.1787 20.9255 33.2275C20.8721 33.2762 20.8096 33.314 20.7417 33.3387C20.6737 33.3633 20.6015 33.3743 20.5293 33.3711V33.3656Z" fill="#093F68"/>
<path d="M50.1502 36.1042H50.1007L47.1634 35.8292C47.0911 35.8223 47.021 35.8013 46.9569 35.7673C46.8927 35.7333 46.836 35.687 46.7897 35.6311C46.7435 35.5752 46.7087 35.5107 46.6874 35.4413C46.6661 35.372 46.6587 35.2991 46.6656 35.2268C46.6724 35.1546 46.6934 35.0844 46.7274 35.0203C46.7614 34.9562 46.8077 34.8994 46.8636 34.8532C46.9196 34.807 46.984 34.7722 47.0534 34.7509C47.1228 34.7296 47.1956 34.7222 47.2679 34.729L50.1997 35.0041C50.3448 35.0167 50.479 35.0863 50.5728 35.1976C50.6666 35.309 50.7125 35.453 50.7003 35.5981C50.6892 35.7363 50.6264 35.8651 50.5244 35.9589C50.4224 36.0528 50.2888 36.1046 50.1502 36.1042Z" fill="#093F68"/>
<path d="M30.6986 48.6125C29.1166 48.647 27.551 48.2859 26.1441 47.5618C24.1583 46.4617 22.8437 44.6025 22.1891 41.9732C22.1647 41.8354 22.1937 41.6934 22.2703 41.5763C22.3468 41.4591 22.4652 41.3756 22.6012 41.3426C22.7372 41.3097 22.8807 41.3298 23.0024 41.3989C23.1241 41.468 23.2149 41.581 23.2562 41.7147C23.8063 44.0249 24.9669 45.6641 26.6666 46.5937C30.077 48.4529 34.6535 46.9018 34.6975 46.8853C34.8354 46.8371 34.9867 46.8457 35.1183 46.9092C35.2498 46.9726 35.3507 47.0857 35.3989 47.2236C35.447 47.3614 35.4384 47.5128 35.375 47.6443C35.3115 47.7758 35.1984 47.8767 35.0606 47.9249C33.65 48.3744 32.1791 48.6063 30.6986 48.6125Z" fill="#093F68"/>
<path d="M31.2279 59.4048H29.2587C28.5053 59.4048 27.8945 60.0155 27.8945 60.7689V61.737C27.8945 62.4905 28.5053 63.1012 29.2587 63.1012H31.2279C31.9813 63.1012 32.5921 62.4905 32.5921 61.737V60.7689C32.5921 60.0155 31.9813 59.4048 31.2279 59.4048Z" fill="#F56132"/>
<path d="M31.2272 63.6515H29.258C28.7503 63.6515 28.2634 63.4499 27.9044 63.0909C27.5454 62.7319 27.3438 62.245 27.3438 61.7373V60.7692C27.3438 60.2615 27.5454 59.7746 27.9044 59.4156C28.2634 59.0567 28.7503 58.855 29.258 58.855H31.2272C31.7349 58.855 32.2218 59.0567 32.5808 59.4156C32.9397 59.7746 33.1414 60.2615 33.1414 60.7692V61.7373C33.1414 62.245 32.9397 62.7319 32.5808 63.0909C32.2218 63.4499 31.7349 63.6515 31.2272 63.6515ZM29.258 59.9551C29.0421 59.9551 28.835 60.0409 28.6823 60.1935C28.5296 60.3462 28.4439 60.5533 28.4439 60.7692V61.7373C28.4439 61.9532 28.5296 62.1603 28.6823 62.313C28.835 62.4656 29.0421 62.5514 29.258 62.5514H31.2272C31.4431 62.5514 31.6502 62.4656 31.8028 62.313C31.9555 62.1603 32.0413 61.9532 32.0413 61.7373V60.7692C32.0413 60.5533 31.9555 60.3462 31.8028 60.1935C31.6502 60.0409 31.4431 59.9551 31.2272 59.9551H29.258Z" fill="#093F68"/>
<path d="M32.3318 74.1133L30.2416 85.5601L27.7168 75.23L28.8939 63.1011H31.5837L32.3318 74.1133Z" fill="#F56132"/>
<path d="M30.2421 86.1104C30.1165 86.1141 29.9934 86.0746 29.8933 85.9986C29.7932 85.9225 29.7222 85.8144 29.6921 85.6924L27.1673 75.3567C27.1565 75.2967 27.1565 75.2352 27.1673 75.1752L28.3499 63.0738C28.3623 62.9367 28.4257 62.8092 28.5275 62.7165C28.6294 62.6238 28.7623 62.5727 28.9 62.5732H31.5898C31.7301 62.573 31.8653 62.6264 31.9675 62.7225C32.0698 62.8186 32.1314 62.9502 32.1399 63.0903L32.8825 74.0916C32.8882 74.1372 32.8882 74.1834 32.8825 74.2291L30.7977 85.6759C30.7743 85.804 30.7061 85.9197 30.6054 86.0023C30.5047 86.0849 30.3779 86.1291 30.2476 86.1269L30.2421 86.1104ZM28.2729 75.1862L30.1651 82.9256L31.7768 74.0806L31.0727 63.6294H29.395L28.2729 75.1862Z" fill="#093F68"/>
<path d="M44.5603 77.5293H44.5053C44.3602 77.5154 44.2265 77.4444 44.1337 77.332C44.0409 77.2196 43.9965 77.0749 44.0103 76.9298L44.9124 67.5072C44.9189 67.4349 44.9396 67.3647 44.9732 67.3004C45.0069 67.2362 45.0528 67.1792 45.1085 67.1327C45.1642 67.0862 45.2285 67.0512 45.2977 67.0295C45.3669 67.0079 45.4397 67.0001 45.5119 67.0066C45.5842 67.0131 45.6544 67.0338 45.7187 67.0674C45.7829 67.1011 45.8399 67.1471 45.8864 67.2027C45.9329 67.2584 45.968 67.3227 45.9896 67.3919C46.0112 67.4611 46.019 67.5339 46.0125 67.6062L45.1214 77.0288C45.1089 77.1678 45.0439 77.2969 44.9398 77.3899C44.8356 77.4828 44.6999 77.5327 44.5603 77.5293Z" fill="#093F68"/>
<path d="M56.7441 64.2178L57.5967 77.5623L72.4649 76.5337L71.2218 62.8481L56.7441 64.2178Z" fill="#78DDD1"/>
<path d="M57.5916 78.1128C57.4605 78.1128 57.3337 78.066 57.2341 77.9807C57.1794 77.933 57.1347 77.8748 57.1026 77.8097C57.0705 77.7445 57.0517 77.6737 57.0471 77.6012L56.1945 64.2567C56.1853 64.1134 56.2325 63.9722 56.3261 63.8632C56.4196 63.7543 56.552 63.6862 56.695 63.6736L71.1672 62.3039C71.2397 62.2961 71.313 62.3028 71.3829 62.3236C71.4528 62.3444 71.5178 62.3788 71.5743 62.425C71.6855 62.5192 71.7547 62.6537 71.7668 62.799L73.0099 76.4846C73.0159 76.5573 73.0074 76.6305 72.9848 76.6999C72.9623 76.7692 72.9261 76.8335 72.8785 76.8887C72.8309 76.944 72.7728 76.9893 72.7075 77.0219C72.6423 77.0545 72.5712 77.0738 72.4984 77.0786L57.6467 78.1128H57.5916ZM57.3276 64.7187L58.1142 76.9796L71.8658 76.0225L70.7217 63.4481L57.3276 64.7187Z" fill="#093F68"/>
<path d="M49.7207 69.1193C49.7207 69.1193 54.0387 60.3183 55.9199 59.4052C57.4821 58.6406 60.7385 58.9706 61.8001 60.5438C61.9596 60.7844 62.0601 61.0592 62.0935 61.3459C62.127 61.6326 62.0924 61.9231 61.9926 62.194L63.4393 61.4459C64.1379 61.0829 64.9189 60.7143 65.678 60.8958C65.8174 60.9245 65.9478 60.9865 66.058 61.0765C66.1681 61.1666 66.2548 61.282 66.3106 61.4129C66.3611 61.5928 66.3611 61.7831 66.3106 61.963C65.9905 63.0301 65.4254 64.0077 64.6604 64.8178C64.0718 65.5109 63.1422 66.171 62.7187 66.974C62.3722 67.6286 62.2896 68.5417 62.0256 69.2458C61.5479 70.774 60.6294 72.1269 59.3853 73.1347C58.2852 73.9488 56.7505 74.0864 55.6834 74.8895C55.3864 75.115 53.2301 77.2437 53.2356 77.2492L49.7207 69.1193Z" fill="#FFC9B0"/>
<path d="M53.2194 77.827C53.1136 77.8268 53.0101 77.7961 52.9213 77.7385C52.8325 77.6809 52.7622 77.599 52.7188 77.5025C52.7019 77.4705 52.6872 77.4375 52.6748 77.4035L49.2149 69.3395C49.1814 69.2671 49.1641 69.1883 49.1641 69.1085C49.1641 69.0287 49.1814 68.9499 49.2149 68.8775C49.666 67.9589 53.6759 59.884 55.6672 58.9103C57.3504 58.0852 60.9698 58.3603 62.2679 60.236C62.4726 60.5407 62.6026 60.8893 62.6475 61.2536L63.1975 60.9676C64.0226 60.544 64.9027 60.148 65.8323 60.4175C66.0611 60.468 66.2736 60.575 66.4504 60.7287C66.6272 60.8825 66.7627 61.0781 66.8445 61.2976C66.9191 61.5694 66.9191 61.8564 66.8445 62.1282C66.5094 63.2853 65.9021 64.3454 65.0733 65.2196C64.827 65.4989 64.5663 65.7651 64.2922 66.0172C63.8634 66.3785 63.4924 66.8033 63.192 67.2768C63.0157 67.6595 62.8864 68.0621 62.807 68.4759C62.7354 68.8172 62.6417 69.1535 62.5265 69.4826C61.8169 71.3968 60.8763 72.7499 59.6936 73.6245C59.076 74.0338 58.4038 74.3542 57.6969 74.5761C57.0946 74.758 56.522 75.0267 55.9972 75.3737C55.7607 75.5553 53.8355 77.4475 53.6264 77.662C53.5746 77.7206 53.5108 77.7675 53.4394 77.7995C53.3687 77.8235 53.2938 77.8329 53.2194 77.827ZM50.3261 69.136L53.4064 76.3198C53.5549 76.1658 53.7365 75.9953 53.9565 75.7698C55.1281 74.6257 55.2876 74.5101 55.3481 74.4606C55.9596 74.0474 56.6287 73.7268 57.3339 73.509C57.9416 73.3209 58.5209 73.0507 59.0556 72.7059C60.0897 71.9468 60.8653 70.7917 61.5033 69.07C61.6032 68.7818 61.6859 68.4879 61.7509 68.1899C61.8478 67.6839 62.0086 67.1922 62.2294 66.7267C62.5785 66.1467 63.0186 65.6266 63.5331 65.1866C63.7785 64.9608 64.0117 64.7221 64.2317 64.4715C64.9424 63.7287 65.4698 62.8303 65.7718 61.8477C65.7857 61.7657 65.7857 61.6821 65.7718 61.6002C65.7098 61.5189 65.6195 61.4639 65.5188 61.4461C64.9687 61.2976 64.3307 61.5892 63.6761 61.9302L62.2294 62.6783C62.1297 62.7295 62.0168 62.749 61.9057 62.7343C61.7947 62.7195 61.6907 62.6712 61.6079 62.5958C61.5248 62.5217 61.4662 62.4243 61.4397 62.3163C61.4132 62.2083 61.42 62.0947 61.4593 61.9907C61.5295 61.8013 61.5541 61.598 61.5312 61.3974C61.5083 61.1967 61.4384 61.0042 61.3273 60.8356C60.4747 59.5704 57.5539 59.1854 56.1402 59.884C54.9411 60.4945 51.9872 65.7861 50.3261 69.136Z" fill="#093F68"/>
<path d="M13.9662 63.1011C13.9662 63.7226 33.0753 80.7031 33.8069 80.8461C34.5385 80.9891 49.7203 69.1188 49.7203 69.1188L53.2187 77.2762C53.2187 77.2762 40.8642 96.0939 31.6507 94.7022C22.4371 93.3105 10.5723 79.4159 10.5723 79.4159" fill="#78DDD1"/>
<path d="M32.6401 95.324C32.2811 95.3261 31.9225 95.3004 31.5675 95.247C22.2549 93.8388 10.6651 80.3458 10.1535 79.7737C10.1066 79.7188 10.0709 79.6552 10.0485 79.5865C10.0262 79.5178 10.0175 79.4454 10.0232 79.3734C10.0288 79.3014 10.0485 79.2312 10.0813 79.1668C10.114 79.1024 10.1591 79.0451 10.214 78.9981C10.2689 78.9512 10.3326 78.9155 10.4012 78.8931C10.4699 78.8708 10.5423 78.8621 10.6144 78.8677C10.6864 78.8734 10.7566 78.8931 10.821 78.9259C10.8854 78.9586 10.9427 79.0037 10.9896 79.0586C11.1106 79.1962 22.8215 92.8102 31.7325 94.1579C39.934 95.3955 51.1113 79.3997 52.5909 77.2214L49.4941 69.9936C34.6424 81.5889 34.0043 81.4514 33.6907 81.3799C33.1022 81.2589 27.6841 76.5173 23.2395 72.5789C13.4099 63.8219 13.4099 63.4368 13.4099 63.1233C13.4099 62.9774 13.4679 62.8375 13.571 62.7344C13.6742 62.6312 13.8141 62.5732 13.96 62.5732C14.0708 62.5736 14.1789 62.6074 14.2702 62.6702C14.3615 62.733 14.4316 62.8219 14.4715 62.9253C15.3901 64.2014 31.7655 78.8331 33.8613 80.2688C35.3684 79.5097 44.0484 72.8759 49.373 68.7174C49.4393 68.6642 49.517 68.6271 49.6001 68.609C49.6831 68.5908 49.7692 68.5922 49.8516 68.6129C49.9334 68.6342 50.0092 68.6741 50.0731 68.7294C50.1371 68.7847 50.1874 68.854 50.2201 68.932L53.713 77.0619C53.748 77.1455 53.7618 77.2364 53.7532 77.3266C53.7445 77.4169 53.7137 77.5035 53.6635 77.579C53.163 78.3326 41.9142 95.324 32.6401 95.324Z" fill="#093F68"/>
<path d="M64.2094 48.1174C63.617 48.728 63.2024 49.4887 63.0103 50.3176C62.7885 50.9672 62.7655 51.6681 62.9443 52.3308C63.0394 52.6589 63.2359 52.9484 63.5057 53.1579C63.7754 53.3674 64.1046 53.4861 64.446 53.497C64.6473 53.4945 64.8416 53.4226 64.996 53.2934C65.124 53.1622 65.2216 53.0045 65.2821 52.8314L66.0797 51.0327C65.8444 51.8153 65.8971 52.6563 66.2282 53.4035C66.2898 53.5733 66.3986 53.7222 66.5417 53.8325C66.7066 53.9333 66.8991 53.9795 67.0918 53.9645C67.7513 53.9449 68.381 53.6855 68.863 53.2349C69.345 52.7843 69.6461 52.1734 69.7101 51.5167C69.628 51.6645 69.5779 51.8278 69.5631 51.9961C69.5483 52.1644 69.5691 52.334 69.6241 52.4938C69.679 52.6536 69.767 52.8 69.8823 52.9235C69.9976 53.0471 70.1376 53.145 70.2931 53.2109C70.6171 53.3259 70.9634 53.3634 71.3044 53.3204C71.6454 53.2775 71.9716 53.1552 72.2569 52.9634C73.4725 52.2538 74.2371 50.6146 73.577 49.366C72.9169 48.1174 71.4098 47.8533 70.0731 47.7543C68.4064 47.6058 65.5186 46.8797 64.2094 48.1174Z" fill="#FFC9B0"/>
<path d="M67.0798 54.4929C66.7779 54.5026 66.4798 54.4242 66.2217 54.2674C65.995 54.0986 65.8198 53.87 65.7156 53.6073L65.6166 53.3598C65.5471 53.4771 65.462 53.5845 65.3636 53.6788C65.1148 53.8928 64.8004 54.0151 64.4725 54.0254C64.0111 54.0205 63.5632 53.8685 63.1942 53.5915C62.8252 53.3145 62.5542 52.9269 62.4207 52.4852C62.2002 51.7182 62.2213 50.902 62.4812 50.1474C62.699 49.2276 63.1674 48.386 63.8344 47.7162C65.072 46.55 67.2558 46.8306 69.016 47.0561C69.4065 47.1111 69.7751 47.1551 70.1161 47.1826C70.8752 47.2376 73.1745 47.4191 74.0656 49.0858C74.8962 50.6535 73.9501 52.5897 72.5364 53.4148C72.178 53.6554 71.7669 53.806 71.3379 53.8539C70.9089 53.9018 70.4747 53.8455 70.0721 53.6898C69.8663 53.602 69.6794 53.4749 69.522 53.3158C69.2251 53.6779 68.8528 53.9708 68.4309 54.1741C68.0091 54.3774 67.548 54.4862 67.0798 54.4929ZM66.0731 50.461C66.1387 50.4617 66.2037 50.4728 66.2657 50.494C66.3974 50.5426 66.5055 50.6398 66.5679 50.7656C66.6303 50.8914 66.6422 51.0363 66.6012 51.1706C66.4037 51.8276 66.4466 52.5335 66.7222 53.1618C66.748 53.2356 66.7893 53.3032 66.8432 53.3598C66.9165 53.3893 66.9957 53.4006 67.0743 53.3928C67.4762 53.3735 67.8652 53.2443 68.1988 53.0193C68.5324 52.7943 68.7979 52.4821 68.9665 52.1167C68.9463 51.7765 69.0455 51.4399 69.247 51.1651C69.3178 51.07 69.4175 51.0003 69.5311 50.9665C69.6447 50.9326 69.7662 50.9364 69.8775 50.9772C69.9888 51.018 70.0839 51.0937 70.1487 51.193C70.2136 51.2922 70.2445 51.4098 70.2371 51.5281C70.2222 51.7696 70.176 52.0081 70.0996 52.2377C70.1668 52.4345 70.3092 52.5966 70.4957 52.6887C70.739 52.7676 70.9975 52.7887 71.2504 52.7505C71.5034 52.7124 71.744 52.6159 71.9533 52.4687C72.9049 51.9186 73.6035 50.5985 73.0535 49.6029C72.6464 48.8383 71.6453 48.4037 69.9951 48.2772C69.6596 48.2772 69.269 48.2057 68.8565 48.1507C67.4098 47.9637 65.4296 47.7052 64.5715 48.5192C64.0538 49.0543 63.6907 49.7196 63.5209 50.4445C63.3278 50.9874 63.3029 51.5759 63.4493 52.1332C63.5101 52.3454 63.6334 52.5345 63.8031 52.6758C63.9729 52.8171 64.1812 52.904 64.401 52.9253C64.4735 52.9273 64.5448 52.9061 64.6045 52.8648C64.6695 52.7814 64.7214 52.6887 64.7585 52.5897L65.5506 50.7855C65.5954 50.6855 65.6692 50.6012 65.7623 50.5434C65.8554 50.4855 65.9636 50.4568 66.0731 50.461Z" fill="#093F68"/>
<path d="M96.2059 56.6108H81.7832V71.0335H96.2059V56.6108Z" fill="#F56132"/>
<path d="M96.206 71.5836H81.7669C81.621 71.5836 81.4811 71.5256 81.3779 71.4225C81.2747 71.3193 81.2168 71.1794 81.2168 71.0335V56.5999C81.2168 56.454 81.2747 56.3141 81.3779 56.2109C81.4811 56.1078 81.621 56.0498 81.7669 56.0498H96.195C96.3409 56.0498 96.4808 56.1078 96.584 56.2109C96.6871 56.3141 96.7451 56.454 96.7451 56.5999V71.0225C96.7465 71.0948 96.7338 71.1666 96.7075 71.2339C96.6811 71.3012 96.6418 71.3626 96.5918 71.4147C96.5417 71.4668 96.4819 71.5086 96.4157 71.5375C96.3495 71.5665 96.2783 71.5822 96.206 71.5836ZM82.3279 70.4835H95.656V57.1499H82.3169L82.3279 70.4835Z" fill="#093F68"/>
<path d="M78.4555 82.9087H69.1484V92.2158H78.4555V82.9087Z" fill="white"/>
<path d="M78.4658 92.7666H69.1477C69.0018 92.7666 68.8619 92.7086 68.7588 92.6055C68.6556 92.5023 68.5977 92.3624 68.5977 92.2165V82.9094C68.5977 82.7636 68.6556 82.6236 68.7588 82.5205C68.8619 82.4173 69.0018 82.3594 69.1477 82.3594H78.4658C78.6117 82.3594 78.7516 82.4173 78.8547 82.5205C78.9579 82.6236 79.0159 82.7636 79.0159 82.9094V92.2165C79.0159 92.3624 78.9579 92.5023 78.8547 92.6055C78.7516 92.7086 78.6117 92.7666 78.4658 92.7666ZM69.7088 91.6664H77.9157V83.4595H69.6978L69.7088 91.6664Z" fill="#093F68"/>
<path d="M111.403 75.6978H96.9805V90.1204H111.403V75.6978Z" fill="#FFBC0E"/>
<path d="M111.41 90.7037H96.9876C96.8417 90.7037 96.7018 90.6458 96.5986 90.5426C96.4954 90.4395 96.4375 90.2996 96.4375 90.1537V75.698C96.4375 75.5521 96.4954 75.4122 96.5986 75.3091C96.7018 75.2059 96.8417 75.1479 96.9876 75.1479H111.41C111.556 75.1479 111.696 75.2059 111.799 75.3091C111.902 75.4122 111.96 75.5521 111.96 75.698V90.1537C111.96 90.2996 111.902 90.4395 111.799 90.5426C111.696 90.6458 111.556 90.7037 111.41 90.7037ZM97.5376 89.6036H110.86V76.2481H97.5376V89.6036Z" fill="#093F68"/>
<path d="M99.9178 80.3511H85.4951V94.7737H99.9178V80.3511Z" fill="#70CC40"/>
<path d="M99.919 95.3245H85.4964C85.3505 95.3245 85.2106 95.2666 85.1074 95.1634C85.0042 95.0603 84.9463 94.9204 84.9463 94.7745V80.3518C84.9463 80.2059 85.0042 80.066 85.1074 79.9629C85.2106 79.8597 85.3505 79.8018 85.4964 79.8018H99.919C100.065 79.8018 100.205 79.8597 100.308 79.9629C100.411 80.066 100.469 80.2059 100.469 80.3518V94.7745C100.469 94.9204 100.411 95.0603 100.308 95.1634C100.205 95.2666 100.065 95.3245 99.919 95.3245ZM86.0464 94.2244H99.3689V80.9019H86.0464V94.2244Z" fill="#093F68"/>
<path d="M122.279 99.9995H0.550063C0.404177 99.9995 0.264266 99.9416 0.161109 99.8384C0.0579525 99.7353 0 99.5954 0 99.4495C0 99.3036 0.0579525 99.1637 0.161109 99.0605C0.264266 98.9574 0.404177 98.8994 0.550063 98.8994H122.279C122.425 98.8994 122.565 98.9574 122.668 99.0605C122.771 99.1637 122.829 99.3036 122.829 99.4495C122.829 99.5954 122.771 99.7353 122.668 99.8384C122.565 99.9416 122.425 99.9995 122.279 99.9995Z" fill="#093F68"/>
<path d="M111.41 55.8623H102.978V64.2948H111.41V55.8623Z" fill="white"/>
<path d="M111.41 64.8506H102.978C102.832 64.8506 102.692 64.7926 102.589 64.6895C102.486 64.5863 102.428 64.4464 102.428 64.3005V55.8626C102.428 55.7167 102.486 55.5768 102.589 55.4736C102.692 55.3705 102.832 55.3125 102.978 55.3125H111.41C111.556 55.3125 111.696 55.3705 111.799 55.4736C111.902 55.5768 111.96 55.7167 111.96 55.8626V64.3005C111.96 64.4464 111.902 64.5863 111.799 64.6895C111.696 64.7926 111.556 64.8506 111.41 64.8506ZM103.528 63.7505H110.86V56.4126H103.528V63.7505Z" fill="#DFEAEF"/>
<path d="M88.9948 58.2005C90.0975 58.2005 90.9915 57.3065 90.9915 56.2038C90.9915 55.101 90.0975 54.207 88.9948 54.207C87.892 54.207 86.998 55.101 86.998 56.2038C86.998 57.3065 87.892 58.2005 88.9948 58.2005Z" fill="#093F68"/>
<path d="M104.974 77.2762C106.077 77.2762 106.971 76.3822 106.971 75.2794C106.971 74.1767 106.077 73.2827 104.974 73.2827C103.872 73.2827 102.978 74.1767 102.978 75.2794C102.978 76.3822 103.872 77.2762 104.974 77.2762Z" fill="#093F68"/>
<path d="M107.192 57.5184C108.106 57.5184 108.848 56.7771 108.848 55.8627C108.848 54.9483 108.106 54.207 107.192 54.207C106.277 54.207 105.536 54.9483 105.536 55.8627C105.536 56.7771 106.277 57.5184 107.192 57.5184Z" fill="#093F68"/>
<path d="M92.7077 82.0398C93.8104 82.0398 94.7044 81.1459 94.7044 80.0431C94.7044 78.9403 93.8104 78.0464 92.7077 78.0464C91.6049 78.0464 90.7109 78.9403 90.7109 80.0431C90.7109 81.1459 91.6049 82.0398 92.7077 82.0398Z" fill="#093F68"/>
<path d="M73.8033 84.5484C74.7086 84.5484 75.4424 83.8145 75.4424 82.9092C75.4424 82.0039 74.7086 81.27 73.8033 81.27C72.898 81.27 72.1641 82.0039 72.1641 82.9092C72.1641 83.8145 72.898 84.5484 73.8033 84.5484Z" fill="#093F68"/>
</svg>
