<svg width="155" height="101" viewBox="0 0 155 101" fill="none" xmlns="http://www.w3.org/2000/svg">
<path d="M35.5297 19.1747C35.1913 19.0885 25.2572 11.4238 26.1597 6.65918L20.373 10.3953C20.373 10.3953 27.0091 20.3095 34.7865 20.4024L35.5297 19.1747Z" fill="#F56132"/>
<path d="M34.7862 21.0659C26.7434 20.973 20.1007 11.1848 19.822 10.7667C19.7726 10.6934 19.7385 10.611 19.7214 10.5243C19.7044 10.4375 19.7049 10.3483 19.7228 10.2617C19.7407 10.1752 19.7757 10.0931 19.8258 10.0203C19.8759 9.94748 19.94 9.8854 20.0144 9.8377L25.8077 6.10161C25.9154 6.03395 26.0404 5.99869 26.1676 6.00004C26.2948 6.00139 26.419 6.03928 26.5253 6.10922C26.6316 6.17915 26.7156 6.27817 26.7672 6.39448C26.8188 6.51078 26.8358 6.63948 26.8164 6.76522C26.0598 10.7468 34.607 17.8474 35.8015 18.5442C35.9587 18.6144 36.0824 18.7428 36.1466 18.9025C36.1851 18.9978 36.201 19.1008 36.1929 19.2033C36.1849 19.3058 36.1531 19.405 36.1002 19.4931L35.3636 20.7208C35.3068 20.8245 35.2234 20.9112 35.1219 20.9719C35.0203 21.0326 34.9045 21.065 34.7862 21.0659ZM21.3151 10.6008C22.7949 12.5917 28.263 19.4135 34.4212 19.7519L34.6469 19.3737C32.4437 17.7611 26.02 12.3063 25.4825 7.91325L21.3151 10.6008Z" fill="#093F68"/>
<path d="M34.4138 20.6284C34.4138 20.6284 22.8074 18.4717 18.4874 13.5278L17.1602 20.6284C17.1602 20.6284 29.1515 25.8377 34.4138 22.0219V20.6284Z" fill="#F56132"/>
<path d="M29.0661 24.0787C23.5316 24.0787 17.254 21.4242 16.8956 21.2384C16.7572 21.1792 16.6431 21.0747 16.572 20.942C16.5008 20.8094 16.4769 20.6565 16.5041 20.5085L17.8313 13.4079C17.8548 13.2847 17.9129 13.1706 17.9986 13.079C18.0843 12.9874 18.1943 12.922 18.3157 12.8903C18.4345 12.8599 18.5595 12.8631 18.6766 12.8994C18.7937 12.9357 18.8985 13.0038 18.9793 13.096C23.0738 17.8076 34.3882 19.9577 34.501 19.9776C34.6556 20.0059 34.7951 20.0881 34.8948 20.2096C34.9944 20.3311 35.0477 20.4841 35.0452 20.6412V22.0348C35.0447 22.14 35.0191 22.2437 34.9707 22.3372C34.9222 22.4306 34.8522 22.5112 34.7664 22.5723C33.0681 23.6524 31.0763 24.1787 29.0661 24.0787ZM17.9109 20.2231C20.1274 21.1057 29.3183 24.4768 33.7511 21.6698V21.1721C31.5281 20.7076 23.233 18.7698 18.9262 14.8944L17.9109 20.2231Z" fill="#093F68"/>
<path d="M8.6992 44.4443H47.0953C48.6208 44.4446 50.1009 44.9637 51.2924 45.9164C52.4838 46.8691 53.3158 48.1987 53.6517 49.6868L63.984 95.5617H11.8115L2.14281 52.6664C1.91604 51.6812 1.91463 50.6575 2.13866 49.6717C2.3627 48.6859 2.8064 47.7634 3.43668 46.973C4.06696 46.1826 4.86756 45.5447 5.77877 45.1069C6.68997 44.669 7.68827 44.4426 8.6992 44.4443Z" fill="#FFBC0E"/>
<path d="M63.9855 96.2519H11.8131C11.6597 96.2556 11.5097 96.2061 11.3887 96.1117C11.2677 96.0173 11.1832 95.8839 11.1494 95.7343L1.49402 52.8124C1.2453 51.7299 1.24417 50.6052 1.49071 49.5221C1.73725 48.4391 2.2251 47.4257 2.91788 46.5575C3.61067 45.6893 4.49051 44.9886 5.49181 44.5079C6.4931 44.0271 7.59001 43.7785 8.70075 43.7808H47.0968C48.776 43.7777 50.4054 44.3504 51.7133 45.4035C53.0211 46.4566 53.9284 47.9263 54.2836 49.5674L64.6159 95.4423C64.6378 95.5387 64.6378 95.6388 64.616 95.7353C64.5942 95.8317 64.5511 95.922 64.4899 95.9997C64.4295 96.0762 64.353 96.1384 64.2658 96.182C64.1786 96.2256 64.0829 96.2495 63.9855 96.2519ZM12.3373 94.9247H63.156L53.0029 49.8594C52.7059 48.5158 51.958 47.3144 50.8835 46.4549C49.8091 45.5953 48.4728 45.1294 47.0968 45.1345H8.70075C7.79186 45.1331 6.89432 45.3364 6.07477 45.7294C5.25521 46.1223 4.53468 46.6948 3.96667 47.4043C3.39866 48.1139 2.99775 48.9422 2.79371 49.8279C2.58967 50.7136 2.58774 51.6339 2.78805 52.5204L12.3373 94.9247Z" fill="#093F68"/>
<path d="M22.8215 90.638C22.669 90.6421 22.5197 90.5935 22.3989 90.5004C22.278 90.4074 22.1929 90.2755 22.1579 90.127C22.0849 89.8218 14.7056 59.2562 13.4249 53.8943C11.6199 46.2695 8.49428 45.1082 8.49428 45.1082C8.32838 45.0522 8.19134 44.9328 8.11303 44.7762C8.03472 44.6196 8.02149 44.4384 8.07622 44.2721C8.12963 44.1068 8.24572 43.969 8.39957 43.8884C8.55342 43.8077 8.73276 43.7906 8.89908 43.8407C9.05835 43.8872 12.7214 45.1215 14.7388 53.5957C16.0195 58.9509 23.3656 89.5165 23.4718 89.8284C23.5119 89.9982 23.4836 90.1769 23.3929 90.3259C23.3023 90.475 23.1566 90.5823 22.9874 90.6247L22.8215 90.638Z" fill="#093F68"/>
<path d="M84.7021 91.036C84.2176 87.7777 84.7883 85.1631 81.53 85.6475C78.0793 86.1585 73.8123 83.0728 70.3682 81.4668C67.8731 80.3055 62.7766 62.5475 62.04 60.4439C59.2595 52.4807 34.0957 48.9702 34.0957 48.9702C29.112 48.9702 23.3785 54.6241 21.1422 65.8523L19.9941 91.9385H61.3233L60.7526 85.1366C60.7526 85.1366 67.601 94.4934 78.4708 94.6659C80.9271 94.7027 83.3821 94.534 85.8103 94.1616C89.0686 93.6639 85.1865 94.2943 84.7021 91.036Z" fill="#1CD3C1"/>
<path d="M79.115 95.3362H78.4514C70.1033 95.2035 64.1309 89.9212 61.5827 87.1606L61.9808 91.8921C61.9885 91.9835 61.9771 92.0756 61.9474 92.1624C61.9177 92.2492 61.8703 92.3289 61.8083 92.3965C61.7456 92.464 61.6696 92.5178 61.5851 92.5543C61.5006 92.5909 61.4093 92.6094 61.3172 92.6088H19.9947C19.8187 92.6088 19.6499 92.5389 19.5254 92.4144C19.401 92.29 19.3311 92.1212 19.3311 91.9452L20.4791 65.859C20.4758 65.8259 20.4758 65.7925 20.4791 65.7594C22.8747 53.7217 29.0396 48.3398 34.0829 48.3398H34.1692C35.2177 48.4792 59.771 51.9764 62.6577 60.2515C62.7771 60.5966 63.016 61.3597 63.3213 62.4016C66.9578 74.1076 69.4132 80.3189 70.6209 80.8896C71.4969 81.301 72.3994 81.7854 73.355 82.3031C76.0094 83.7431 79.0354 85.3689 81.4045 85.0172C81.8321 84.9147 82.2764 84.9019 82.7092 84.9796C83.1421 85.0572 83.5542 85.2237 83.9195 85.4684C84.8685 86.2183 84.9946 87.592 85.1339 89.178C85.187 89.7487 85.2401 90.3459 85.333 90.9631C85.4012 91.4511 85.6 91.9116 85.9084 92.2959C86.2167 92.6802 86.6233 92.9741 87.0849 93.1463C87.357 93.2724 87.8082 93.4914 87.7485 94.0223C87.6888 94.5532 87.3172 94.6262 86.0232 94.8252H85.8307C83.6082 95.1641 81.3633 95.3349 79.115 95.3362ZM60.7532 84.473C60.8567 84.4738 60.9587 84.4988 61.0509 84.5461C61.1431 84.5933 61.2229 84.6615 61.284 84.7451C61.3504 84.838 68.0793 93.8365 78.478 94.0356C80.7744 94.0559 83.0689 93.8939 85.3396 93.5511C84.6148 92.9341 84.1424 92.072 84.0124 91.129C83.9129 90.4654 83.8598 89.8018 83.8067 89.2642C83.6939 87.9835 83.5944 86.8753 83.09 86.4771C82.6349 86.2245 82.0989 86.1602 81.5969 86.2979C78.7832 86.716 75.5581 84.9707 72.7179 83.4378C71.7822 82.9335 70.893 82.4557 70.0635 82.0642C68.3846 81.2811 66.0819 75.6936 62.0538 62.7599C61.7419 61.7446 61.5097 60.9948 61.3902 60.6563C60.3285 57.6037 55.2917 54.7303 46.8308 52.348C42.6202 51.1841 38.3433 50.2755 34.0232 49.6272C27.8451 49.6671 23.3525 58.0882 21.7731 65.9253L20.6649 91.2683H60.574L60.063 85.1897C60.0541 85.0475 60.0912 84.9061 60.1689 84.7866C60.2466 84.6671 60.3607 84.5757 60.4943 84.5261C60.5762 84.4913 60.6642 84.4732 60.7532 84.473Z" fill="#093F68"/>
<path d="M54.4882 56.9074L38.6016 91.0365L39.2254 50.8818L54.4882 56.9074Z" fill="white"/>
<path d="M38.6023 91.6996H38.4497C38.3012 91.6646 38.1694 91.5795 38.0763 91.4586C37.9832 91.3377 37.9346 91.1885 37.9387 91.036L38.5625 50.8814C38.5652 50.7743 38.5938 50.6696 38.6458 50.576C38.6978 50.4824 38.7717 50.4027 38.8611 50.3439C38.95 50.2844 39.0519 50.2474 39.1582 50.2358C39.2645 50.2243 39.3721 50.2386 39.4716 50.2775L54.7345 56.303C54.8185 56.3364 54.8948 56.3866 54.9587 56.4505C55.0226 56.5144 55.0728 56.5907 55.1061 56.6746C55.1417 56.7574 55.1601 56.8466 55.1601 56.9368C55.1601 57.0269 55.1417 57.1161 55.1061 57.1989L39.2128 91.328C39.1571 91.4417 39.0701 91.5372 38.9619 91.603C38.8537 91.6689 38.7289 91.7024 38.6023 91.6996ZM39.8764 51.8503L39.3124 87.937L53.6197 57.2653L39.8764 51.8503Z" fill="#093F68"/>
<path d="M48.5736 60.1474L46.2692 59.5535C45.3876 59.3263 44.4886 59.8568 44.2614 60.7385L43.9694 61.8714C43.7422 62.753 44.2727 63.6519 45.1544 63.8792L47.4588 64.4731C48.3404 64.7003 49.2394 64.1698 49.4666 63.2881L49.7586 62.1552C49.9858 61.2736 49.4553 60.3747 48.5736 60.1474Z" fill="#F56132"/>
<path d="M47.2949 65.222C47.0976 65.2212 46.9012 65.1944 46.7109 65.1424L44.4148 64.5452C43.8224 64.3892 43.3159 64.0048 43.0062 63.4763C42.6965 62.9477 42.6089 62.3179 42.7625 61.7248L43.0611 60.5967C43.1357 60.3026 43.2688 60.0264 43.4523 59.7848C43.6359 59.5431 43.8662 59.3408 44.1295 59.1899C44.3899 59.036 44.6781 58.9351 44.9776 58.893C45.2771 58.8509 45.582 58.8683 45.8748 58.9444L48.1775 59.5482C48.7684 59.7043 49.2738 60.0876 49.5833 60.6147C49.8928 61.1417 49.9814 61.7698 49.8298 62.3619L49.5312 63.4967C49.4009 63.9907 49.111 64.4277 48.7065 64.7397C48.302 65.0518 47.8057 65.2214 47.2949 65.222ZM45.3041 60.1986C45.1316 60.1992 44.9623 60.245 44.813 60.3313C44.7005 60.3966 44.6021 60.4836 44.5234 60.5873C44.4448 60.6909 44.3876 60.8092 44.3551 60.9352L44.0631 62.0633C44.0302 62.1879 44.0224 62.3178 44.04 62.4455C44.0576 62.5732 44.1003 62.6961 44.1657 62.8072C44.2312 62.9183 44.3179 63.0153 44.421 63.0926C44.5242 63.17 44.6416 63.2261 44.7665 63.2578L47.0626 63.8617C47.3151 63.9264 47.583 63.8888 47.8079 63.7571C48.0328 63.6254 48.1967 63.4101 48.2637 63.1582L48.5557 62.0301C48.6205 61.7776 48.5829 61.5097 48.4512 61.2848C48.3194 61.0599 48.1042 60.896 47.8523 60.829L45.5562 60.2317C45.4701 60.2063 45.3805 60.1951 45.2908 60.1986H45.3041Z" fill="#093F68"/>
<path d="M44.8127 77.6913L38.8867 90.4192L39.0858 77.5851L44.1624 63.7954L47.3012 64.6116L44.8127 77.6913Z" fill="#F56132"/>
<path d="M38.8875 91.0828C38.8368 91.0893 38.7855 91.0893 38.7348 91.0828C38.5864 91.0478 38.4545 90.9627 38.3614 90.8418C38.2684 90.7209 38.2198 90.5717 38.2239 90.4192L38.423 77.5851C38.4238 77.5104 38.4373 77.4364 38.4628 77.3661L43.5393 63.5765C43.5965 63.4222 43.709 63.2947 43.8549 63.2186C44.0008 63.1426 44.1698 63.1235 44.329 63.165L47.4679 63.9879C47.6301 64.0304 47.7702 64.1327 47.8601 64.2742C47.95 64.4158 47.9829 64.5862 47.9523 64.751L45.4638 77.8307C45.4531 77.8837 45.4352 77.935 45.4107 77.9833L39.4847 90.6979C39.4319 90.8121 39.3477 90.9089 39.2419 90.977C39.1362 91.0452 39.0133 91.0819 38.8875 91.0828ZM39.7502 77.7046L39.5975 87.3135L44.1764 77.4856L46.5322 65.0961L44.5745 64.5851L39.7502 77.7046Z" fill="#093F68"/>
<path d="M53.6517 7.73426C55.7753 7.51527 57.9452 8.21869 59.936 9.06147C62.1857 10.0104 64.4087 11.1518 66.8375 11.3973C69.2663 11.6429 72.0136 10.7337 73.0953 8.55713C74.9667 11.7623 74.7875 15.7639 74.0243 19.4004C73.8308 20.462 73.5145 21.4975 73.082 22.4862C72.6324 23.3815 72.1062 24.2363 71.5093 25.041C70.6532 26.2687 69.7043 27.3305 69.4388 28.8037C69.0698 30.5068 68.5525 32.1744 67.8926 33.7873C66.5654 37.4305 64.933 40.9675 63.4598 44.5642L31.3281 38.5918C31.3281 38.5918 31.8656 30.6286 33.08 24.0788C34.2944 17.529 38.8202 9.34018 46.4848 12.5918C46.9179 11.7247 47.5418 10.9669 48.3097 10.3754C49.5854 9.18893 51.129 8.32835 52.8089 7.86698C53.0869 7.80557 53.3684 7.76124 53.6517 7.73426Z" fill="#FFD705"/>
<path d="M63.4604 45.2206H63.3409L31.2093 39.2482C31.0547 39.22 30.9151 39.1377 30.8155 39.0162C30.7158 38.8947 30.6626 38.7417 30.6651 38.5846C30.6651 38.505 31.2226 30.4887 32.4303 23.9853C33.2333 19.6786 35.5094 14.31 39.4977 12.1732C40.5179 11.6323 41.6442 11.3211 42.7974 11.2615C43.9506 11.2019 45.1029 11.3953 46.1735 11.8281C46.6468 11.1059 47.2314 10.4632 47.9055 9.9236C49.2642 8.66761 50.9053 7.75716 52.6901 7.26919C52.9835 7.20388 53.2804 7.15514 53.5793 7.1232C55.9683 6.87767 58.3706 7.72708 60.2154 8.49686L61.3833 9.00119C63.1205 9.85518 64.9779 10.4392 66.8912 10.7332C68.882 10.9389 71.5033 10.2488 72.492 8.25796C72.5447 8.15023 72.6256 8.05879 72.7261 7.99336C72.8265 7.92792 72.9429 7.89094 73.0627 7.88634C73.183 7.88229 73.3021 7.91103 73.4073 7.96948C73.5125 8.02792 73.5999 8.11388 73.66 8.21814C75.3256 11.0849 75.6508 14.7812 74.662 19.4994C74.4573 20.611 74.1255 21.6953 73.6732 22.7311C73.2061 23.661 72.6599 24.5491 72.0408 25.3856C71.8881 25.6045 71.7289 25.8235 71.5696 26.0492C70.8633 26.8732 70.3529 27.8465 70.0765 28.896C69.716 30.5897 69.2075 32.2484 68.5569 33.8531L68.5038 33.9925C67.6079 36.3947 66.5926 38.7837 65.6105 41.093C65.0929 42.3207 64.5686 43.5484 64.0643 44.7893C64.018 44.9132 63.9359 45.0204 63.8283 45.0973C63.7207 45.1741 63.5926 45.2171 63.4604 45.2206ZM32.0321 38.0272L63.0556 43.8005C63.4936 42.7321 63.9515 41.6637 64.3828 40.5953C65.3583 38.2993 66.3736 35.9501 67.2562 33.5479L67.3026 33.4151C67.928 31.8819 68.4165 30.2963 68.7626 28.677C69.0701 27.428 69.6629 26.2673 70.4946 25.286L70.9458 24.6556C71.5206 23.8814 72.0289 23.06 72.4655 22.2003C72.8789 21.2464 73.1838 20.2492 73.3746 19.2273C74.1842 15.3585 74.0382 12.2728 73.0229 9.84397C71.5165 11.6291 68.9285 12.2462 66.7718 12.0272C64.7058 11.7127 62.7018 11.0768 60.8325 10.1426L59.6779 9.64489C57.9989 8.93483 55.7958 8.15178 53.7054 8.36413C53.4579 8.39047 53.212 8.43034 52.9688 8.48358C51.3902 8.91693 49.9428 9.73293 48.7549 10.8593C48.0532 11.3869 47.4813 12.0678 47.0827 12.8501C47.0123 13.011 46.8811 13.1375 46.7177 13.2018C46.5561 13.2682 46.3749 13.2682 46.2133 13.2018C45.2627 12.7344 44.2155 12.4969 43.1562 12.5084C42.0969 12.5199 41.0551 12.7802 40.1148 13.2682C36.538 15.1793 34.4344 20.3289 33.7243 24.1512C32.7289 29.5795 32.1848 36.0696 32.0321 38.0272Z" fill="#093F68"/>
<path d="M45.193 52.4099L51.1305 53.5005L50.4987 56.9407C50.3757 57.6099 49.992 58.2029 49.4319 58.5892C48.8718 58.9755 48.1811 59.1234 47.5119 59.0005L46.6145 58.8357C45.9453 58.7128 45.3523 58.329 44.966 57.7689C44.5797 57.2088 44.4317 56.5182 44.5546 55.8489L45.1829 52.4282L45.193 52.4099Z" fill="#FFC9B0"/>
<path d="M48.0114 60.3714C47.8109 60.3712 47.6108 60.3512 47.4142 60.3117L46.5183 60.1458C46.1 60.0684 45.7009 59.9093 45.3441 59.6776C44.9872 59.4459 44.6795 59.1461 44.4385 58.7955C44.1976 58.4448 44.0281 58.0501 43.9397 57.6339C43.8514 57.2177 43.8459 56.7882 43.9236 56.3699L44.5872 52.9457C44.6195 52.7735 44.7185 52.6211 44.8627 52.5216C45.0069 52.4222 45.1846 52.3838 45.357 52.4148L51.3294 53.523C51.5013 53.5543 51.6539 53.652 51.7542 53.7951C51.8037 53.867 51.8386 53.9479 51.8568 54.0334C51.8751 54.1188 51.8762 54.2069 51.8603 54.2928L51.1967 57.7236C51.0579 58.4665 50.6647 59.1379 50.0846 59.6223C49.5045 60.1067 48.7738 60.3739 48.0181 60.378L48.0114 60.3714ZM47.6597 59.011C48.157 59.1019 48.67 58.9922 49.0865 58.7058C49.2949 58.5651 49.4728 58.3839 49.6096 58.173C49.7464 57.962 49.8393 57.7257 49.8828 57.4781L50.4004 54.7042L45.7552 53.8415L45.2376 56.6154C45.1915 56.8616 45.1945 57.1145 45.2463 57.3596C45.2981 57.6046 45.3978 57.8371 45.5395 58.0436C45.6813 58.2501 45.8624 58.4266 46.0725 58.563C46.2826 58.6994 46.5175 58.793 46.7639 58.8385L47.6597 59.011Z" fill="#093F68"/>
<path d="M71.4752 44.3013C71.9886 41.545 70.4069 38.9384 67.9424 38.4795C65.4779 38.0205 63.0639 39.8828 62.5506 42.6391C62.0372 45.3955 63.6189 48.002 66.0834 48.461C68.5479 48.9199 70.9619 47.0576 71.4752 44.3013Z" fill="#FFC9B0"/>
<path d="M66.8378 49.1826C66.5418 49.1828 66.2464 49.1561 65.9552 49.103C65.2669 48.9675 64.6153 48.6874 64.0433 48.2813C63.4713 47.8752 62.9921 47.3523 62.6372 46.7472C61.891 45.4695 61.6293 43.9661 61.8998 42.5114C62.1703 41.0568 62.9549 39.7479 64.1104 38.8238C64.6568 38.378 65.2935 38.0559 65.9764 37.8799C66.6594 37.7039 67.3724 37.6781 68.0662 37.8043C68.7601 37.9304 69.4184 38.2056 69.9956 38.6107C70.5729 39.0158 71.0555 39.5413 71.41 40.151C72.171 41.4249 72.4334 42.9355 72.1466 44.3914C71.8922 45.8506 71.1046 47.1633 69.9368 48.0744C69.0573 48.7809 67.9658 49.1712 66.8378 49.1826ZM67.1829 39.0693C66.356 39.0768 65.5552 39.3593 64.9067 39.8723C64.0117 40.5987 63.4047 41.6201 63.1943 42.7534C62.984 43.8867 63.184 45.0579 63.7587 46.0571C64.0145 46.5067 64.3654 46.8952 64.7868 47.1953C65.2082 47.4954 65.69 47.7 66.1986 47.7948C66.7072 47.8895 67.2304 47.8722 67.7316 47.744C68.2328 47.6158 68.7 47.3798 69.1007 47.0525C70.0079 46.3362 70.6197 45.311 70.8194 44.1724C71.0457 43.0347 70.8449 41.8535 70.2554 40.8544C69.9953 40.4077 69.6429 40.0216 69.2218 39.7218C68.8007 39.422 68.3205 39.2154 67.8133 39.1158C67.605 39.0809 67.394 39.0654 67.1829 39.0693Z" fill="#093F68"/>
<path d="M48.3639 56.8137C38.5691 54.9888 32.0526 41.2655 33.8443 31.5968L36.0143 32.924L37.2021 26.0823C37.2021 26.0823 50.0827 25.1333 49.5252 19.1211C49.5252 19.1211 52.3323 24.0649 57.4885 25.0205C67.0045 26.7658 71.1985 24.9409 71.1985 24.9409L67.9468 42.3804C66.175 52.0424 58.1653 58.6387 48.3639 56.8137Z" fill="#FFC9B0"/>
<path d="M51.5609 57.7763C50.4475 57.7769 49.3366 57.6725 48.2428 57.4644C38.0765 55.5732 31.3542 41.3721 33.1923 31.5043C33.2117 31.399 33.2561 31.3 33.322 31.2156C33.3879 31.1313 33.4731 31.0641 33.5706 31.0199C33.669 30.9759 33.7766 30.9565 33.8841 30.9635C33.9916 30.9704 34.0958 31.0034 34.1877 31.0597L35.5149 31.8693L36.5369 25.9897C36.5616 25.8437 36.6345 25.7102 36.744 25.6103C36.8534 25.5105 36.9931 25.4502 37.1408 25.439C37.227 25.439 45.3628 24.7753 48.057 21.61C48.3497 21.2906 48.5728 20.914 48.7122 20.5039C48.8515 20.0937 48.9041 19.6591 48.8666 19.2276C48.8555 19.0781 48.8953 18.9292 48.9796 18.8052C49.0639 18.6812 49.1877 18.5894 49.3309 18.5447C49.474 18.5001 49.6281 18.5053 49.7679 18.5594C49.9077 18.6135 50.0251 18.7134 50.1009 18.8427C50.1009 18.8892 52.8283 23.5344 57.6262 24.4104C66.7706 26.0893 70.8983 24.4104 70.9513 24.4104C71.0602 24.3656 71.1791 24.3506 71.2957 24.3669C71.4123 24.3832 71.5225 24.4303 71.6149 24.5033C71.7131 24.5802 71.7876 24.6833 71.8299 24.8007C71.8721 24.9181 71.8804 25.045 71.8538 25.1669L68.6088 42.6064C67.8242 47.3265 65.3093 51.585 61.5547 54.5512C58.6687 56.6958 55.1561 57.8294 51.5609 57.7763ZM34.3072 32.7054C32.8539 43.5686 40.784 54.7304 48.4552 56.1638C50.5823 56.5926 52.7761 56.5659 54.8921 56.0855C57.0082 55.6051 58.9984 54.6819 60.7319 53.3766C64.2168 50.6166 66.5512 46.6596 67.2816 42.2746L70.3276 25.9167C68.4827 26.3746 64.302 26.9719 57.3541 25.6911C53.7242 25.0275 51.2291 22.5589 49.935 20.9331C49.7377 21.4954 49.436 22.0155 49.0458 22.466C46.3914 25.6115 39.6691 26.514 37.7646 26.7197L36.663 33.0571C36.6447 33.1636 36.6006 33.2639 36.5347 33.3495C36.4688 33.4351 36.383 33.5033 36.2847 33.5482C36.1855 33.5933 36.0767 33.6133 35.9679 33.6063C35.8591 33.5994 35.7536 33.5657 35.6609 33.5084L34.3072 32.7054Z" fill="#093F68"/>
<path d="M53.9393 36.9454C54.105 36.0554 53.515 35.1991 52.6214 35.0326C51.7279 34.8662 50.8692 35.4528 50.7034 36.3427C50.5377 37.2327 51.1277 38.089 52.0212 38.2554C52.9148 38.4218 53.7735 37.8353 53.9393 36.9454Z" fill="#093F68"/>
<path d="M65.2385 39.8193C66.1474 39.8193 66.8842 39.0825 66.8842 38.1736C66.8842 37.2647 66.1474 36.5278 65.2385 36.5278C64.3296 36.5278 63.5928 37.2647 63.5928 38.1736C63.5928 39.0825 64.3296 39.8193 65.2385 39.8193Z" fill="#093F68"/>
<path d="M55.9087 43.5285C54.9815 43.4876 54.066 43.3041 53.1946 42.9844C53.0396 42.916 52.9166 42.7909 52.8508 42.6348C52.7851 42.4786 52.7815 42.3032 52.8409 42.1446C52.9003 41.9859 53.0182 41.856 53.1703 41.7814C53.3224 41.7068 53.4973 41.6932 53.6591 41.7434C54.3745 42.0014 55.1231 42.1556 55.8822 42.2013C55.8731 40.882 55.649 39.573 55.2186 38.3259C55.1931 38.2422 55.1843 38.1544 55.1929 38.0673C55.2014 37.9803 55.2271 37.8958 55.2684 37.8187C55.3097 37.7416 55.3659 37.6734 55.4336 37.6181C55.5014 37.5628 55.5794 37.5214 55.6632 37.4964C55.8304 37.4466 56.0105 37.4646 56.1645 37.5466C56.3185 37.6285 56.434 37.7678 56.4861 37.9344C56.8577 39.1488 57.6474 42.0752 56.9506 43.0706C56.8635 43.2024 56.7467 43.312 56.6095 43.3903C56.4723 43.4687 56.3187 43.5138 56.1609 43.5219L55.9087 43.5285Z" fill="#093F68"/>
<path d="M54.1967 31.8828C54.0115 31.8845 53.8281 31.846 53.6592 31.77L46.4791 28.6113C46.1667 28.4634 45.9243 28.1995 45.8035 27.8756C45.6826 27.5518 45.6929 27.1936 45.8321 26.8773C45.9712 26.5609 46.2283 26.3113 46.5487 26.1815C46.869 26.0518 47.2273 26.0521 47.5475 26.1825L54.7276 29.3412C55.0059 29.4639 55.2336 29.6784 55.3726 29.9489C55.5116 30.2193 55.5535 30.5293 55.4913 30.827C55.4292 31.1247 55.2667 31.3919 55.031 31.5841C54.7954 31.7763 54.5008 31.8818 54.1967 31.8828Z" fill="#093F68"/>
<path d="M59.1275 32.2474C58.7755 32.2632 58.4317 32.1386 58.1716 31.9009C57.9115 31.6632 57.7564 31.3319 57.7406 30.9799C57.7248 30.6279 57.8494 30.284 58.0871 30.0239C58.3248 29.7638 58.6561 29.6088 59.0081 29.593L66.8187 28.8763C67.1707 28.8437 67.5212 28.9523 67.7931 29.1782C68.065 29.4041 68.2361 29.7287 68.2687 30.0807C68.3012 30.4327 68.1926 30.7832 67.9667 31.0552C67.7409 31.3271 67.4162 31.4981 67.0642 31.5307L59.2536 32.254L59.1275 32.2474Z" fill="#093F68"/>
<path d="M37.1282 33.5087C37.1282 33.5087 33.412 29.766 30.4059 33.1371C27.3998 36.5082 28.4151 43.4031 35.8143 42.8257" fill="#FFC9B0"/>
<path d="M34.9453 43.5224C31.0699 43.5224 29.4441 41.4785 28.807 40.2044C28.2424 38.9821 28.0465 37.6217 28.2433 36.2898C28.4402 34.9579 29.0212 33.7123 29.9152 32.7056C30.3111 32.2213 30.8048 31.8262 31.364 31.546C31.9232 31.2658 32.5353 31.1069 33.1602 31.0798C35.5492 30.9869 37.5135 32.9711 37.5998 33.0706C37.7238 33.1956 37.7932 33.3647 37.7926 33.5408C37.7919 33.7169 37.7214 33.8856 37.5964 34.0096C37.4715 34.1337 37.3023 34.2031 37.1262 34.2024C36.9502 34.2018 36.7815 34.1313 36.6574 34.0063C36.6574 34.0063 34.9719 32.3473 33.1934 32.4203C32.7499 32.4436 32.3164 32.561 31.9216 32.7646C31.5269 32.9683 31.18 33.2536 30.904 33.6015C30.1914 34.4134 29.7269 35.4128 29.5657 36.4809C29.4046 37.5491 29.5535 38.6411 29.9949 39.627C30.9239 41.4984 32.9744 42.4142 35.7616 42.1885C35.8487 42.1816 35.9364 42.1918 36.0196 42.2187C36.1027 42.2456 36.1798 42.2887 36.2464 42.3454C36.3129 42.4021 36.3676 42.4713 36.4074 42.5491C36.4472 42.627 36.4713 42.7119 36.4783 42.7991C36.4852 42.8862 36.475 42.9739 36.4481 43.057C36.4212 43.1402 36.3781 43.2173 36.3214 43.2838C36.2647 43.3504 36.1955 43.4051 36.1177 43.4449C36.0398 43.4847 35.9549 43.5088 35.8677 43.5157C35.5492 43.5157 35.2373 43.5224 34.9453 43.5224Z" fill="#093F68"/>
<path d="M53.0942 40.6019C52.9992 40.6088 52.9038 40.6088 52.8088 40.6019L45.257 39.6928C44.9507 39.6558 44.6546 39.5588 44.3858 39.4074C44.1169 39.256 43.8805 39.0531 43.6901 38.8103C43.4997 38.5675 43.359 38.2895 43.276 37.9924C43.193 37.6952 43.1694 37.3845 43.2065 37.0782L43.7706 32.433C43.7803 32.3464 43.807 32.2625 43.8491 32.1862C43.8912 32.11 43.948 32.0427 44.0161 31.9884C44.0852 31.935 44.1641 31.8959 44.2484 31.8731C44.3327 31.8503 44.4206 31.8444 44.5072 31.8556L55.4101 33.1828C55.5837 33.2058 55.7411 33.2965 55.8481 33.435C55.9026 33.5036 55.943 33.5823 55.9669 33.6666C55.9908 33.7509 55.9978 33.8391 55.9875 33.9261L55.4234 38.5713C55.3451 39.1336 55.0662 39.6488 54.6382 40.0219C54.2103 40.395 53.662 40.601 53.0942 40.6019ZM44.9916 33.2028L44.5072 37.2242C44.4772 37.4932 44.5544 37.7631 44.7221 37.9755C44.8898 38.1879 45.1344 38.3257 45.403 38.359L52.9548 39.2681C53.0878 39.2848 53.2228 39.275 53.3519 39.2392C53.4811 39.2035 53.6019 39.1425 53.7074 39.0598C53.8129 38.9772 53.901 38.8744 53.9666 38.7576C54.0322 38.6407 54.074 38.512 54.0896 38.3789L54.574 34.3574L44.9916 33.2028Z" fill="#093F68"/>
<path d="M66.6317 42.2347H66.3464L58.8012 41.3256C58.1823 41.2475 57.6191 40.9285 57.2339 40.4378C56.8488 39.947 56.6727 39.3241 56.744 38.7044L57.3081 34.0591C57.3187 33.972 57.3464 33.8879 57.3897 33.8116C57.433 33.7353 57.4909 33.6683 57.5603 33.6145C57.6971 33.5062 57.8712 33.4561 58.0447 33.4752L68.9477 34.8024C69.1217 34.824 69.2802 34.9135 69.3883 35.0516C69.4965 35.1896 69.5457 35.3648 69.525 35.539L68.961 40.2174C68.8823 40.7785 68.603 41.292 68.1747 41.6629C67.7465 42.0339 67.1983 42.237 66.6317 42.2347ZM66.5056 40.9075C66.6395 40.9242 66.7753 40.9142 66.9053 40.8781C67.0353 40.842 67.1568 40.7806 67.2629 40.6973C67.369 40.614 67.4576 40.5106 67.5235 40.3929C67.5895 40.2752 67.6314 40.1456 67.647 40.0117L68.1315 36.03L58.549 34.8754L58.0646 38.857C58.0479 38.9903 58.0577 39.1257 58.0933 39.2553C58.129 39.3848 58.1899 39.5061 58.2725 39.6121C58.3551 39.7182 58.4578 39.8069 58.5747 39.8731C58.6916 39.9394 58.8204 39.982 58.9538 39.9984L66.5056 40.9075Z" fill="#093F68"/>
<path d="M44.2086 34.9219H44.1289L36.743 34.0327C36.567 34.0115 36.4066 33.9214 36.2971 33.782C36.1876 33.6426 36.1379 33.4654 36.1591 33.2894C36.1802 33.1134 36.2704 32.953 36.4097 32.8435C36.5491 32.734 36.7263 32.6843 36.9023 32.7054L44.2882 33.5947C44.375 33.6046 44.4589 33.6315 44.5353 33.6739C44.6116 33.7163 44.6788 33.7733 44.7331 33.8418C44.7873 33.9102 44.8275 33.9887 44.8514 34.0727C44.8753 34.1567 44.8823 34.2445 44.8722 34.3313C44.8541 34.4943 44.7763 34.6449 44.6538 34.754C44.5312 34.8631 44.3726 34.9229 44.2086 34.9219Z" fill="#093F68"/>
<path d="M53.8643 49.3552C46.8168 49.3552 43.4921 42.0556 43.4523 41.9826C43.417 41.9028 43.3978 41.8169 43.3957 41.7298C43.3936 41.6426 43.4087 41.5558 43.4401 41.4745C43.4716 41.3932 43.5187 41.3188 43.5789 41.2557C43.639 41.1926 43.711 41.1419 43.7908 41.1066C43.8705 41.0713 43.9564 41.0521 44.0436 41.05C44.1308 41.0479 44.2175 41.063 44.2988 41.0944C44.3802 41.1259 44.4545 41.173 44.5177 41.2332C44.5808 41.2933 44.6314 41.3653 44.6667 41.4451C45.4249 42.9796 46.4572 44.3628 47.7127 45.5262C48.9156 46.6833 50.4169 47.4824 52.0485 47.834C53.6801 48.1856 55.3773 48.0759 56.95 47.517C57.1172 47.4649 57.2982 47.481 57.4536 47.5618C57.609 47.6426 57.7262 47.7816 57.7795 47.9484C57.8062 48.032 57.816 48.1201 57.8084 48.2076C57.8008 48.295 57.7759 48.3801 57.7351 48.4579C57.6944 48.5357 57.6386 48.6046 57.5711 48.6607C57.5035 48.7167 57.4255 48.7588 57.3415 48.7845C56.2177 49.1483 55.0454 49.3407 53.8643 49.3552Z" fill="#093F68"/>
<path d="M57.6738 37.1915H57.6008L54.9464 36.9593C54.8593 36.9514 54.7745 36.9265 54.697 36.8859C54.6195 36.8453 54.5507 36.7899 54.4947 36.7227C54.4386 36.6555 54.3963 36.578 54.3702 36.4944C54.3441 36.4109 54.3347 36.3231 54.3425 36.236C54.3504 36.1488 54.3753 36.0641 54.4159 35.9865C54.4565 35.909 54.512 35.8403 54.5791 35.7842C54.6463 35.7281 54.7238 35.6858 54.8074 35.6597C54.8909 35.6336 54.9787 35.6242 55.0659 35.6321L57.7203 35.8643C57.8963 35.8723 58.0619 35.9498 58.1808 36.0798C58.2996 36.2099 58.3619 36.3818 58.354 36.5578C58.3461 36.7338 58.2686 36.8994 58.1385 37.0183C58.0085 37.1371 57.8365 37.1995 57.6605 37.1915H57.6738Z" fill="#093F68"/>
<path d="M60.7537 85.7998C60.5886 85.8006 60.4291 85.7398 60.3064 85.6294C60.1837 85.519 60.1066 85.3668 60.0901 85.2025L58.723 71.5057C58.7143 71.4186 58.7229 71.3306 58.7482 71.2467C58.7735 71.1629 58.815 71.0849 58.8705 71.0171C58.9259 70.9493 58.9942 70.8931 59.0714 70.8517C59.1486 70.8103 59.2331 70.7845 59.3203 70.7758C59.4074 70.7671 59.4954 70.7756 59.5793 70.8009C59.6631 70.8262 59.7412 70.8678 59.809 70.9232C59.8767 70.9787 59.9329 71.0469 59.9743 71.1241C60.0157 71.2013 60.0415 71.2859 60.0502 71.373L61.4173 85.0698C61.4265 85.1565 61.4185 85.2442 61.3938 85.3278C61.369 85.4114 61.3281 85.4894 61.2733 85.5572C61.2184 85.625 61.1507 85.6813 61.0741 85.7229C60.9975 85.7645 60.9134 85.7906 60.8267 85.7998H60.7537Z" fill="#093F68"/>
<path d="M92.182 89.2378H57.1504V92.8279H92.182V89.2378Z" fill="#C1EAEF"/>
<path d="M92.1806 93.4982H57.149C56.973 93.4982 56.8042 93.4282 56.6797 93.3038C56.5553 93.1793 56.4854 93.0105 56.4854 92.8345V89.2378C56.4854 89.0618 56.5553 88.893 56.6797 88.7686C56.8042 88.6441 56.973 88.5742 57.149 88.5742H92.1806C92.3566 88.5742 92.5253 88.6441 92.6498 88.7686C92.7742 88.893 92.8442 89.0618 92.8442 89.2378V92.8345C92.8442 93.0105 92.7742 93.1793 92.6498 93.3038C92.5253 93.4282 92.3566 93.4982 92.1806 93.4982ZM57.8126 92.1709H91.5169V89.9014H57.8126V92.1709Z" fill="#093F68"/>
<path d="M70.3561 89.2378H57.1504V92.8279H70.3561V89.2378Z" fill="#DFEAEF"/>
<path d="M70.3547 93.4982H57.149C56.973 93.4982 56.8042 93.4282 56.6797 93.3038C56.5553 93.1793 56.4854 93.0105 56.4854 92.8345V89.2378C56.4854 89.0618 56.5553 88.893 56.6797 88.7686C56.8042 88.6441 56.973 88.5742 57.149 88.5742H70.3547C70.5306 88.5742 70.6994 88.6441 70.8239 88.7686C70.9483 88.893 71.0183 89.0618 71.0183 89.2378V92.8345C71.0183 93.0105 70.9483 93.1793 70.8239 93.3038C70.6994 93.4282 70.5306 93.4982 70.3547 93.4982ZM57.8126 92.1709H69.691V89.9014H57.8126V92.1709Z" fill="#093F68"/>
<path d="M45.6553 85.6545L46.7967 85.1767C49.325 84.115 55.324 81.6596 57.1024 81.361C59.3786 80.9828 63.6721 81.6132 64.1764 81.361C64.6808 81.1088 68.4699 85.3426 68.596 86.703C68.7221 88.0634 63.9508 89.5698 62.6568 88.6938C61.5607 87.9698 60.4265 87.3053 59.2591 86.703C59.2591 86.703 56.3459 93.1001 47.6328 92.41" fill="#FFC9B0"/>
<path d="M48.9745 93.1265C48.5432 93.1265 48.0985 93.1265 47.6473 93.0668C47.4735 93.0516 47.3127 92.9685 47.1997 92.8356C47.0867 92.7028 47.0305 92.5307 47.0434 92.3567C47.057 92.1818 47.1393 92.0193 47.2724 91.9049C47.4055 91.7905 47.5784 91.7334 47.7535 91.7462C55.9092 92.4098 58.6897 86.4905 58.7228 86.4374C58.7599 86.3558 58.8131 86.2826 58.8793 86.2222C58.9454 86.1617 59.0231 86.1153 59.1077 86.0857C59.1896 86.051 59.2776 86.0331 59.3665 86.0331C59.4554 86.0331 59.5435 86.051 59.6253 86.0857C60.8224 86.6992 61.9855 87.377 63.1092 88.1163C63.4941 88.3818 64.9408 88.2955 66.4273 87.7381C67.5488 87.3067 67.9934 86.8555 68.0265 86.7161C67.9469 85.8601 65.1996 82.562 64.2905 82.0178C63.5202 82.0905 62.7448 82.0905 61.9745 82.0178C60.4296 81.8692 58.8741 81.8692 57.3293 82.0178C56.1414 82.2102 52.339 83.6237 47.1629 85.7871L46.0281 86.2649C45.9473 86.3029 45.8596 86.3242 45.7704 86.3275C45.6811 86.3309 45.5921 86.3161 45.5087 86.2842C45.4253 86.2524 45.3492 86.204 45.2849 86.142C45.2206 86.08 45.1695 86.0056 45.1347 85.9234C45.0998 85.8411 45.0819 85.7527 45.082 85.6634C45.0822 85.5741 45.1003 85.4858 45.1354 85.4036C45.1705 85.3215 45.2218 85.2473 45.2863 85.1855C45.3507 85.1237 45.427 85.0755 45.5105 85.0438L46.6519 84.5594C49.7907 83.2322 55.3252 81.0025 57.1103 80.7039C58.7588 80.544 60.4189 80.544 62.0674 80.7039C62.7291 80.7645 63.394 80.7844 64.0582 80.7636C64.1957 80.7142 64.3429 80.6975 64.488 80.7148C64.6331 80.7321 64.7722 80.7828 64.8943 80.8631C66.0026 81.4803 69.2409 85.15 69.3803 86.663C69.4467 87.3266 68.9954 87.9504 68.0531 88.5012C66.5202 89.3904 63.6401 90.1071 62.4125 89.2444C61.5205 88.654 60.5991 88.1091 59.6519 87.612C58.5702 89.1449 55.4513 93.1199 48.9745 93.1265Z" fill="#093F68"/>
<path d="M32.9338 65.0831C32.8476 65.2026 24.4994 79.7819 24.4994 79.7819C28.8925 80.9366 42.0053 83.1995 50.6056 83.0203V92.9744C50.3269 92.9744 41.4877 94.4807 34.2212 94.4807H33.6439C21.6128 94.421 14.8241 92.6094 11.6521 88.6012C10.7009 87.4027 10.0732 85.9802 9.82924 84.4697C9.58524 82.9592 9.73305 81.4114 10.2585 79.9744C14.5587 67.4455 26.8818 52.9724 27.2799 52.395" fill="#1CD3C1"/>
<path d="M34.2214 95.1572H33.644C21.3873 95.0975 14.446 93.2062 11.128 89.0255C10.1103 87.7405 9.43828 86.2166 9.17578 84.5986C8.91328 82.9806 9.06904 81.3223 9.62826 79.7815C12.1898 72.3293 17.9631 62.9127 26.3179 52.5738L26.7359 52.0496C26.8364 51.9067 26.989 51.8092 27.1608 51.7782C27.3326 51.7471 27.5097 51.785 27.6538 51.8837C27.7978 51.9823 27.8972 52.1338 27.9304 52.3052C27.9635 52.4766 27.9278 52.6542 27.8309 52.7994C27.7844 52.8658 27.6185 53.0715 27.3531 53.4099C19.0912 63.6361 13.4174 72.9066 10.8891 80.2195C10.4062 81.546 10.2704 82.9738 10.4946 84.3676C10.7187 85.7613 11.2954 87.0746 12.1699 88.1827C15.2092 92.0184 21.8319 93.7504 33.6507 93.8101H34.2214C39.4887 93.7146 44.7423 93.2422 49.9421 92.3966V83.6968C41.4812 83.7499 28.8993 81.6197 24.3337 80.4252C24.235 80.3995 24.1435 80.3515 24.0664 80.2847C23.9893 80.218 23.9286 80.1343 23.8891 80.0403C23.8506 79.9464 23.8342 79.8449 23.8411 79.7437C23.848 79.6425 23.8781 79.5442 23.9289 79.4563C29.4766 69.7611 32.3235 64.804 32.3832 64.7111C32.4814 64.5673 32.6321 64.4679 32.8029 64.4342C32.9737 64.4005 33.1509 64.4353 33.2963 64.5311C33.4417 64.6268 33.5436 64.7759 33.5801 64.9461C33.6166 65.1163 33.5848 65.2941 33.4914 65.4411C33.2857 65.7795 28.4215 74.2802 25.5282 79.3767C30.7375 80.6177 42.7487 82.5487 50.6057 82.3828C50.6942 82.3815 50.782 82.3978 50.8641 82.4308C50.9461 82.4639 51.0207 82.513 51.0835 82.5753C51.1462 82.6367 51.1961 82.71 51.2303 82.7909C51.2645 82.8718 51.2823 82.9586 51.2826 83.0464V93.0005C51.2834 93.1656 51.2227 93.325 51.1123 93.4477C51.0018 93.5704 50.8496 93.6476 50.6854 93.6641L50.3735 93.7105C45.0315 94.5823 39.6333 95.0658 34.2214 95.1572Z" fill="#093F68"/>
<path d="M140.458 92.8345H3.94792C2.13376 92.8345 0.663086 94.3051 0.663086 96.1193V96.1989C0.663086 98.0131 2.13376 99.4838 3.94792 99.4838H140.458C142.272 99.4838 143.743 98.0131 143.743 96.1989V96.1193C143.743 94.3051 142.272 92.8345 140.458 92.8345Z" fill="#093F68"/>
<path d="M140.458 100.148H3.9418C2.89959 100.137 1.90299 99.7186 1.16599 98.9816C0.428998 98.2446 0.0103711 97.248 0 96.2058V96.1195C0.0103711 95.0773 0.428998 94.0807 1.16599 93.3437C1.90299 92.6067 2.89959 92.1881 3.9418 92.1777H140.458C141.5 92.1881 142.497 92.6067 143.234 93.3437C143.971 94.0807 144.39 95.0773 144.4 96.1195V96.2058C144.39 97.248 143.971 98.2446 143.234 98.9816C142.497 99.7186 141.5 100.137 140.458 100.148ZM3.9418 93.5116C3.25157 93.5219 2.5925 93.8006 2.10437 94.2887C1.61625 94.7769 1.33748 95.4359 1.32721 96.1262V96.2058C1.33577 96.8972 1.61378 97.558 2.10209 98.0475C2.59039 98.537 3.25044 98.8167 3.9418 98.827H140.458C141.15 98.8167 141.81 98.537 142.298 98.0475C142.786 97.558 143.064 96.8972 143.073 96.2058V96.1195C143.063 95.4293 142.784 94.7702 142.296 94.2821C141.808 93.794 141.148 93.5152 140.458 93.5049L3.9418 93.5116Z" fill="#093F68"/>
<path d="M131.459 39.8188H79.4792C78.1488 39.8188 77.0703 40.8973 77.0703 42.2277V76.5161C77.0703 77.8465 78.1488 78.925 79.4792 78.925H131.459C132.79 78.925 133.868 77.8465 133.868 76.5161V42.2277C133.868 40.8973 132.79 39.8188 131.459 39.8188Z" fill="#093F68"/>
<path d="M131.459 79.6155H79.4993C78.6849 79.6138 77.9045 79.2895 77.3286 78.7137C76.7528 78.1379 76.4285 77.3574 76.4268 76.543V42.2281C76.425 41.8232 76.5032 41.4219 76.6567 41.0473C76.8103 40.6726 77.0362 40.3319 77.3216 40.0446C77.607 39.7574 77.9462 39.5293 78.3199 39.3733C78.6936 39.2173 79.0944 39.1366 79.4993 39.1357H131.459C132.274 39.1375 133.054 39.4618 133.63 40.0376C134.206 40.6134 134.53 41.3939 134.532 42.2082V76.4966C134.537 76.9037 134.462 77.3079 134.31 77.6856C134.158 78.0634 133.932 78.4072 133.647 78.6973C133.361 78.9873 133.02 79.2179 132.645 79.3755C132.27 79.5331 131.867 79.6147 131.459 79.6155ZM79.4993 40.4629C79.0364 40.4629 78.5925 40.6468 78.2652 40.9741C77.9379 41.3014 77.754 41.7454 77.754 42.2082V76.4966C77.7478 76.7297 77.7883 76.9616 77.8733 77.1788C77.9582 77.3959 78.0858 77.5938 78.2485 77.7608C78.4111 77.9278 78.6056 78.0606 78.8205 78.1512C79.0353 78.2418 79.2661 78.2884 79.4993 78.2883H131.459C131.922 78.2883 132.366 78.1044 132.693 77.7771C133.021 77.4498 133.205 77.0059 133.205 76.543V42.2281C133.207 41.9973 133.164 41.7682 133.078 41.5541C132.991 41.3401 132.863 41.1453 132.701 40.9811C132.538 40.817 132.345 40.6866 132.132 40.5977C131.919 40.5087 131.69 40.4629 131.459 40.4629H79.4993Z" fill="#093F68"/>
<path d="M135.017 39.8188H83.0368C81.7064 39.8188 80.6279 40.8973 80.6279 42.2277V76.5161C80.6279 77.8465 81.7064 78.925 83.0368 78.925H135.017C136.347 78.925 137.426 77.8465 137.426 76.5161V42.2277C137.426 40.8973 136.347 39.8188 135.017 39.8188Z" fill="white"/>
<path d="M135.017 79.6151H83.044C82.2285 79.6152 81.4463 79.2917 80.869 78.7156C80.2918 78.1396 79.9666 77.3581 79.9648 76.5427V42.2278C79.9666 41.4123 80.2918 40.6308 80.869 40.0548C81.4463 39.4788 82.2285 39.1553 83.044 39.1553H135.017C135.833 39.1553 136.615 39.4788 137.192 40.0548C137.77 40.6308 138.095 41.4123 138.096 42.2278V76.5161C138.099 76.9222 138.021 77.3247 137.868 77.7006C137.714 78.0764 137.488 78.4182 137.202 78.7063C136.916 78.9943 136.575 79.2229 136.2 79.3789C135.825 79.5349 135.423 79.6152 135.017 79.6151ZM83.044 40.4626C82.5805 40.4626 82.1359 40.6462 81.8075 40.9733C81.4792 41.3005 81.2938 41.7444 81.292 42.2079V76.4962C81.2938 76.9597 81.4792 77.4036 81.8075 77.7307C82.1359 78.0578 82.5805 78.2415 83.044 78.2415H135.017C135.481 78.2415 135.925 78.0578 136.254 77.7307C136.582 77.4036 136.767 76.9597 136.769 76.4962V42.2278C136.767 41.7643 136.582 41.3204 136.254 40.9933C135.925 40.6661 135.481 40.4825 135.017 40.4825L83.044 40.4626Z" fill="#093F68"/>
<path d="M100.356 87.2207H117.71C118.811 87.2207 119.868 87.6584 120.647 88.4374C121.426 89.2165 121.864 90.2731 121.864 91.3749V92.8348H96.2021V91.3749C96.2021 90.2731 96.6398 89.2165 97.4189 88.4374C98.1979 87.6584 99.2545 87.2207 100.356 87.2207Z" fill="#1CD3C1"/>
<path d="M121.858 93.4979H96.2027C96.0267 93.4979 95.8579 93.428 95.7334 93.3036C95.609 93.1791 95.5391 93.0103 95.5391 92.8343V91.3744C95.5408 90.0972 96.049 88.8728 96.9521 87.9697C97.8552 87.0665 99.0796 86.5584 100.357 86.5566H117.703C118.981 86.5584 120.205 87.0665 121.108 87.9697C122.011 88.8728 122.519 90.0972 122.521 91.3744V92.8343C122.521 93.0103 122.451 93.1791 122.327 93.3036C122.202 93.428 122.034 93.4979 121.858 93.4979ZM96.8663 92.1707H121.194V91.3744C121.192 90.4492 120.824 89.5624 120.17 88.9081C119.515 88.2539 118.629 87.8856 117.703 87.8838H100.357C99.4316 87.8856 98.5448 88.2539 97.8906 88.9081C97.2363 89.5624 96.868 90.4492 96.8663 91.3744V92.1707Z" fill="#093F68"/>
<path d="M109.03 59.3691C109.41 59.3691 109.786 59.444 110.137 59.5894C110.488 59.7348 110.807 59.9479 111.076 60.2166C111.344 60.4852 111.557 60.8042 111.703 61.1552C111.848 61.5063 111.923 61.8825 111.923 62.2625V87.2139H106.13V62.2625C106.13 61.8825 106.205 61.5063 106.35 61.1552C106.496 60.8042 106.709 60.4852 106.977 60.2166C107.246 59.9479 107.565 59.7348 107.916 59.5894C108.267 59.444 108.643 59.3691 109.023 59.3691H109.03Z" fill="#1CD3C1"/>
<path d="M111.924 87.8839H106.137C105.961 87.8839 105.792 87.814 105.668 87.6895C105.544 87.5651 105.474 87.3963 105.474 87.2203V62.2688C105.474 61.3255 105.848 60.4208 106.515 59.7537C107.182 59.0867 108.087 58.7119 109.031 58.7119C109.974 58.7119 110.879 59.0867 111.546 59.7537C112.213 60.4208 112.587 61.3255 112.587 62.2688V87.2203C112.587 87.3963 112.518 87.5651 112.393 87.6895C112.269 87.814 112.1 87.8839 111.924 87.8839ZM106.801 86.5567H111.26V62.2688C111.26 61.6775 111.025 61.1103 110.607 60.6922C110.189 60.274 109.622 60.0391 109.031 60.0391C108.439 60.0391 107.872 60.274 107.454 60.6922C107.036 61.1103 106.801 61.6775 106.801 62.2688V86.5567Z" fill="#093F68"/>
<path d="M79.9041 89.238C79.9041 89.238 79.4064 86.1855 82.3329 85.137C85.2594 84.0885 86.945 82.7878 88.3053 84.4734C89.6657 86.1589 89.9179 89.2447 89.9179 89.2447L79.9041 89.238Z" fill="#FFC9B0"/>
<path d="M89.9239 89.9012H79.9035C79.7444 89.9033 79.5899 89.8481 79.4681 89.7458C79.3463 89.6435 79.2653 89.5008 79.2399 89.3438C79.0712 88.3306 79.2656 87.2905 79.7889 86.4067C80.3121 85.5228 81.1306 84.8521 82.1 84.5128C82.7105 84.2938 83.2547 84.0682 83.7856 83.8492C85.7365 83.0396 87.4287 82.3428 88.8157 84.0482C90.2955 85.8665 90.5676 89.0518 90.5742 89.1845C90.5816 89.276 90.5698 89.3681 90.5398 89.4548C90.5097 89.5416 90.462 89.6211 90.3997 89.6885C90.3373 89.7558 90.2616 89.8095 90.1774 89.8461C90.0933 89.8828 90.0024 89.9015 89.9106 89.9012H89.9239ZM80.5405 88.574H89.1674C89.007 87.253 88.5363 85.9887 87.7937 84.8844C87.0638 83.9952 86.3271 84.2208 84.2965 85.0768C83.7789 85.2892 83.1949 85.5347 82.5513 85.7404C81.9579 85.9369 81.4429 86.3177 81.0812 86.8275C80.7195 87.3372 80.5301 87.9491 80.5405 88.574Z" fill="#093F68"/>
<path d="M71.5829 29.1616L32.4502 22.811L33.5451 16.082L73.0826 22.4792L71.5829 29.1616Z" fill="#F56132"/>
<path d="M71.5819 29.8454H71.4757L32.3231 23.4947C32.2366 23.4831 32.1536 23.4534 32.0793 23.4077C32.005 23.362 31.9411 23.3012 31.8918 23.2293C31.7887 23.0877 31.7458 22.9112 31.7723 22.7382L32.8739 16.0093C32.9016 15.8361 32.9968 15.681 33.1385 15.5778C33.2803 15.4746 33.4571 15.4317 33.6304 15.4585L73.1679 21.8556C73.2576 21.8702 73.3433 21.903 73.4198 21.9521C73.4963 22.0012 73.5619 22.0655 73.6125 22.1409C73.6635 22.2158 73.6987 22.3004 73.7158 22.3894C73.733 22.4785 73.7317 22.5701 73.712 22.6586L72.199 29.3012C72.1723 29.4481 72.0969 29.5817 71.9849 29.6805C71.873 29.7792 71.7309 29.8373 71.5819 29.8454ZM33.2123 22.2869L71.0709 28.4319L72.2786 23.0434L34.0949 16.8719L33.2123 22.2869Z" fill="#093F68"/>
</svg>
