<svg width="155" height="101" viewBox="0 0 155 101" fill="none" xmlns="http://www.w3.org/2000/svg">
<path d="M75.698 75.4582C75.698 75.4582 62.8677 84.673 56.4815 83.7119C53.1468 83.1067 49.965 81.8854 47.1112 80.1152V99.2518H11.6045V68.8665C11.6036 67.4365 11.8949 66.0204 12.4617 64.6989C13.0284 63.3775 13.8596 62.1766 14.9077 61.1649C15.9557 60.1532 17.2002 59.3504 18.57 58.8024C19.9399 58.2545 21.4082 57.972 22.8913 57.9712H35.818C37.9986 57.9758 40.1311 58.5898 41.9574 59.7388C43.7836 60.8878 45.2253 62.5225 46.108 64.4451C48.6805 67.7565 53.7033 73.5607 57.5298 73.4243C62.8806 73.232 68.3922 70.2493 68.3922 70.2493L75.698 75.4582Z" fill="#78DDD1"/>
<path d="M47.0327 100.338H12.2348C12.0676 100.338 11.9073 100.271 11.7891 100.152C11.6709 100.033 11.6045 99.8721 11.6045 99.704V68.6526C11.6062 65.5343 12.8381 62.544 15.03 60.3378C17.2219 58.1316 20.1948 56.8898 23.2962 56.8848H35.9649C38.2169 56.8854 40.4208 57.5393 42.3124 58.7678C44.2039 59.9964 45.7028 61.7475 46.6293 63.8111C50.8711 69.5144 54.7663 72.7843 57.2496 72.683C62.2919 72.4992 67.561 69.5525 67.6115 69.5144C67.7172 69.4554 67.8376 69.4282 67.9583 69.436C68.079 69.4439 68.1949 69.4865 68.2922 69.5588L75.4396 74.8756C75.519 74.9339 75.5838 75.0102 75.6286 75.0982C75.6735 75.1862 75.6973 75.2836 75.698 75.3825C75.699 75.482 75.6767 75.5803 75.6329 75.6694C75.5891 75.7586 75.525 75.8362 75.4459 75.8958C74.9227 76.2824 62.5818 85.4584 56.134 84.4508C53.1491 83.9177 50.2853 82.8442 47.6819 81.2823V99.7293C47.6753 99.8963 47.6034 100.054 47.4818 100.168C47.3603 100.282 47.1988 100.343 47.0327 100.338ZM12.8651 99.0703H46.4024V80.148C46.4029 80.0357 46.433 79.9256 46.4897 79.8289C46.5464 79.7321 46.6276 79.6523 46.7251 79.5975C46.8225 79.5427 46.9327 79.5149 47.0444 79.517C47.156 79.5191 47.2651 79.5509 47.3605 79.6093C50.0833 81.3789 53.1235 82.5972 56.3105 83.1961C61.4347 84.0009 71.2923 77.2963 73.9584 75.3762L67.8447 70.8199C66.5274 71.5106 61.8885 73.7729 57.2811 73.944H57.1614C53.1591 73.944 48.1987 68.0506 45.5831 64.5019C45.554 64.4655 45.5306 64.4249 45.5137 64.3815C44.6926 62.5261 43.3544 60.9497 41.6608 59.843C39.9673 58.7363 37.991 58.1468 35.9712 58.1458H23.3025C20.5354 58.1509 17.8832 59.2592 15.9277 61.2277C13.9722 63.1962 12.873 65.8641 12.8714 68.6463L12.8651 99.0703Z" fill="#093F68"/>
<path d="M46.9104 80.784C46.7663 80.784 46.6281 80.7246 46.5263 80.6188C46.4244 80.513 46.3672 80.3695 46.3672 80.2199V73.7438C46.3672 73.5942 46.4244 73.4507 46.5263 73.3449C46.6281 73.2391 46.7663 73.1797 46.9104 73.1797C47.0544 73.1797 47.1926 73.2391 47.2944 73.3449C47.3963 73.4507 47.4535 73.5942 47.4535 73.7438V80.2199C47.4535 80.3695 47.3963 80.513 47.2944 80.6188C47.1926 80.7246 47.0544 80.784 46.9104 80.784Z" fill="#093F68"/>
<path d="M46.3671 83.4803L40.8577 78.6113H24.5374C24.5374 78.6113 17.9261 87.5439 11.6045 87.2837V99.2516H46.3671V83.4803Z" fill="#093F68"/>
<path d="M46.8268 100.338H12.2311C12.0649 100.338 11.9056 100.273 11.788 100.158C11.6705 100.042 11.6045 99.8854 11.6045 99.7221V87.8242C11.604 87.7402 11.6209 87.657 11.6543 87.5797C11.6877 87.5024 11.7369 87.4326 11.7988 87.3747C11.8598 87.3183 11.9318 87.2745 12.0103 87.246C12.0889 87.2174 12.1725 87.2046 12.2562 87.2084C18.1652 87.467 24.5317 78.9501 24.5943 78.8638C24.6527 78.7854 24.7291 78.7216 24.8173 78.6777C24.9055 78.6338 25.003 78.6111 25.1019 78.6114H41.3439C41.4983 78.6101 41.6479 78.6649 41.7637 78.7653L47.2466 83.6119C47.3116 83.6695 47.3635 83.7398 47.3991 83.8183C47.4347 83.8968 47.4532 83.9817 47.4534 84.0676V99.7221C47.4534 99.8854 47.3874 100.042 47.2699 100.158C47.1524 100.273 46.993 100.338 46.8268 100.338ZM12.8577 99.1063H46.2002V84.3263L41.0995 79.8245H25.434C24.3124 81.2718 18.6665 88.1629 12.9016 88.4462L12.8577 99.1063Z" fill="#093F68"/>
<path d="M28.9856 57.9712H25.7266V79.6978H28.9856V57.9712Z" fill="#093F68"/>
<path d="M28.3765 80.7841H25.2501C25.0884 80.7841 24.9334 80.7192 24.8191 80.6036C24.7048 80.4879 24.6406 80.3311 24.6406 80.1676V58.5878C24.6406 58.4242 24.7048 58.2674 24.8191 58.1518C24.9334 58.0362 25.0884 57.9712 25.2501 57.9712H28.3765C28.5381 57.9712 28.6932 58.0362 28.8074 58.1518C28.9217 58.2674 28.9859 58.4242 28.9859 58.5878V80.1676C28.9859 80.3311 28.9217 80.4879 28.8074 80.6036C28.6932 80.7192 28.5381 80.7841 28.3765 80.7841ZM25.8595 79.551H27.7671V59.2043H25.8595V79.551Z" fill="#093F68"/>
<path d="M38.9976 57.9712H37.4411C36.971 57.9712 36.5898 58.3436 36.5898 58.803V78.866C36.5898 79.3254 36.971 79.6978 37.4411 79.6978H38.9976C39.4677 79.6978 39.8488 79.3254 39.8488 78.866V58.803C39.8488 58.3436 39.4677 57.9712 38.9976 57.9712Z" fill="#093F68"/>
<path d="M39.5091 79.6977H38.0159C37.8287 79.6977 37.6432 79.6604 37.4702 79.5879C37.2972 79.5154 37.14 79.4091 37.0075 79.2751C36.8751 79.1412 36.7701 78.9821 36.6984 78.8071C36.6267 78.632 36.5898 78.4444 36.5898 78.255V58.3214C36.5898 58.1322 36.6268 57.9449 36.6985 57.7702C36.7703 57.5955 36.8754 57.4368 37.0079 57.3034C37.1404 57.1699 37.2977 57.0642 37.4707 56.9924C37.6436 56.9205 37.829 56.884 38.0159 56.8848H39.5091C39.6961 56.884 39.8814 56.9205 40.0544 56.9924C40.2273 57.0642 40.3846 57.1699 40.5171 57.3034C40.6496 57.4368 40.7548 57.5955 40.8265 57.7702C40.8982 57.9449 40.9352 58.1322 40.9352 58.3214V78.255C40.9352 78.6376 40.7849 79.0046 40.5175 79.2751C40.25 79.5457 39.8873 79.6977 39.5091 79.6977ZM38.0159 58.1179C37.962 58.1179 37.9102 58.1391 37.8715 58.1771C37.8328 58.2151 37.8103 58.2669 37.8087 58.3214V78.255C37.8087 78.3106 37.8306 78.3639 37.8694 78.4032C37.9083 78.4425 37.961 78.4646 38.0159 78.4646H39.5091C39.564 78.4646 39.6167 78.4425 39.6556 78.4032C39.6945 78.3639 39.7163 78.3106 39.7163 78.255V58.3214C39.7147 58.2669 39.6922 58.2151 39.6535 58.1771C39.6148 58.1391 39.563 58.1179 39.5091 58.1179H38.0159Z" fill="#093F68"/>
<path d="M150.655 24.706V79.2869C150.655 80.5484 150.155 81.7582 149.266 82.6501C148.377 83.5421 147.171 84.0432 145.913 84.0432H67.4041C66.1464 84.0432 64.9403 83.5421 64.051 82.6501C63.1617 81.7582 62.6621 80.5484 62.6621 79.2869V24.706C62.6621 23.4446 63.1617 22.2348 64.051 21.3428C64.9403 20.4508 66.1464 19.9497 67.4041 19.9497H145.913C147.171 19.9497 148.377 20.4508 149.266 21.3428C150.155 22.2348 150.655 23.4446 150.655 24.706Z" fill="white"/>
<path d="M146.315 85.1295H67.0004C66.2596 85.1275 65.527 84.9735 64.8474 84.677C64.1677 84.3805 63.5552 83.9476 63.0473 83.4048C62.0987 82.3954 61.5716 81.0575 61.5752 79.668V24.3248C61.5769 22.8768 62.149 21.4886 63.1661 20.4648C64.1831 19.4409 65.562 18.865 67.0004 18.8633H146.315C147.754 18.865 149.133 19.4409 150.15 20.4648C151.167 21.4886 151.739 22.8768 151.741 24.3248V79.668C151.739 81.1159 151.167 82.5041 150.15 83.528C149.133 84.5518 147.754 85.1278 146.315 85.1295ZM67.0004 20.1408C65.8986 20.1425 64.8425 20.5839 64.0634 21.3681C63.2843 22.1524 62.8459 23.2156 62.8443 24.3248V79.668C62.8405 80.7327 63.2451 81.7578 63.9737 82.5297C64.3623 82.9458 64.8311 83.2777 65.3516 83.5051C65.872 83.7324 66.433 83.8504 67.0004 83.8519H146.315C146.861 83.8519 147.402 83.7437 147.906 83.5334C148.41 83.3232 148.868 83.015 149.254 82.6265C149.64 82.238 149.946 81.7767 150.155 81.2691C150.364 80.7615 150.472 80.2174 150.472 79.668V24.3248C150.47 23.2156 150.032 22.1524 149.252 21.3681C148.473 20.5839 147.417 20.1425 146.315 20.1408H67.0004Z" fill="#093F68"/>
<path d="M146.309 23.2085H67.0068V71.0071H146.309V23.2085Z" fill="#78DDD1"/>
<path d="M146.754 72.0934H66.5627C66.3925 72.0934 66.2293 72.0256 66.1089 71.905C65.9885 71.7844 65.9209 71.6208 65.9209 71.4502V23.8517C65.9209 23.6811 65.9885 23.5175 66.1089 23.3969C66.2293 23.2763 66.3925 23.2085 66.5627 23.2085H146.754C146.924 23.2085 147.087 23.2763 147.208 23.3969C147.328 23.5175 147.396 23.6811 147.396 23.8517V71.4502C147.396 71.6208 147.328 71.7844 147.208 71.905C147.087 72.0256 146.924 72.0934 146.754 72.0934ZM67.2046 70.8069H146.112V24.4949H67.2046V70.8069Z" fill="#093F68"/>
<path d="M116.747 84.043H96.5875C96.5875 84.043 98.4202 90.1723 90.9062 97.0789H122.41C114.896 90.1723 116.747 84.043 116.747 84.043Z" fill="#78DDD1"/>
<path d="M122.856 97.0789H90.4479C90.3203 97.0788 90.1958 97.043 90.0909 96.9764C89.986 96.9098 89.9058 96.8156 89.8607 96.7062C89.8157 96.5968 89.8081 96.4774 89.8389 96.3639C89.8697 96.2504 89.9374 96.1482 90.0331 96.0709C97.3921 90.0973 95.689 84.8437 95.689 84.7919C95.6588 84.7048 95.6515 84.6124 95.6679 84.5222C95.6843 84.4321 95.7238 84.3468 95.7833 84.2734C95.8418 84.2019 95.9177 84.1438 96.005 84.1038C96.0923 84.0638 96.1885 84.043 96.2861 84.043H117.025C117.123 84.0421 117.221 84.0625 117.309 84.1025C117.397 84.1426 117.474 84.2011 117.534 84.2734C117.592 84.3461 117.631 84.4304 117.647 84.5195C117.664 84.6085 117.657 84.6999 117.628 84.7861C117.362 85.8997 117.377 87.0543 117.672 88.1617C118.118 90.0512 119.45 92.9544 123.284 96.0709C123.379 96.1482 123.447 96.2504 123.478 96.3639C123.509 96.4774 123.501 96.5968 123.456 96.7062C123.411 96.8156 123.331 96.9098 123.226 96.9764C123.121 97.043 122.997 97.0788 122.869 97.0789H122.856ZM92.0315 95.9268H121.273C116.038 91.1341 116 86.8714 116.245 85.1951H97.059C97.3041 86.8656 97.2664 91.1284 92.0315 95.9268Z" fill="#093F68"/>
<path d="M106.665 79.6978C106.127 79.699 105.601 79.5408 105.154 79.2431C104.707 78.9455 104.357 78.5218 104.151 78.0256C103.944 77.5295 103.89 76.9832 103.994 76.456C104.098 75.9288 104.356 75.4443 104.736 75.0638C105.115 74.6834 105.599 74.4241 106.126 74.3188C106.653 74.2135 107.199 74.2669 107.696 74.4722C108.193 74.6776 108.617 75.0257 108.916 75.4724C109.215 75.9192 109.374 76.4445 109.374 76.9819C109.374 77.7011 109.089 78.3909 108.581 78.9001C108.073 79.4092 107.384 79.6961 106.665 79.6978ZM106.665 75.5352C106.378 75.5339 106.098 75.6177 105.859 75.7759C105.62 75.9341 105.434 76.1596 105.323 76.4239C105.213 76.6881 105.183 76.9792 105.238 77.2603C105.294 77.5413 105.431 77.7997 105.633 78.0027C105.835 78.2056 106.093 78.3441 106.374 78.4004C106.654 78.4567 106.946 78.4285 107.21 78.3191C107.475 78.2098 107.701 78.0244 107.861 77.7864C108.02 77.5483 108.105 77.2683 108.105 76.9819C108.105 76.5993 107.953 76.2323 107.683 75.9612C107.414 75.69 107.047 75.5369 106.665 75.5352Z" fill="#093F68"/>
<path d="M126.26 97.0791H87.0562C86.1827 97.0791 85.4746 97.5655 85.4746 98.1654C85.4746 98.7654 86.1827 99.2518 87.0562 99.2518H126.26C127.133 99.2518 127.842 98.7654 127.842 98.1654C127.842 97.5655 127.133 97.0791 126.26 97.0791Z" fill="#78DDD1"/>
<path d="M125.678 100.338H87.6386C87.0646 100.338 86.5142 100.109 86.1084 99.7016C85.7026 99.2942 85.4746 98.7416 85.4746 98.1653C85.4746 97.5891 85.7026 97.0365 86.1084 96.629C86.5142 96.2216 87.0646 95.9927 87.6386 95.9927H125.678C126.251 95.9927 126.802 96.2216 127.208 96.629C127.614 97.0365 127.842 97.5891 127.842 98.1653C127.842 98.7416 127.614 99.2942 127.208 99.7016C126.802 100.109 126.251 100.338 125.678 100.338ZM87.6386 97.2622C87.3983 97.2622 87.1679 97.358 86.998 97.5285C86.8281 97.6991 86.7327 97.9304 86.7327 98.1717C86.7327 98.4129 86.8281 98.6442 86.998 98.8148C87.1679 98.9853 87.3983 99.0811 87.6386 99.0811H125.678C125.918 99.0811 126.148 98.9853 126.318 98.8148C126.488 98.6442 126.583 98.4129 126.583 98.1717C126.583 97.9304 126.488 97.6991 126.318 97.5285C126.148 97.358 125.918 97.2622 125.678 97.2622H87.6386Z" fill="#093F68"/>
<path d="M29.1582 57.0664L35.054 56.1779L35.5654 59.5719C35.6652 60.2337 35.4979 60.9081 35.1004 61.4467C34.703 61.9852 34.1078 62.3438 33.446 62.4435L32.5538 62.578C31.8919 62.6777 31.2176 62.5104 30.679 62.113C30.1405 61.7155 29.7819 61.1204 29.6822 60.4585L29.1707 57.0645L29.1582 57.0664Z" fill="#FFC9B0"/>
<path d="M32.0434 62.3162C31.184 62.3233 30.3502 62.0967 29.696 61.6785C29.0418 61.2602 28.6113 60.6784 28.4842 60.0405L27.9076 57.1666C27.8934 57.0972 27.8977 57.0263 27.9201 56.9581C27.9425 56.8899 27.9826 56.8256 28.0382 56.7691C28.0937 56.7125 28.1636 56.6647 28.2438 56.6284C28.324 56.5922 28.4129 56.5681 28.5055 56.5577L35.1613 55.8045C35.2538 55.7939 35.3483 55.797 35.4392 55.8139C35.5301 55.8307 35.6157 55.8608 35.6911 55.9025C35.7665 55.9442 35.8302 55.9966 35.8785 56.0568C35.9268 56.117 35.9589 56.1837 35.9728 56.2532L36.5494 59.1271C36.62 59.4748 36.5985 59.8295 36.486 60.1709C36.3735 60.5124 36.1723 60.8338 35.8938 61.1167C35.6154 61.3996 35.2652 61.6385 34.8634 61.8195C34.4616 62.0006 34.0161 62.1204 33.5525 62.1719L32.5488 62.2895C32.3811 62.3055 32.2124 62.3144 32.0434 62.3162ZM29.4523 57.5085L29.9221 59.8536C29.9629 60.063 30.0587 60.2644 30.2038 60.4459C30.3489 60.6274 30.5405 60.7856 30.7675 60.9113C30.9945 61.0369 31.2525 61.1276 31.5264 61.178C31.8004 61.2284 32.085 61.2376 32.3637 61.2051L33.3674 61.0929C33.6465 61.0622 33.9148 60.9904 34.1567 60.8815C34.3986 60.7726 34.6094 60.6288 34.7769 60.4585C34.9443 60.2881 35.0651 60.0946 35.1323 59.889C35.1995 59.6834 35.2118 59.4698 35.1684 59.2606L34.6986 56.9156L29.4523 57.5085Z" fill="#093F68"/>
<path d="M9.61649 45.178C8.6591 44.2543 7.85593 42.613 7.25836 41.6519C5.09766 38.2532 3.96847 34.3312 4.00067 30.337C4.01123 26.935 5.20444 23.6363 7.38687 20.9755C8.37344 19.7319 9.71384 18.7967 11.2421 18.2856C12.0094 18.041 12.828 17.9894 13.6213 18.1357C14.4147 18.2819 15.1569 18.6213 15.7785 19.1219C16.3439 15.0528 20.5269 12.2568 24.697 11.5766C28.8671 10.8963 33.1014 11.9198 37.2651 12.6251C39.0707 12.9309 40.9469 13.1868 42.7139 12.7124C44.4809 12.2381 46.1065 10.8401 46.2736 9.08643C46.2736 9.205 48.0663 10.8838 48.259 11.2084C48.8052 12.1168 49.1571 13.123 49.2935 14.1666C49.5891 16.3946 48.7217 18.2045 47.8028 20.1766C47.7334 20.2995 47.6938 20.4361 47.6872 20.5761C47.7152 20.7669 47.8053 20.944 47.9442 21.0816C52.442 26.6985 51.9922 32.9395 51.4974 39.6235L47.6743 39.5362C46.068 39.4987 44.1725 40.1603 42.6047 40.4349L31.0389 42.4944C25.4488 43.4867 20.1156 45.721 14.4034 45.9519C13.2597 45.9956 11.3257 46.189 10.2847 45.6523C10.04 45.5258 9.81496 45.3661 9.61649 45.178Z" fill="#FFD705"/>
<path d="M12.9432 46.0123C12.0855 46.0621 11.2281 45.911 10.44 45.5712C10.14 45.4072 9.86759 45.1975 9.63277 44.9499C8.88687 44.0965 8.2558 43.1504 7.75541 42.1355C7.58645 41.8435 7.43626 41.5701 7.29858 41.3402C5.11183 37.8633 3.9679 33.8398 4.00069 29.7408C4.01479 26.2211 5.22782 22.8097 7.44252 20.0612C8.48266 18.7248 9.89799 17.7239 11.5101 17.1847C12.8967 16.7593 14.3963 16.8932 15.6841 17.5574C16.7793 13.5191 20.9908 11.0774 24.6955 10.4872C28.2875 9.91561 31.9045 10.5804 35.4027 11.2203C35.9847 11.3259 36.5667 11.4378 37.1486 11.5372C38.8132 11.823 40.5717 12.0715 42.1549 11.6304C43.5004 11.2638 45.021 10.1455 45.1712 8.56121C45.1844 8.42701 45.2411 8.30069 45.3329 8.20132C45.4247 8.10196 45.5466 8.03494 45.6801 8.01039C45.8137 7.98584 45.9516 8.00508 46.0732 8.06522C46.1948 8.12535 46.2933 8.22312 46.354 8.34376C46.4666 8.48666 46.8546 8.88428 47.1425 9.17628C47.5498 9.55902 47.9245 9.97463 48.2626 10.4189C48.8358 11.3986 49.206 12.4823 49.3515 13.6061C49.6581 15.9607 48.8008 17.837 47.8934 19.8189L47.8496 19.9121C47.8275 19.9584 47.8087 20.0061 47.7933 20.055C47.7933 20.055 47.8746 20.1233 47.9122 20.1793C52.4491 25.9696 51.9861 32.3192 51.5042 39.0415C51.5042 39.2063 51.4383 39.3643 51.3209 39.4808C51.2036 39.5973 51.0444 39.6628 50.8784 39.6628L47.155 39.5758C46.0709 39.6169 44.9964 39.7943 43.9572 40.1039C43.394 40.2406 42.8621 40.3711 42.3489 40.4642L31.0848 42.5145C29.0259 42.8873 26.9608 43.4526 24.9646 43.9931C21.698 44.8878 18.3124 45.8135 14.7955 45.9564H14.3137C13.8944 45.9875 13.4188 46.0123 12.9432 46.0123ZM13.1935 18.1849C12.7504 18.1849 12.3097 18.2498 11.8856 18.3775C10.5049 18.8449 9.29576 19.7101 8.41249 20.8627C6.38707 23.397 5.28436 26.5368 5.28355 29.7719C5.24641 33.6327 6.3141 37.4246 8.36242 40.7065C8.50636 40.9426 8.66906 41.2284 8.83802 41.5329C9.30314 42.4547 9.88343 43.3148 10.5652 44.0926C10.7156 44.2452 10.8861 44.3768 11.0721 44.484C11.8043 44.8629 13.2874 44.7822 14.2699 44.7325H14.7705C18.1435 44.5896 21.4539 43.6887 24.6579 42.8127C26.6792 42.2598 28.7756 41.6882 30.9158 41.303L42.18 39.2527C42.6556 39.1658 43.1687 39.0415 43.7132 38.9048C44.8611 38.5711 46.047 38.3832 47.2426 38.3457L50.3715 38.4202C50.8221 32.1452 51.11 26.2306 46.9985 20.9745C46.7841 20.7378 46.6505 20.4399 46.6168 20.1233C46.6141 19.885 46.6722 19.6499 46.7858 19.4399L46.8296 19.3405C47.6932 17.4394 48.4441 15.7992 48.1813 13.7924C48.0566 12.8154 47.7307 11.8743 47.2238 11.0277C47.1362 10.8972 46.598 10.3692 46.2789 10.015L46.1412 9.87212C45.7877 10.5915 45.2813 11.2262 44.6568 11.7324C44.0324 12.2387 43.3048 12.6045 42.5242 12.8046C40.6468 13.314 38.7694 13.0469 36.9484 12.7363L35.1899 12.4194C31.7982 11.7981 28.3063 11.1768 24.9145 11.6863C21.2474 12.2703 17.2674 14.861 16.7793 18.6757C16.7631 18.7872 16.7168 18.8923 16.6451 18.9797C16.5735 19.067 16.4793 19.1334 16.3726 19.1717C16.2658 19.21 16.1507 19.2187 16.0393 19.197C15.928 19.1753 15.8247 19.124 15.7405 19.0485C15.0281 18.4581 14.1208 18.1504 13.1935 18.1849Z" fill="#093F68"/>
<path d="M13.8944 50.1758C17.0575 49.6991 19.2888 47.1032 18.878 44.3777C18.4673 41.6522 15.5701 39.8292 12.407 40.3058C9.2439 40.7825 7.01265 43.3784 7.42339 46.1039C7.83413 48.8294 10.7313 50.6525 13.8944 50.1758Z" fill="#FFC9B0"/>
<path d="M12.938 51.4529C11.5398 51.4618 10.1673 51.0913 8.97817 50.3839C8.24788 49.9728 7.62254 49.4097 7.14803 48.7359C6.67352 48.0621 6.36188 47.2947 6.23596 46.4899C6.11005 45.6851 6.17306 44.8635 6.42037 44.0852C6.66768 43.3069 7.09302 42.5918 7.66519 41.9922C8.87596 40.6971 10.5171 39.8469 12.3078 39.5873C14.0985 39.3277 15.9274 39.6748 17.4813 40.5691C18.2131 40.9787 18.8401 41.541 19.316 42.2145C19.792 42.888 20.1048 43.6557 20.2315 44.4608C20.3581 45.266 20.2954 46.0883 20.0478 46.8671C19.8003 47.6458 19.3743 48.3613 18.8012 48.9608C17.6021 50.2726 15.9527 51.1263 14.1537 51.366C13.7514 51.4249 13.3449 51.4539 12.938 51.4529ZM13.5285 40.823C13.1889 40.8211 12.8497 40.8457 12.5142 40.8965C11.0478 41.0892 9.70194 41.7814 8.72113 42.8474C8.27799 43.3011 7.94762 43.8455 7.75486 44.4396C7.5621 45.0338 7.51198 45.6623 7.60828 46.2778C7.70458 46.8933 7.94478 47.4798 8.31082 47.9931C8.67685 48.5065 9.15918 48.9333 9.7215 49.2414C10.9943 49.9634 12.4868 50.242 13.948 50.0303C15.4093 49.8186 16.7502 49.1295 17.7453 48.0789C18.1792 47.6187 18.5035 47.073 18.6954 46.4798C18.8874 45.8867 18.9425 45.2604 18.8568 44.6447C18.7534 44.0355 18.5134 43.4552 18.1535 42.9441C17.7937 42.4331 17.3225 42.0034 16.7727 41.6849C15.7983 41.1073 14.673 40.8083 13.5285 40.823Z" fill="#093F68"/>
<path d="M47.3036 45.147C50.4667 44.6703 52.6979 42.0744 52.2872 39.3489C51.8765 36.6234 48.9793 34.8003 45.8162 35.277C42.6531 35.7537 40.4218 38.3496 40.8326 41.0751C41.2433 43.8006 44.1405 45.6237 47.3036 45.147Z" fill="#FFC9B0"/>
<path d="M46.6171 46.0214C43.2528 46.0214 40.3741 43.9651 39.9093 41.0609C39.4029 37.8162 42.1221 34.7183 45.972 34.1642C47.7602 33.8886 49.592 34.2341 51.1398 35.1389C51.87 35.5529 52.4969 36.116 52.9763 36.7885C53.4557 37.461 53.776 38.2266 53.9145 39.0313C54.032 39.8357 53.9656 40.6552 53.72 41.4324C53.4744 42.2096 53.0554 42.9259 52.4925 43.5311C51.2912 44.8373 49.6462 45.6893 47.8518 45.9346C47.4429 45.9914 47.0303 46.0204 46.6171 46.0214ZM47.1928 35.406C46.8539 35.4072 46.5154 35.4318 46.1801 35.4794C43.0863 35.9334 40.8874 38.3436 41.2828 40.8606C41.6782 43.3776 44.5153 45.06 47.609 44.6127C49.0765 44.4193 50.423 43.7251 51.4034 42.6565C51.8373 42.1986 52.161 41.6544 52.3517 41.0624C52.5423 40.4705 52.5951 39.8454 52.5063 39.2316C52.4035 38.6227 52.1641 38.0427 51.8047 37.5319C51.4453 37.0211 50.9746 36.5918 50.4253 36.2739C49.4571 35.6889 48.336 35.381 47.1928 35.386V35.406Z" fill="#093F68"/>
<path d="M32.4765 58.8605C27.8561 59.5565 23.1483 58.3905 19.3882 55.619C15.628 52.8475 13.1235 48.6974 12.4254 44.0812L10.5176 31.4496C14.0788 30.6173 15.7386 27.4149 15.9294 24.0282C23.6369 29.6388 30.0726 29.3274 31.6434 27.2052C31.6434 27.2052 26.7021 25.8963 26.168 22.1221C29.2265 23.6182 32.4804 24.677 35.8342 25.2673C39.6498 25.9027 44.8263 22.7702 44.8263 22.7702L47.2556 38.8329C47.9523 43.4467 46.7869 48.148 44.0156 51.9036C41.2442 55.6591 37.0937 58.1614 32.4765 58.8605Z" fill="#FFC9B0"/>
<path d="M29.2858 59.0577C24.9404 59.0494 20.7416 57.4888 17.4493 54.6584C14.157 51.8279 11.9888 47.9147 11.3371 43.6269L9.43848 31.0637C9.41522 30.9071 9.45175 30.7474 9.54083 30.6164C9.62991 30.4854 9.76505 30.3926 9.91948 30.3563C12.7865 29.7246 14.6218 27.1539 14.818 23.5662C14.8241 23.4526 14.8609 23.3427 14.9244 23.2482C14.9879 23.1537 15.0758 23.0781 15.1788 23.0293C15.2805 22.9832 15.3926 22.9647 15.5037 22.9758C15.6149 22.9869 15.7211 23.0271 15.8116 23.0925C22.2861 27.7981 27.6846 28.1455 29.8237 26.9644C28.2352 26.3328 25.3935 24.7537 24.9948 21.7408C24.9815 21.6265 24.9997 21.5108 25.0475 21.4061C25.0952 21.3014 25.1707 21.2117 25.2658 21.1467C25.3609 21.0816 25.472 21.0438 25.5871 21.0372C25.7022 21.0306 25.8169 21.0555 25.9188 21.1091C28.9043 22.5626 32.0782 23.5937 35.3488 24.1726C38.8867 24.7663 43.8232 21.8039 43.8675 21.7787C43.9603 21.7174 44.0677 21.6816 44.1788 21.6749C44.29 21.6683 44.4009 21.691 44.5004 21.7408C44.5945 21.7855 44.6761 21.8527 44.7379 21.9364C44.7997 22.0202 44.8399 22.1179 44.8548 22.2208L47.2534 38.2201C47.9651 42.9733 46.7591 47.8142 43.8998 51.6813C41.0406 55.5484 36.7616 58.1261 32.0009 58.8493C31.1024 58.9867 30.1948 59.0564 29.2858 59.0577ZM10.7739 31.4174L12.5839 43.4185C12.9164 45.6087 13.6778 47.7121 14.8248 49.6086C15.9718 51.5052 17.4818 53.1577 19.2686 54.4718C21.0555 55.7859 23.0842 56.7359 25.239 57.2675C27.3937 57.7992 29.6323 57.902 31.8268 57.5702C34.0214 57.2384 36.129 56.4785 38.0293 55.3338C39.9296 54.1891 41.5854 52.6821 42.9021 50.8987C44.2188 49.1154 45.1707 47.0907 45.7033 44.9402C46.236 42.7897 46.3391 40.5556 46.0066 38.3654L43.7219 23.2504C42.0701 24.122 38.2601 25.878 35.1527 25.36C32.233 24.8445 29.3857 23.9815 26.672 22.7893C27.8998 25.1516 31.2098 26.0675 31.2477 26.0738C31.3482 26.1002 31.4406 26.1509 31.5167 26.2214C31.5929 26.2919 31.6505 26.3801 31.6844 26.478C31.718 26.5748 31.7274 26.6783 31.712 26.7795C31.6966 26.8807 31.6567 26.9767 31.5958 27.0591C29.8617 29.4341 23.5455 29.832 15.9699 24.6968C15.4762 28.114 13.5965 30.5458 10.7739 31.4174Z" fill="#093F68"/>
<path d="M26.2701 41.6765C27.1701 41.6765 27.8996 40.9469 27.8996 40.047C27.8996 39.147 27.1701 38.4175 26.2701 38.4175C25.3702 38.4175 24.6406 39.147 24.6406 40.047C24.6406 40.9469 25.3702 41.6765 26.2701 41.6765Z" fill="#093F68"/>
<path d="M39.849 39.5036C40.449 39.5036 40.9354 38.7741 40.9354 37.8741C40.9354 36.9742 40.449 36.2446 39.849 36.2446C39.2491 36.2446 38.7627 36.9742 38.7627 37.8741C38.7627 38.7741 39.2491 39.5036 39.849 39.5036Z" fill="#093F68"/>
<path d="M29.9828 47.1077H29.8166C29.5961 47.1077 29.3847 47.0232 29.2288 46.8726C29.0729 46.7221 28.9854 46.5179 28.9854 46.305C28.9854 46.0921 29.0729 45.8879 29.2288 45.7374C29.3847 45.5868 29.5961 45.5023 29.8166 45.5023C30.8135 45.5172 31.8074 45.3928 32.7675 45.133C32.6844 44.4346 31.5954 42.508 30.2738 40.7821C30.2091 40.6968 30.1626 40.6 30.1368 40.4973C30.111 40.3946 30.1065 40.2879 30.1235 40.1835C30.1405 40.0791 30.1786 39.979 30.2358 39.8888C30.293 39.7987 30.368 39.7204 30.4566 39.6583C30.545 39.5959 30.6452 39.5509 30.7516 39.526C30.8579 39.5011 30.9684 39.4967 31.0765 39.5131C31.1846 39.5296 31.2883 39.5664 31.3817 39.6216C31.475 39.6769 31.5561 39.7493 31.6204 39.8349C32.5846 41.1113 34.7874 44.2419 34.3635 45.6949C34.3081 45.8763 34.2103 46.043 34.0777 46.1821C33.9451 46.3213 33.7813 46.4292 33.5987 46.4976C32.4389 46.901 31.2156 47.1074 29.9828 47.1077Z" fill="#093F68"/>
<path d="M18.3574 36.2391C18.0371 36.2722 17.7185 36.1579 17.4716 35.9214C17.2247 35.6849 17.0698 35.3455 17.041 34.978C17.0122 34.6104 17.1118 34.2447 17.3179 33.9614C17.524 33.6781 17.8197 33.5004 18.14 33.4673L25.3864 31.922C25.5426 31.8893 25.7029 31.8921 25.8582 31.9305C26.0135 31.9688 26.1606 32.0419 26.2913 32.1455C26.4219 32.2491 26.5335 32.3812 26.6197 32.5343C26.7058 32.6873 26.7649 32.8584 26.7934 33.0377C26.822 33.217 26.8195 33.4009 26.786 33.5791C26.7526 33.7572 26.689 33.9261 26.5987 34.076C26.5084 34.226 26.3933 34.354 26.2599 34.4529C26.1265 34.5518 25.9774 34.6195 25.8212 34.6523L18.5748 36.1906C18.5037 36.2137 18.431 36.23 18.3574 36.2391Z" fill="#093F68"/>
<path d="M34.5996 34.0701C34.2812 34.088 33.9688 33.976 33.7313 33.7586C33.4937 33.5413 33.3504 33.2365 33.3329 32.9113C33.3154 32.586 33.4251 32.267 33.6379 32.0244C33.8507 31.7817 34.1491 31.6354 34.4676 31.6175L41.768 30.8204C41.9257 30.8027 42.0852 30.8169 42.2375 30.8621C42.3899 30.9074 42.5319 30.9828 42.6557 31.0842C42.7795 31.1855 42.8825 31.3108 42.9589 31.4528C43.0352 31.5948 43.0834 31.7508 43.1008 31.9118C43.1181 32.0728 43.1043 32.2358 43.0599 32.3914C43.0156 32.5469 42.9417 32.6921 42.8425 32.8185C42.7433 32.9449 42.6206 33.0501 42.4816 33.128C42.3425 33.206 42.1898 33.2553 42.0321 33.273L34.7557 34.064L34.5996 34.0701Z" fill="#093F68"/>
<path d="M20.9072 46.0193C20.3932 46.018 19.8965 45.8014 19.5072 45.4085C19.1178 45.0156 18.8614 44.4725 18.7845 43.8775L18.1287 38.8059C18.1172 38.7183 18.1207 38.629 18.1388 38.543C18.1569 38.4569 18.1893 38.3759 18.2342 38.3046C18.2791 38.2333 18.3356 38.173 18.4004 38.1273C18.4652 38.0816 18.5371 38.0513 18.6119 38.0381L28.7365 36.2533C28.8117 36.239 28.8886 36.2424 28.9626 36.2632C29.0367 36.284 29.1065 36.3219 29.168 36.3745C29.2285 36.4277 29.2795 36.4943 29.318 36.5706C29.3565 36.6469 29.3818 36.7313 29.3923 36.819L30.0481 41.9041C30.1323 42.564 29.9893 43.2361 29.6506 43.7727C29.312 44.3094 28.8053 44.6668 28.2418 44.7666L21.2351 46.0058C21.1263 46.0204 21.0166 46.0249 20.9072 46.0193ZM19.354 39.2841L19.9293 43.7024C19.9485 43.8549 19.9935 44.0013 20.0616 44.1331C20.1298 44.265 20.2197 44.3796 20.3262 44.4702C20.5394 44.6542 20.8063 44.7317 21.0683 44.6857L28.0807 43.4465C28.2116 43.4236 28.3373 43.3703 28.4504 43.2899C28.5635 43.2095 28.6617 43.1034 28.7394 42.978C28.817 42.8526 28.8726 42.7103 28.9027 42.5594C28.9328 42.4085 28.937 42.2522 28.9149 42.0994L28.3396 37.6744L19.354 39.2841Z" fill="#093F68"/>
<path d="M34.1911 42.7623C33.6305 42.7623 33.0887 42.5701 32.6646 42.2209C32.2405 41.8718 31.9624 41.3889 31.881 40.8605L31.1654 36.3453C31.1529 36.2675 31.1567 36.1882 31.1764 36.1118C31.1962 36.0354 31.2316 35.9635 31.2806 35.9002C31.3296 35.8368 31.3912 35.7833 31.4619 35.7427C31.5326 35.7021 31.611 35.6752 31.6927 35.6635L42.7407 34.0787C42.9044 34.0548 43.0714 34.0935 43.2052 34.1863C43.2725 34.233 43.3293 34.2919 43.3724 34.3597C43.4155 34.4274 43.444 34.5027 43.4563 34.581L44.1657 39.0963C44.2137 39.3863 44.2009 39.6826 44.1279 39.9678C44.055 40.2531 43.9233 40.5217 43.7405 40.7581C43.5578 40.9946 43.3276 41.1941 43.0633 41.3451C42.799 41.4961 42.5058 41.5957 42.2009 41.638L34.5489 42.7384C34.4304 42.7553 34.3108 42.7633 34.1911 42.7623ZM32.4962 36.7819L33.1239 40.7051C33.1452 40.8403 33.1945 40.9702 33.2688 41.0873C33.3432 41.2043 33.4411 41.3061 33.5571 41.3868C33.6716 41.4689 33.8024 41.5282 33.9415 41.561C34.0806 41.5939 34.2253 41.5998 34.3668 41.5782L42.0377 40.4539C42.1794 40.435 42.3157 40.3892 42.4386 40.3194C42.5615 40.2496 42.6685 40.157 42.7533 40.0472C42.9247 39.8255 42.997 39.5481 42.9542 39.2757L42.3264 35.3525L32.4962 36.7819Z" fill="#093F68"/>
<path d="M10.1838 41.6745C10.0922 41.6801 10.0001 41.6709 9.91278 41.6475C9.82548 41.624 9.74468 41.5868 9.67502 41.5378C9.60535 41.4889 9.54818 41.4293 9.50675 41.3623C9.46533 41.2954 9.44047 41.2224 9.4336 41.1476C9.42673 41.0728 9.43797 40.9976 9.46669 40.9264C9.49541 40.8551 9.54105 40.7892 9.601 40.7323C9.66094 40.6754 9.73402 40.6288 9.81606 40.595C9.89811 40.5612 9.98751 40.5409 10.0792 40.5353L18.405 39.51C18.4958 39.4986 18.5883 39.502 18.6775 39.52C18.7666 39.5379 18.8505 39.57 18.9244 39.6145C18.9983 39.6589 19.0608 39.7148 19.1082 39.779C19.1556 39.8432 19.187 39.9143 19.2006 39.9884C19.2145 40.0625 19.2103 40.1381 19.1883 40.2108C19.1664 40.2836 19.127 40.3521 19.0726 40.4124C19.0181 40.4727 18.9496 40.5237 18.871 40.5623C18.7924 40.601 18.7052 40.6267 18.6144 40.6378L10.2885 41.6631L10.1838 41.6745Z" fill="#093F68"/>
<path d="M42.7495 37.3286C42.5703 37.3447 42.3932 37.2746 42.257 37.1336C42.1209 36.9927 42.0368 36.7923 42.0234 36.5768C42.0099 36.3612 42.0682 36.1481 42.1854 35.9843C42.3026 35.8204 42.469 35.7193 42.6482 35.7031L45.5864 35.1667C45.7655 35.1355 45.9476 35.1911 46.0927 35.3214C46.2377 35.4517 46.3338 35.646 46.3597 35.8616C46.3857 36.0771 46.3395 36.2963 46.2312 36.4708C46.1229 36.6453 45.9614 36.7609 45.7822 36.7922L42.8508 37.3205L42.7495 37.3286Z" fill="#093F68"/>
<path d="M28.6469 52.5395C27.9463 52.5419 27.2483 52.4567 26.5703 52.2859C24.3954 51.7342 22.6726 50.2885 21.4345 47.9932C21.3689 47.846 21.3633 47.6803 21.4188 47.5293C21.4743 47.3783 21.5869 47.2533 21.7338 47.1794C21.8807 47.1055 22.0511 47.0881 22.2107 47.1309C22.3703 47.1737 22.5072 47.2733 22.594 47.4098C23.6552 49.3755 25.0964 50.5802 26.8978 51.0558C30.5139 51.9815 34.4509 49.5467 34.4902 49.5213C34.6361 49.4297 34.8137 49.3979 34.9839 49.433C35.154 49.468 35.3028 49.5671 35.3975 49.7084C35.4922 49.8496 35.525 50.0215 35.4888 50.1862C35.4525 50.3509 35.3502 50.4949 35.2042 50.5866C33.2298 51.7756 30.9704 52.4485 28.6469 52.5395Z" fill="#093F68"/>
<path d="M15.9492 70.6944C15.9492 70.6944 28.0808 86.4137 34.4473 86.2141C40.8139 86.0146 55.0571 68.0745 55.0571 68.0745L48.3459 60.144C48.3459 60.144 36.7721 73.6619 33.6828 72.0912C30.5935 70.5206 24.1267 62.8347 24.1267 62.8347" fill="#78DDD1"/>
<path d="M33.829 87.3022C27.2409 87.3022 15.5654 71.6979 15.0735 71.0267C15.0046 70.9617 14.95 70.8811 14.9137 70.7909C14.8774 70.7006 14.8604 70.6029 14.8637 70.5048C14.867 70.4067 14.8907 70.3105 14.933 70.2233C14.9753 70.1361 15.0352 70.06 15.1083 70.0005C15.1815 69.9409 15.2661 69.8994 15.3561 69.8789C15.446 69.8584 15.5392 69.8595 15.6287 69.882C15.7183 69.9045 15.802 69.9479 15.874 70.0091C15.946 70.0703 16.0043 70.1477 16.0449 70.2359C18.1812 73.0175 20.4508 75.6793 22.8447 78.2108C27.6269 83.2749 31.4254 85.9465 33.8414 85.9465H33.941C38.7669 85.787 49.471 73.2597 53.6305 67.8965L47.7523 60.7324C45.1993 63.7762 37.316 72.8277 33.692 72.8277C33.4207 72.8361 33.1516 72.7745 32.9074 72.6483C29.7939 70.9735 23.486 63.2644 23.2183 62.9388C23.1638 62.8727 23.1222 62.7958 23.0958 62.7124C23.0694 62.629 23.0588 62.5408 23.0646 62.453C23.0704 62.3652 23.0924 62.2796 23.1295 62.2009C23.1666 62.1223 23.2179 62.0524 23.2806 61.9951C23.3427 61.9384 23.4147 61.8952 23.4925 61.8682C23.5702 61.8412 23.6522 61.8308 23.7337 61.8376C23.8153 61.8443 23.8947 61.8682 23.9676 61.9078C24.0405 61.9473 24.1054 62.0019 24.1586 62.0682C24.227 62.1413 30.5411 69.9036 33.4989 71.4587C35.1304 72.3226 41.9426 65.8164 47.3165 59.2836C47.3755 59.2119 47.4483 59.1546 47.53 59.1156C47.6117 59.0766 47.7002 59.0568 47.7897 59.0576C47.8786 59.0586 47.9663 59.0798 48.0468 59.12C48.1274 59.1601 48.1989 59.2181 48.2567 59.2902L54.9133 67.4779C55.0065 67.5973 55.0575 67.7478 55.0575 67.9032C55.0575 68.0586 55.0065 68.2091 54.9133 68.3285C54.328 69.0994 40.5042 87.0896 33.9659 87.3022H33.829Z" fill="#093F68"/>
<path d="M83.1547 48.0565C84.0396 47.4588 84.723 46.6002 85.1128 45.5961C85.5026 44.5921 85.5802 43.4909 85.3351 42.4408L82.1194 44.6054L79.9999 43.987V41.3522L83.1121 39.2556C82.3315 38.7456 81.4305 38.4575 80.503 38.4214C79.5755 38.3852 78.6555 38.6024 77.8387 39.0503C77.022 39.4981 76.3385 40.1603 75.8595 40.9676C75.3806 41.775 75.1236 42.6981 75.1154 43.6406L55.1634 56.9936C54.5602 57.4399 54.1498 58.1053 54.0176 58.8512C53.8853 59.597 54.0414 60.366 54.4534 60.9979C54.8654 61.6299 55.5015 62.0761 56.2293 62.2438C56.9572 62.4115 57.7206 62.2876 58.3608 61.8981L78.3007 48.539C79.0868 48.8687 79.9406 48.9971 80.787 48.913C81.6334 48.8289 82.4465 48.5348 83.1547 48.0565ZM56.0343 59.9066C55.8957 59.6933 55.8224 59.4432 55.8237 59.1876C55.8251 58.9321 55.9009 58.6827 56.0418 58.471C56.1826 58.2593 56.3821 58.0946 56.615 57.998C56.8479 57.9013 57.1038 57.8769 57.3504 57.9278C57.5969 57.9788 57.8231 58.1028 58.0003 58.2842C58.1775 58.4656 58.2978 58.6963 58.346 58.947C58.3941 59.1978 58.368 59.4575 58.2709 59.6932C58.1738 59.929 58.0101 60.1302 57.8005 60.2715C57.661 60.3655 57.5046 60.4307 57.3403 60.4632C57.1759 60.4958 57.0069 60.4951 56.8428 60.4612C56.6788 60.4273 56.5229 60.3608 56.3842 60.2657C56.2454 60.1705 56.1265 60.0485 56.0343 59.9066Z" fill="#FFBC0E"/>
<path d="M56.4926 64.4894C55.7187 64.4927 54.9645 64.2401 54.3421 63.7692C53.7197 63.2982 53.2625 62.634 53.0385 61.8756C52.8145 61.1171 52.8357 60.3048 53.099 59.5597C53.3622 58.8146 53.8534 58.1764 54.4994 57.7401L74.6997 44.1071C74.7678 43.0495 75.1043 42.0284 75.6759 41.1448C76.2475 40.2611 77.0345 39.5455 77.959 39.0687C78.8835 38.5918 79.9135 38.3702 80.9473 38.4259C81.981 38.4815 82.9827 38.8124 83.8533 39.3858C83.9396 39.4441 84.0105 39.5234 84.0595 39.6166C84.1086 39.7099 84.1343 39.8141 84.1343 39.92C84.1343 40.0259 84.1086 40.1302 84.0595 40.2234C84.0105 40.3166 83.9396 40.3959 83.8533 40.4542L80.9416 42.431V44.3503L82.3974 44.7917L85.4528 42.7189C85.5365 42.6616 85.6325 42.6259 85.7325 42.6147C85.8326 42.6036 85.9339 42.6174 86.0276 42.6549C86.1206 42.6933 86.2032 42.754 86.2685 42.832C86.3337 42.9099 86.3797 43.0028 86.4025 43.1027C86.6811 44.316 86.591 45.5874 86.1443 46.7467C85.6977 47.906 84.9157 48.898 83.9032 49.5898C83.1357 50.1033 82.2627 50.4283 81.3522 50.5393C80.4418 50.6503 79.5186 50.5442 78.6548 50.2295L58.4545 63.856C57.8756 64.2602 57.1932 64.4805 56.4926 64.4894ZM80.6355 39.6929C79.3953 39.6912 78.2049 40.1922 77.3244 41.0865C76.444 41.9808 75.9451 43.1956 75.9368 44.4654C75.9363 44.5708 75.9104 44.6744 75.8613 44.767C75.8123 44.8596 75.7416 44.9384 75.6557 44.9964L55.1867 58.8085C54.9303 58.9827 54.7098 59.207 54.538 59.4685C54.3662 59.7301 54.2464 60.0237 54.1855 60.3326C54.1246 60.6416 54.1237 60.9598 54.1829 61.269C54.2422 61.5783 54.3603 61.8726 54.5307 62.1351C54.8793 62.6603 55.417 63.0226 56.0261 63.1425C56.6351 63.2624 57.2657 63.1302 57.7797 62.7749L78.2487 48.9692C78.3336 48.9119 78.431 48.8767 78.5322 48.8667C78.6335 48.8566 78.7356 48.8721 78.8297 48.9116C79.5567 49.219 80.3473 49.3349 81.1293 49.2487C81.9113 49.1624 82.6597 48.8768 83.3061 48.418C83.9525 47.9592 84.4762 47.3418 84.8294 46.6222C85.1826 45.9027 85.3539 45.1039 85.3278 44.2991L82.8286 45.9752C82.7532 46.0267 82.6678 46.0609 82.5782 46.0752C82.4886 46.0896 82.3971 46.0839 82.31 46.0584L80.1294 45.4186C79.9965 45.3776 79.8808 45.2924 79.8005 45.1766C79.7202 45.0607 79.6798 44.9208 79.6857 44.7789V42.0536C79.6845 41.9477 79.709 41.8432 79.757 41.7494C79.805 41.6556 79.875 41.5755 79.9607 41.5162L82.26 39.9616C81.7387 39.7728 81.1883 39.6817 80.6355 39.6929ZM56.855 62.5446C56.725 62.5442 56.5953 62.5313 56.4676 62.5062C56.2145 62.4587 55.9734 62.3595 55.7587 62.2144C55.544 62.0693 55.3601 61.8813 55.218 61.6617C55.0069 61.3358 54.8951 60.9531 54.8965 60.562C54.898 60.1709 55.0126 59.7891 55.2261 59.4648C55.4395 59.1405 55.7421 58.8883 56.0956 58.7401C56.449 58.5919 56.8375 58.5544 57.2118 58.6323C57.5861 58.7102 57.9294 58.9 58.1983 59.1777C58.4672 59.4554 58.6496 59.8086 58.7224 60.1925C58.7953 60.5763 58.7553 60.9737 58.6075 61.3343C58.4597 61.695 58.2108 62.0026 57.8922 62.2183C57.5846 62.4277 57.2243 62.541 56.855 62.5446ZM56.855 59.864C56.7217 59.8637 56.5912 59.9037 56.4801 59.9792C56.3299 60.0846 56.2248 60.2448 56.1864 60.427C56.1679 60.5168 56.1672 60.6096 56.1844 60.6997C56.2015 60.7898 56.2362 60.8755 56.2864 60.9516C56.387 61.1064 56.5434 61.2142 56.7213 61.2514C56.8993 61.2885 57.0844 61.2521 57.2361 61.1499C57.3505 61.0733 57.44 60.9636 57.4931 60.8347C57.5463 60.7058 57.5607 60.5636 57.5346 60.4263C57.5084 60.2889 57.4429 60.1627 57.3463 60.0637C57.2497 59.9647 57.1265 59.8974 56.9925 59.8704L56.855 59.864Z" fill="#093F68"/>
<path d="M96.0822 42.7627C95.9044 42.7597 95.7287 42.7258 95.5639 42.6627L89.6841 40.3133C89.484 40.2331 89.3079 40.1081 89.1712 39.949C89.0346 39.79 88.9415 39.6018 88.9001 39.401L87.671 33.3837C87.6383 33.2225 87.6397 33.0568 87.6751 32.896C87.7104 32.7353 87.7791 32.5827 87.8772 32.4469C88.0753 32.1727 88.3811 31.9837 88.7274 31.9216C89.0736 31.8594 89.432 31.9292 89.7235 32.1155C90.0151 32.3018 90.216 32.5894 90.2821 32.9151L91.3717 38.2763L96.6004 40.357C96.8862 40.4674 97.1221 40.6679 97.2677 40.9242C97.4133 41.1805 97.4593 41.4764 97.398 41.7612C97.3366 42.0459 97.1717 42.3017 96.9316 42.4845C96.6914 42.6672 96.3911 42.7656 96.0822 42.7627Z" fill="#093F68"/>
<path d="M88.9815 65.5757H88.7287C88.557 65.5449 88.3935 65.4826 88.2474 65.3923C88.1014 65.3019 87.9757 65.1854 87.8774 65.0493C87.7792 64.9133 87.7105 64.7603 87.675 64.5992C87.6396 64.4381 87.6383 64.272 87.6711 64.1104L88.9016 58.0801C88.942 57.8778 89.0348 57.6879 89.1717 57.5274C89.3086 57.3668 89.4854 57.2405 89.6865 57.1596L95.5732 54.8114C95.7344 54.7473 95.9074 54.7136 96.0823 54.7124C96.2573 54.7112 96.4308 54.7425 96.593 54.8044C96.7551 54.8663 96.9027 54.9577 97.0273 55.0734C97.1519 55.189 97.2511 55.3266 97.3193 55.4783C97.3874 55.63 97.4231 55.7929 97.4244 55.9576C97.4257 56.1223 97.3925 56.2857 97.3267 56.4383C97.2609 56.5909 97.1638 56.7299 97.041 56.8472C96.9182 56.9645 96.772 57.0579 96.6109 57.1221L91.3694 59.1885L90.2785 64.5613C90.2201 64.8454 90.059 65.1017 89.8225 65.2867C89.5861 65.4716 89.2889 65.5737 88.9815 65.5757Z" fill="#093F68"/>
<path d="M86.7178 51.4533C86.435 51.4532 86.1608 51.3808 85.9403 51.2482C85.6831 51.0935 85.5183 50.8687 85.4821 50.623C85.446 50.3774 85.5414 50.131 85.7474 49.9381L87.2216 48.5394C87.3387 48.4312 87.4866 48.344 87.6545 48.2843C87.8224 48.2246 88.006 48.1939 88.1919 48.1943H94.0076C94.3375 48.1943 94.6539 48.2926 94.8872 48.4675C95.1205 48.6423 95.2516 48.8795 95.2516 49.1268C95.2516 49.3741 95.1205 49.6113 94.8872 49.7862C94.6539 49.961 94.3375 50.0593 94.0076 50.0593H88.789L87.6881 51.085C87.5741 51.1975 87.4276 51.2891 87.2595 51.3529C87.0914 51.4167 86.9061 51.451 86.7178 51.4533Z" fill="#093F68"/>
<path d="M117.086 42.7627C116.811 42.7656 116.544 42.6672 116.331 42.4845C116.117 42.3017 115.971 42.0459 115.916 41.7612C115.862 41.4764 115.903 41.1805 116.032 40.9242C116.161 40.6679 116.371 40.4674 116.625 40.357L121.273 38.2763L122.241 32.9151C122.3 32.5894 122.479 32.3018 122.738 32.1155C122.997 31.9292 123.316 31.8594 123.623 31.9216C123.931 31.9837 124.203 32.1727 124.379 32.4469C124.555 32.7211 124.621 33.0581 124.562 33.3837L123.476 39.401C123.439 39.6018 123.356 39.79 123.235 39.949C123.113 40.1081 122.957 40.2331 122.779 40.3133L117.529 42.6627C117.388 42.7241 117.238 42.758 117.086 42.7627Z" fill="#093F68"/>
<path d="M123.433 65.5747C123.155 65.58 122.883 65.4813 122.667 65.2959C122.451 65.1104 122.303 64.8502 122.25 64.5609L121.281 59.1918L116.616 57.1204C116.472 57.0564 116.343 56.963 116.233 56.8458C116.124 56.7285 116.038 56.5897 115.979 56.4371C115.861 56.1291 115.864 55.784 115.986 55.4778C116.108 55.1716 116.341 54.9293 116.632 54.8044C116.923 54.6794 117.249 54.6819 117.538 54.8113L122.777 57.158C122.955 57.2388 123.113 57.365 123.234 57.5255C123.356 57.6859 123.438 57.8757 123.474 58.0779L124.562 64.1041C124.591 64.2656 124.59 64.4316 124.559 64.5926C124.527 64.7535 124.466 64.9064 124.379 65.0424C124.291 65.1784 124.18 65.2948 124.05 65.3851C123.92 65.4753 123.775 65.5376 123.622 65.5684C123.559 65.5751 123.496 65.5772 123.433 65.5747Z" fill="#093F68"/>
<path d="M126.595 51.4527C126.41 51.4525 126.228 51.4212 126.061 51.3611C125.894 51.301 125.747 51.2136 125.631 51.1053L124.53 50.0724H119.309C118.979 50.0724 118.662 49.9734 118.429 49.7973C118.196 49.6212 118.064 49.3824 118.064 49.1334C118.064 48.8843 118.196 48.6455 118.429 48.4694C118.662 48.2933 118.979 48.1943 119.309 48.1943H125.121C125.307 48.1939 125.49 48.2248 125.658 48.2849C125.826 48.3451 125.974 48.4328 126.091 48.5418L127.566 49.9503C127.773 50.144 127.869 50.3917 127.834 50.6391C127.799 50.8864 127.636 51.1132 127.379 51.2696C127.153 51.3958 126.877 51.4603 126.595 51.4527Z" fill="#093F68"/>
<path d="M106.658 61.2302C113.557 61.2302 119.151 55.637 119.151 48.7374C119.151 41.8378 113.557 36.2446 106.658 36.2446C99.7583 36.2446 94.165 41.8378 94.165 48.7374C94.165 55.637 99.7583 61.2302 106.658 61.2302Z" fill="#F56132"/>
<path d="M106.658 61.2301C104.187 61.2301 101.772 60.4656 99.7172 59.0332C97.6628 57.6008 96.0616 55.5648 95.116 53.1828C94.1705 50.8008 93.9231 48.1797 94.4051 45.651C94.8871 43.1223 96.0769 40.7995 97.8241 38.9764C99.5712 37.1532 101.797 35.9117 104.221 35.4087C106.644 34.9057 109.156 35.1639 111.439 36.1505C113.721 37.1372 115.673 38.808 117.045 40.9518C118.418 43.0955 119.151 45.6159 119.151 48.1942C119.146 51.65 117.828 54.9628 115.486 57.4065C113.144 59.8501 109.97 61.2251 106.658 61.2301ZM106.658 36.4177C104.426 36.4177 102.244 37.1084 100.388 38.4024C98.5319 39.6964 97.0853 41.5357 96.2312 43.6875C95.377 45.8394 95.1535 48.2072 95.5889 50.4917C96.0244 52.7761 97.0993 54.8744 98.6776 56.5214C100.256 58.1684 102.267 59.29 104.456 59.7444C106.645 60.1987 108.915 59.9655 110.977 59.0742C113.039 58.1829 114.802 56.6735 116.042 54.7368C117.282 52.8002 117.944 50.5233 117.944 48.1942C117.94 45.0719 116.75 42.0784 114.635 39.8706C112.519 37.6629 109.65 36.4211 106.658 36.4177Z" fill="#093F68"/>
<path d="M113.719 38.4142L106.658 42.7624L99.5967 38.4142C99.5967 36.0172 102.76 34.0718 106.658 34.0718C110.556 34.0718 113.719 36.0172 113.719 38.4142Z" fill="#093F68"/>
<path d="M106.658 42.7628C106.535 42.7625 106.416 42.7264 106.316 42.6594L99.8549 38.3428C99.7753 38.29 99.7103 38.2195 99.6654 38.1374C99.6204 38.0554 99.5968 37.9641 99.5967 37.8715C99.5967 35.1757 102.767 32.9858 106.658 32.9858C110.549 32.9858 113.719 35.1757 113.719 37.8715C113.719 37.9641 113.695 38.0554 113.65 38.1374C113.605 38.2195 113.54 38.29 113.461 38.3428L107 42.6594C106.9 42.7264 106.78 42.7625 106.658 42.7628ZM100.816 37.5898L106.658 41.4926L112.5 37.5898C112.272 35.6643 109.738 34.1411 106.658 34.1411C103.578 34.1411 101.05 35.6586 100.816 37.5841V37.5898Z" fill="#093F68"/>
<path d="M105.571 61.2302C105.427 61.2302 105.289 61.1634 105.187 61.0443C105.086 60.9253 105.028 60.7639 105.028 60.5956V42.3109C105.028 42.1426 105.086 41.9812 105.187 41.8622C105.289 41.7431 105.427 41.6763 105.571 41.6763C105.716 41.6763 105.854 41.7431 105.956 41.8622C106.057 41.9812 106.115 42.1426 106.115 42.3109V60.5956C106.115 60.7639 106.057 60.9253 105.956 61.0443C105.854 61.1634 105.716 61.2302 105.571 61.2302Z" fill="#093F68"/>
<path d="M111.009 35.1581C110.939 35.1583 110.869 35.1445 110.804 35.1174C110.669 35.0593 110.561 34.947 110.504 34.8052C110.447 34.6633 110.445 34.5035 110.5 34.3607C110.555 34.2093 111.949 30.5714 113.885 28.7844C113.996 28.6825 114.141 28.6311 114.288 28.6414C114.435 28.6518 114.571 28.7231 114.668 28.8397C114.765 28.9562 114.814 29.1085 114.804 29.263C114.794 29.4174 114.726 29.5614 114.616 29.6633C112.879 31.264 111.54 34.7565 111.523 34.7914C111.482 34.8997 111.412 34.9926 111.32 35.058C111.228 35.1233 111.12 35.1582 111.009 35.1581Z" fill="#093F68"/>
<path d="M102.17 35.1581C102.032 35.1582 101.897 35.1233 101.782 35.058C101.667 34.9926 101.579 34.8997 101.527 34.7915C101.527 34.7565 99.8336 31.2587 97.6629 29.6641C97.5245 29.5629 97.4395 29.4197 97.4265 29.2658C97.4136 29.1119 97.4737 28.96 97.5937 28.8434C97.6533 28.7849 97.7261 28.7369 97.8079 28.7023C97.8896 28.6676 97.9788 28.647 98.0701 28.6416C98.1614 28.6362 98.2531 28.6461 98.3399 28.6707C98.4266 28.6954 98.5067 28.7343 98.5754 28.7852C100.995 30.572 102.723 34.2095 102.806 34.3608C102.875 34.5036 102.873 34.6634 102.802 34.8052C102.731 34.947 102.595 35.0593 102.426 35.1174C102.345 35.1445 102.258 35.1583 102.17 35.1581Z" fill="#093F68"/>
<path d="M138.141 64.4891H132.752C132.603 64.4891 132.459 64.3746 132.353 64.1709C132.247 63.9672 132.188 63.6909 132.188 63.4027C132.188 63.1146 132.247 62.8383 132.353 62.6346C132.459 62.4309 132.603 62.3164 132.752 62.3164H138.141C138.29 62.3164 138.434 62.4309 138.54 62.6346C138.646 62.8383 138.705 63.1146 138.705 63.4027C138.705 63.6909 138.646 63.9672 138.54 64.1709C138.434 64.3746 138.29 64.4891 138.141 64.4891Z" fill="white"/>
<path d="M141.382 60.1439H132.77C132.615 60.1439 132.467 60.0867 132.358 59.9849C132.249 59.883 132.188 59.7448 132.188 59.6008C132.188 59.4567 132.249 59.3186 132.358 59.2167C132.467 59.1148 132.615 59.0576 132.77 59.0576H141.382C141.537 59.0576 141.685 59.1148 141.794 59.2167C141.903 59.3186 141.964 59.4567 141.964 59.6008C141.964 59.7448 141.903 59.883 141.794 59.9849C141.685 60.0867 141.537 60.1439 141.382 60.1439Z" fill="white"/>
<path d="M141.382 55.7987H132.77C132.615 55.7987 132.467 55.7415 132.358 55.6396C132.249 55.5378 132.188 55.3996 132.188 55.2556C132.188 55.1115 132.249 54.9734 132.358 54.8715C132.467 54.7696 132.615 54.7124 132.77 54.7124H141.382C141.537 54.7124 141.685 54.7696 141.794 54.8715C141.903 54.9734 141.964 55.1115 141.964 55.2556C141.964 55.3996 141.903 55.5378 141.794 55.6396C141.685 55.7415 141.537 55.7987 141.382 55.7987Z" fill="white"/>
<path d="M140.325 29.7265H132.741C132.594 29.7265 132.453 29.6692 132.35 29.5674C132.246 29.4655 132.188 29.3274 132.188 29.1833C132.188 29.0392 132.246 28.9011 132.35 28.7992C132.453 28.6974 132.594 28.6401 132.741 28.6401H140.325C140.471 28.6401 140.612 28.6974 140.716 28.7992C140.82 28.9011 140.878 29.0392 140.878 29.1833C140.878 29.3274 140.82 29.4655 140.716 29.5674C140.612 29.6692 140.471 29.7265 140.325 29.7265Z" fill="white"/>
<path d="M140.349 32.9857H138.148C138.008 32.9857 137.873 32.9285 137.774 32.8267C137.675 32.7248 137.619 32.5866 137.619 32.4426C137.619 32.2985 137.675 32.1604 137.774 32.0585C137.873 31.9566 138.008 31.8994 138.148 31.8994H140.349C140.489 31.8994 140.624 31.9566 140.723 32.0585C140.822 32.1604 140.878 32.2985 140.878 32.4426C140.878 32.5866 140.822 32.7248 140.723 32.8267C140.624 32.9285 140.489 32.9857 140.349 32.9857Z" fill="white"/>
<path d="M135.891 32.9857H132.829C132.659 32.9857 132.496 32.9285 132.375 32.8267C132.255 32.7248 132.188 32.5866 132.188 32.4426C132.188 32.2985 132.255 32.1604 132.375 32.0585C132.496 31.9566 132.659 31.8994 132.829 31.8994H135.891C136.061 31.8994 136.224 31.9566 136.345 32.0585C136.465 32.1604 136.533 32.2985 136.533 32.4426C136.533 32.5866 136.465 32.7248 136.345 32.8267C136.224 32.9285 136.061 32.9857 135.891 32.9857Z" fill="white"/>
<path d="M81.6229 66.6616H71.9455C71.7882 66.6616 71.6374 66.5965 71.5262 66.4804C71.415 66.3644 71.3525 66.2071 71.3525 66.043V61.8486C71.3525 61.6845 71.415 61.5272 71.5262 61.4112C71.6374 61.2952 71.7882 61.23 71.9455 61.23H81.6229C81.7801 61.23 81.931 61.2952 82.0422 61.4112C82.1534 61.5272 82.2158 61.6845 82.2158 61.8486V66.043C82.2158 66.2071 82.1534 66.3644 82.0422 66.4804C81.931 66.5965 81.7801 66.6616 81.6229 66.6616ZM72.5385 65.4244H81.0299V62.4673H72.5385V65.4244Z" fill="white"/>
<path d="M75.1545 66.6616C75.0104 66.6616 74.8723 66.5862 74.7704 66.452C74.6686 66.3178 74.6113 66.1358 74.6113 65.946V61.9456C74.6113 61.7558 74.6686 61.5738 74.7704 61.4396C74.8723 61.3054 75.0104 61.23 75.1545 61.23C75.2986 61.23 75.4367 61.3054 75.5386 61.4396C75.6404 61.5738 75.6977 61.7558 75.6977 61.9456V65.946C75.6977 66.1358 75.6404 66.3178 75.5386 66.452C75.4367 66.5862 75.2986 66.6616 75.1545 66.6616Z" fill="white"/>
<path d="M48.54 60.8676C49.6926 59.2807 51.0011 57.8149 52.4458 56.4922C54.737 54.4233 56.1714 52.6856 57.7486 52.5481C59.3258 52.4106 65.4918 53.942 64.7777 56.2984C64.0636 58.6549 62.2318 62.8803 59.8474 62.8803C58.5571 62.8517 57.2698 63.0181 56.0286 63.3741L53.2282 66.6619L48.54 60.8676Z" fill="#FFC9B0"/>
<path d="M53.0187 67.7482C52.9233 67.7466 52.8293 67.7254 52.7435 67.6858C52.6577 67.6462 52.582 67.5893 52.5219 67.5191L47.5863 61.7869C47.4999 61.6792 47.4531 61.5476 47.4531 61.4123C47.4531 61.2771 47.4999 61.1455 47.5863 61.0378C48.8226 59.4311 50.2313 57.9499 51.7897 56.6179C52.3127 56.1722 52.7965 55.7451 53.241 55.3427C54.9145 53.857 56.2285 52.6809 57.7517 52.5509C59.2748 52.4209 63.8836 53.4175 65.3936 55.1818C65.6303 55.4289 65.7951 55.7299 65.8719 56.0555C65.9487 56.381 65.9348 56.7199 65.8316 57.0389C65.4525 58.2026 63.3933 63.9968 60.0201 63.9968C58.7907 63.9838 57.5646 64.1212 56.3723 64.4054L53.5483 67.5005C53.4867 67.5783 53.4067 67.6412 53.3147 67.6842C53.2227 67.7272 53.1213 67.7491 53.0187 67.7482ZM48.9134 61.3783L53.0318 66.1634L55.4702 63.4706C55.5474 63.3875 55.6467 63.3255 55.7578 63.2911C57.1307 62.9107 58.5573 62.7333 59.9874 62.7649C61.759 62.7649 63.5959 59.6079 64.5634 56.6798C64.602 56.5535 64.6028 56.4196 64.5659 56.2928C64.529 56.1661 64.4557 56.0515 64.3542 55.9618C63.2168 54.6246 59.0722 53.6837 57.817 53.7828C56.7449 53.8756 55.6336 54.8661 54.0843 56.2589C53.6332 56.6613 53.1429 57.1008 52.6069 57.5527C51.2565 58.7199 50.0203 60.0003 48.9134 61.3783Z" fill="#093F68"/>
<path d="M154.371 100.338H4.62917C4.4623 100.338 4.30227 100.281 4.18428 100.179C4.06629 100.077 4 99.9392 4 99.7951C4 99.6511 4.06629 99.5129 4.18428 99.411C4.30227 99.3092 4.4623 99.252 4.62917 99.252H154.371C154.538 99.252 154.698 99.3092 154.816 99.411C154.934 99.5129 155 99.6511 155 99.7951C155 99.9392 154.934 100.077 154.816 100.179C154.698 100.281 154.538 100.338 154.371 100.338Z" fill="#093F68"/>
</svg>
